M48
;DRILL file {KiCad 5.0.1-33cea8e~68~ubuntu16.04.1} date Thu 15 Nov 2018 12:16:40 -03
;FORMAT={-:-/ absolute / metric / decimal}
FMAT,2
METRIC,TZ
T1C0.400
T2C0.900
T3C1.000
T4C1.200
T5C2.740
T6C3.200
%
G90
G05
M71
T1
X36.25Y-118.65
X37.4Y-87.9
X37.75Y-110.65
X37.9Y-48.025
X38.3Y-86.8
X38.3Y-94.3
X38.554Y-100.004
X40.625Y-88.425
X40.85Y-99.35
X41.65Y-118.
X41.7Y-101.85
X42.6Y-78.175
X43.75Y-115.625
X44.Y-57.25
X44.2Y-69.1
X44.55Y-120.75
X44.65Y-58.7
X44.65Y-83.9
X45.Y-115.653
X45.3Y-69.1
X45.7Y-72.15
X46.1Y-57.25
X46.1Y-91.25
X46.1Y-93.25
X46.7Y-82.
X46.85Y-61.15
X47.35Y-69.1
X47.7Y-61.9
X48.15Y-74.275
X48.448Y-62.687
X48.85Y-118.75
X49.Y-122.896
X49.102Y-69.498
X49.2Y-58.7
X49.45Y-123.875
X49.8Y-62.45
X49.953Y-64.197
X50.Y-72.
X50.275Y-95.9
X50.4Y-57.25
X50.7Y-63.2
X51.75Y-119.5
X52.05Y-122.05
X52.15Y-64.2
X52.75Y-68.75
X52.75Y-71.05
X52.75Y-73.35
X53.5Y-60.25
X53.95Y-63.3
X55.441Y-121.2
X55.45Y-118.9
X55.65Y-61.45
X56.35Y-115.55
X56.35Y-111.35
X56.6Y-82.75
X57.45Y-68.75
X57.45Y-71.05
X57.45Y-73.35
X57.75Y-99.4
X57.75Y-103.675
X58.05Y-77.4
X59.1Y-79.6
X59.2Y-77.4
X59.45Y-90.875
X59.725Y-80.5
X60.55Y-78.6
X61.25Y-96.25
X61.25Y-99.25
X61.25Y-102.25
X61.25Y-105.25
X61.25Y-108.25
X61.475Y-77.9
X61.7Y-70.25
X61.7Y-73.5
X62.25Y-97.75
X62.25Y-100.75
X62.25Y-103.75
X62.25Y-106.75
X62.25Y-109.75
X62.8Y-111.625
X63.175Y-83.975
X63.25Y-96.25
X63.25Y-99.25
X63.25Y-102.25
X63.25Y-105.25
X63.25Y-108.25
X64.25Y-97.75
X64.25Y-100.75
X64.25Y-103.75
X64.25Y-106.75
X64.25Y-109.75
X64.475Y-57.825
X64.55Y-78.75
X64.55Y-79.85
X64.55Y-81.15
X64.55Y-82.45
X64.55Y-77.7
X64.975Y-60.6
X65.25Y-73.75
X65.25Y-96.25
X65.25Y-99.25
X65.25Y-102.25
X65.25Y-105.25
X65.25Y-108.25
X65.65Y-68.
X66.15Y-57.05
X66.25Y-97.75
X66.25Y-100.75
X66.25Y-103.75
X66.25Y-106.75
X66.25Y-109.75
X66.8Y-74.75
X67.15Y-69.1
X67.15Y-70.66
X67.25Y-66.1
X67.25Y-96.25
X67.25Y-99.25
X67.25Y-102.25
X67.25Y-105.25
X67.25Y-108.25
X67.525Y-60.6
X67.6Y-77.7
X68.25Y-97.75
X68.25Y-100.75
X68.25Y-103.75
X68.25Y-106.75
X68.25Y-109.75
X68.8Y-112.45
X69.25Y-96.25
X69.25Y-99.25
X69.25Y-102.25
X69.25Y-105.25
X69.25Y-108.25
X70.637Y-49.362
X70.65Y-50.375
X71.4Y-68.
X71.475Y-54.175
X71.7Y-50.375
X72.275Y-56.15
X72.4Y-60.6
X73.25Y-69.95
X74.012Y-50.387
X74.025Y-49.125
X74.075Y-107.575
X75.05Y-70.75
X75.65Y-110.3
X75.65Y-111.3
X75.7Y-64.35
X75.75Y-51.35
X75.75Y-75.35
X77.05Y-75.6
X77.175Y-52.175
X77.175Y-54.025
X77.189Y-64.185
X77.55Y-100.8
X77.623Y-67.175
X77.85Y-65.
X77.975Y-55.375
X78.Y-110.3
X78.375Y-73.3
X78.375Y-75.475
X78.996Y-63.646
X79.15Y-69.975
X79.35Y-66.4
X79.35Y-67.45
X79.65Y-59.3
X79.7Y-64.425
X81.771Y-76.075
X81.85Y-100.45
X81.85Y-106.9
X83.2Y-61.95
X84.336Y-83.625
X84.7Y-102.55
X84.7Y-106.85
X85.05Y-84.45
X85.525Y-50.5
X86.3Y-76.6
X86.65Y-91.25
X86.747Y-77.55
X86.75Y-107.3
X87.025Y-50.4
X87.05Y-63.65
X87.15Y-66.7
X87.425Y-51.85
X87.55Y-95.6
X87.55Y-99.8
X87.75Y-78.575
X88.045Y-82.316
X88.398Y-53.9
X88.6Y-101.3
X88.8Y-86.8
X88.8Y-96.3
X89.25Y-55.15
X89.7Y-102.1
X90.Y-97.6
X90.225Y-59.525
X90.4Y-62.
X90.45Y-73.8
X90.55Y-63.65
X90.55Y-64.8
X90.65Y-69.
X91.Y-55.325
X91.127Y-74.732
X91.35Y-91.25
X91.4Y-60.
X92.1Y-89.875
X92.113Y-77.613
X92.15Y-59.15
X92.2Y-62.85
X92.625Y-81.125
X93.Y-55.325
X94.184Y-58.875
X94.35Y-67.7
X94.35Y-77.601
X94.4Y-64.975
X95.Y-55.325
X95.3Y-73.85
X95.3Y-74.9
X95.3Y-75.9
X95.3Y-76.9
X95.55Y-61.2
X96.25Y-55.3
X96.5Y-59.65
X96.8Y-64.975
X97.Y-68.25
X97.Y-73.1
X97.65Y-61.15
X98.075Y-68.25
X98.131Y-58.897
X98.525Y-86.25
X98.55Y-62.9
X98.798Y-55.229
X98.8Y-60.65
X99.175Y-68.275
X99.175Y-71.975
X99.175Y-73.1
X99.6Y-86.25
X99.896Y-62.253
X99.9Y-60.65
X100.Y-55.25
X101.Y-81.05
X101.05Y-55.15
X101.15Y-63.45
X102.15Y-63.475
X102.55Y-80.6
X102.9Y-55.15
X103.25Y-63.475
X103.604Y-80.61
X103.65Y-97.7
X103.65Y-102.75
X103.704Y-55.825
X104.8Y-97.7
X104.8Y-102.75
X105.25Y-52.9
X106.287Y-74.175
X106.582Y-59.025
X107.012Y-73.346
X107.013Y-64.287
X107.45Y-48.95
X107.45Y-55.15
X107.65Y-72.5
X108.7Y-76.55
X108.975Y-75.5
X109.425Y-80.025
X109.75Y-55.15
X110.177Y-50.823
X110.2Y-49.75
X110.95Y-55.9
X111.15Y-78.25
X111.25Y-58.45
X111.4Y-84.325
X111.406Y-83.294
X112.175Y-76.05
X112.175Y-80.025
X112.2Y-73.2
X112.25Y-70.2
X112.7Y-62.35
X114.15Y-91.075
X115.2Y-91.1
X115.75Y-62.3
X116.771Y-74.776
X117.777Y-66.773
X119.75Y-81.65
X120.3Y-90.075
X121.Y-70.45
X121.9Y-71.45
X123.2Y-84.9
X124.275Y-64.
X124.5Y-71.45
X124.875Y-61.975
X125.85Y-65.55
X126.25Y-98.65
X126.25Y-102.6
X129.15Y-79.75
X130.95Y-65.75
X131.15Y-70.425
X132.627Y-73.05
X132.7Y-77.6
X133.2Y-95.1
X133.35Y-71.025
X135.Y-64.8
X137.425Y-84.275
X138.25Y-70.55
X138.25Y-97.85
X138.35Y-59.05
X138.45Y-93.35
X139.425Y-85.46
X139.45Y-97.8
X139.6Y-59.05
X139.7Y-91.4
X139.8Y-70.9
X139.875Y-65.75
X140.Y-94.15
X140.325Y-110.075
X140.5Y-118.85
X140.65Y-97.8
X141.216Y-94.15
X141.75Y-76.625
X142.1Y-71.3
X142.201Y-75.197
X144.35Y-80.
X144.55Y-106.8
X144.65Y-101.25
X145.15Y-94.2
X145.525Y-70.175
X145.65Y-98.75
X145.875Y-83.075
X146.725Y-73.75
X148.5Y-106.6
X148.75Y-96.6
X148.75Y-98.525
X148.9Y-103.25
X150.85Y-113.15
X154.Y-86.
X154.Y-114.5
T2
X61.1Y-121.65
X71.3Y-123.05
T3
X77.25Y-59.31
X77.25Y-61.85
X49.07Y-49.3
X51.61Y-49.3
X54.15Y-49.3
X56.69Y-49.3
X59.23Y-49.3
X61.77Y-49.3
X64.31Y-49.3
X66.85Y-49.3
T4
X78.8Y-115.3
X78.8Y-120.3
T5
X38.285Y-83.285
X38.285Y-105.585
T6
X40.45Y-51.15
X136.7Y-122.4
X40.45Y-122.4
X136.7Y-51.15
T0
M30
