G04 #@! TF.GenerationSoftware,KiCad,Pcbnew,5.0.1-33cea8e~68~ubuntu16.04.1*
G04 #@! TF.CreationDate,2018-11-15T13:10:25-03:00*
G04 #@! TF.ProjectId,TrackerAVL,547261636B657241564C2E6B69636164,1.1*
G04 #@! TF.SameCoordinates,Original*
G04 #@! TF.FileFunction,Soldermask,Bot*
G04 #@! TF.FilePolarity,Negative*
%FSLAX46Y46*%
G04 Gerber Fmt 4.6, Leading zero omitted, Abs format (unit mm)*
G04 Created by KiCad (PCBNEW 5.0.1-33cea8e~68~ubuntu16.04.1) date jue 15 nov 2018 13:10:25 -03*
%MOMM*%
%LPD*%
G01*
G04 APERTURE LIST*
%ADD10C,0.150000*%
%ADD11C,0.100000*%
G04 APERTURE END LIST*
D10*
X154750000Y-126750000D02*
X154750000Y-46750000D01*
X34750000Y-126750000D02*
X154750000Y-126750000D01*
X34750000Y-46750000D02*
X34750000Y-126750000D01*
X34750000Y-46750000D02*
X154750000Y-46750000D01*
D11*
G36*
X40921969Y-119688985D02*
X41252437Y-119754719D01*
X41753087Y-119962095D01*
X42120389Y-120207519D01*
X42203663Y-120263161D01*
X42586839Y-120646337D01*
X42586841Y-120646340D01*
X42887905Y-121096913D01*
X43095281Y-121597563D01*
X43122383Y-121733816D01*
X43201000Y-122129049D01*
X43201000Y-122670951D01*
X43193568Y-122708314D01*
X43095281Y-123202437D01*
X42887905Y-123703087D01*
X42588871Y-124150622D01*
X42586839Y-124153663D01*
X42203663Y-124536839D01*
X42203660Y-124536841D01*
X41753087Y-124837905D01*
X41252437Y-125045281D01*
X40986693Y-125098141D01*
X40720951Y-125151000D01*
X40179049Y-125151000D01*
X39913307Y-125098141D01*
X39647563Y-125045281D01*
X39146913Y-124837905D01*
X38696340Y-124536841D01*
X38696337Y-124536839D01*
X38313161Y-124153663D01*
X38311129Y-124150622D01*
X38012095Y-123703087D01*
X37804719Y-123202437D01*
X37706432Y-122708314D01*
X37699000Y-122670951D01*
X37699000Y-122129049D01*
X37777617Y-121733816D01*
X37804719Y-121597563D01*
X38012095Y-121096913D01*
X38313159Y-120646340D01*
X38313161Y-120646337D01*
X38696337Y-120263161D01*
X38779611Y-120207519D01*
X39146913Y-119962095D01*
X39647563Y-119754719D01*
X39978031Y-119688985D01*
X40179049Y-119649000D01*
X40720951Y-119649000D01*
X40921969Y-119688985D01*
X40921969Y-119688985D01*
G37*
G36*
X137171969Y-119688985D02*
X137502437Y-119754719D01*
X138003087Y-119962095D01*
X138370389Y-120207519D01*
X138453663Y-120263161D01*
X138836839Y-120646337D01*
X138836841Y-120646340D01*
X139137905Y-121096913D01*
X139345281Y-121597563D01*
X139372383Y-121733816D01*
X139451000Y-122129049D01*
X139451000Y-122670951D01*
X139443568Y-122708314D01*
X139345281Y-123202437D01*
X139137905Y-123703087D01*
X138838871Y-124150622D01*
X138836839Y-124153663D01*
X138453663Y-124536839D01*
X138453660Y-124536841D01*
X138003087Y-124837905D01*
X137502437Y-125045281D01*
X137236693Y-125098141D01*
X136970951Y-125151000D01*
X136429049Y-125151000D01*
X136163307Y-125098141D01*
X135897563Y-125045281D01*
X135396913Y-124837905D01*
X134946340Y-124536841D01*
X134946337Y-124536839D01*
X134563161Y-124153663D01*
X134561129Y-124150622D01*
X134262095Y-123703087D01*
X134054719Y-123202437D01*
X133956432Y-122708314D01*
X133949000Y-122670951D01*
X133949000Y-122129049D01*
X134027617Y-121733816D01*
X134054719Y-121597563D01*
X134262095Y-121096913D01*
X134563159Y-120646340D01*
X134563161Y-120646337D01*
X134946337Y-120263161D01*
X135029611Y-120207519D01*
X135396913Y-119962095D01*
X135897563Y-119754719D01*
X136228031Y-119688985D01*
X136429049Y-119649000D01*
X136970951Y-119649000D01*
X137171969Y-119688985D01*
X137171969Y-119688985D01*
G37*
G36*
X129925770Y-122015372D02*
X130041689Y-122038429D01*
X130223678Y-122113811D01*
X130387463Y-122223249D01*
X130526751Y-122362537D01*
X130636189Y-122526322D01*
X130711571Y-122708311D01*
X130750000Y-122901509D01*
X130750000Y-123098491D01*
X130711571Y-123291689D01*
X130636189Y-123473678D01*
X130526751Y-123637463D01*
X130387463Y-123776751D01*
X130223678Y-123886189D01*
X130041689Y-123961571D01*
X129925770Y-123984628D01*
X129848493Y-124000000D01*
X129651507Y-124000000D01*
X129574230Y-123984628D01*
X129458311Y-123961571D01*
X129276322Y-123886189D01*
X129112537Y-123776751D01*
X128973249Y-123637463D01*
X128863811Y-123473678D01*
X128788429Y-123291689D01*
X128750000Y-123098491D01*
X128750000Y-122901509D01*
X128788429Y-122708311D01*
X128863811Y-122526322D01*
X128973249Y-122362537D01*
X129112537Y-122223249D01*
X129276322Y-122113811D01*
X129458311Y-122038429D01*
X129574230Y-122015372D01*
X129651507Y-122000000D01*
X129848493Y-122000000D01*
X129925770Y-122015372D01*
X129925770Y-122015372D01*
G37*
G36*
X71548228Y-122231703D02*
X71703100Y-122295853D01*
X71842481Y-122388985D01*
X71961015Y-122507519D01*
X72054147Y-122646900D01*
X72118297Y-122801772D01*
X72151000Y-122966184D01*
X72151000Y-123133816D01*
X72118297Y-123298228D01*
X72054147Y-123453100D01*
X71961015Y-123592481D01*
X71842481Y-123711015D01*
X71703100Y-123804147D01*
X71548228Y-123868297D01*
X71383816Y-123901000D01*
X71216184Y-123901000D01*
X71051772Y-123868297D01*
X70896900Y-123804147D01*
X70757519Y-123711015D01*
X70638985Y-123592481D01*
X70545853Y-123453100D01*
X70481703Y-123298228D01*
X70449000Y-123133816D01*
X70449000Y-122966184D01*
X70481703Y-122801772D01*
X70545853Y-122646900D01*
X70638985Y-122507519D01*
X70757519Y-122388985D01*
X70896900Y-122295853D01*
X71051772Y-122231703D01*
X71216184Y-122199000D01*
X71383816Y-122199000D01*
X71548228Y-122231703D01*
X71548228Y-122231703D01*
G37*
G36*
X61348228Y-120831703D02*
X61503100Y-120895853D01*
X61642481Y-120988985D01*
X61761015Y-121107519D01*
X61854147Y-121246900D01*
X61918297Y-121401772D01*
X61951000Y-121566184D01*
X61951000Y-121733816D01*
X61918297Y-121898228D01*
X61854147Y-122053100D01*
X61761015Y-122192481D01*
X61642481Y-122311015D01*
X61503100Y-122404147D01*
X61348228Y-122468297D01*
X61183816Y-122501000D01*
X61016184Y-122501000D01*
X60851772Y-122468297D01*
X60696900Y-122404147D01*
X60557519Y-122311015D01*
X60438985Y-122192481D01*
X60345853Y-122053100D01*
X60281703Y-121898228D01*
X60249000Y-121733816D01*
X60249000Y-121566184D01*
X60281703Y-121401772D01*
X60345853Y-121246900D01*
X60438985Y-121107519D01*
X60557519Y-120988985D01*
X60696900Y-120895853D01*
X60851772Y-120831703D01*
X61016184Y-120799000D01*
X61183816Y-120799000D01*
X61348228Y-120831703D01*
X61348228Y-120831703D01*
G37*
G36*
X146998228Y-119931703D02*
X147153100Y-119995853D01*
X147292481Y-120088985D01*
X147411015Y-120207519D01*
X147504147Y-120346900D01*
X147568297Y-120501772D01*
X147601000Y-120666184D01*
X147601000Y-120833816D01*
X147568297Y-120998228D01*
X147504147Y-121153100D01*
X147411015Y-121292481D01*
X147292481Y-121411015D01*
X147153100Y-121504147D01*
X146998228Y-121568297D01*
X146833816Y-121601000D01*
X146666184Y-121601000D01*
X146501772Y-121568297D01*
X146346900Y-121504147D01*
X146207519Y-121411015D01*
X146088985Y-121292481D01*
X145995853Y-121153100D01*
X145931703Y-120998228D01*
X145899000Y-120833816D01*
X145899000Y-120666184D01*
X145931703Y-120501772D01*
X145995853Y-120346900D01*
X146088985Y-120207519D01*
X146207519Y-120088985D01*
X146346900Y-119995853D01*
X146501772Y-119931703D01*
X146666184Y-119899000D01*
X146833816Y-119899000D01*
X146998228Y-119931703D01*
X146998228Y-119931703D01*
G37*
G36*
X80051000Y-121551000D02*
X77549000Y-121551000D01*
X77549000Y-119049000D01*
X80051000Y-119049000D01*
X80051000Y-121551000D01*
X80051000Y-121551000D01*
G37*
G36*
X96598228Y-119531703D02*
X96753100Y-119595853D01*
X96892481Y-119688985D01*
X97011015Y-119807519D01*
X97104147Y-119946900D01*
X97168297Y-120101772D01*
X97201000Y-120266184D01*
X97201000Y-120433816D01*
X97168297Y-120598228D01*
X97104147Y-120753100D01*
X97011015Y-120892481D01*
X96892481Y-121011015D01*
X96753100Y-121104147D01*
X96598228Y-121168297D01*
X96433816Y-121201000D01*
X96266184Y-121201000D01*
X96101772Y-121168297D01*
X95946900Y-121104147D01*
X95807519Y-121011015D01*
X95688985Y-120892481D01*
X95595853Y-120753100D01*
X95531703Y-120598228D01*
X95499000Y-120433816D01*
X95499000Y-120266184D01*
X95531703Y-120101772D01*
X95595853Y-119946900D01*
X95688985Y-119807519D01*
X95807519Y-119688985D01*
X95946900Y-119595853D01*
X96101772Y-119531703D01*
X96266184Y-119499000D01*
X96433816Y-119499000D01*
X96598228Y-119531703D01*
X96598228Y-119531703D01*
G37*
G36*
X78983636Y-114061019D02*
X79164903Y-114097075D01*
X79392571Y-114191378D01*
X79596542Y-114327668D01*
X79597469Y-114328287D01*
X79771713Y-114502531D01*
X79771715Y-114502534D01*
X79908622Y-114707429D01*
X80002925Y-114935097D01*
X80051000Y-115176787D01*
X80051000Y-115423213D01*
X80002925Y-115664903D01*
X79908622Y-115892571D01*
X79772332Y-116096542D01*
X79771713Y-116097469D01*
X79597469Y-116271713D01*
X79597466Y-116271715D01*
X79392571Y-116408622D01*
X79164903Y-116502925D01*
X78983635Y-116538981D01*
X78923214Y-116551000D01*
X78676786Y-116551000D01*
X78616365Y-116538981D01*
X78435097Y-116502925D01*
X78207429Y-116408622D01*
X78002534Y-116271715D01*
X78002531Y-116271713D01*
X77828287Y-116097469D01*
X77827668Y-116096542D01*
X77691378Y-115892571D01*
X77597075Y-115664903D01*
X77549000Y-115423213D01*
X77549000Y-115176787D01*
X77597075Y-114935097D01*
X77691378Y-114707429D01*
X77828285Y-114502534D01*
X77828287Y-114502531D01*
X78002531Y-114328287D01*
X78003458Y-114327668D01*
X78207429Y-114191378D01*
X78435097Y-114097075D01*
X78616364Y-114061019D01*
X78676786Y-114049000D01*
X78923214Y-114049000D01*
X78983636Y-114061019D01*
X78983636Y-114061019D01*
G37*
G36*
X38883252Y-103612818D02*
X38883254Y-103612819D01*
X38883255Y-103612819D01*
X39256513Y-103767427D01*
X39256514Y-103767428D01*
X39592439Y-103991886D01*
X39878114Y-104277561D01*
X39878116Y-104277564D01*
X40102573Y-104613487D01*
X40257181Y-104986745D01*
X40336000Y-105382994D01*
X40336000Y-105787006D01*
X40257181Y-106183255D01*
X40102573Y-106556513D01*
X40102572Y-106556514D01*
X39878114Y-106892439D01*
X39592439Y-107178114D01*
X39592436Y-107178116D01*
X39256513Y-107402573D01*
X38883255Y-107557181D01*
X38883254Y-107557181D01*
X38883252Y-107557182D01*
X38487007Y-107636000D01*
X38082993Y-107636000D01*
X37686748Y-107557182D01*
X37686746Y-107557181D01*
X37686745Y-107557181D01*
X37313487Y-107402573D01*
X36977564Y-107178116D01*
X36977561Y-107178114D01*
X36691886Y-106892439D01*
X36467428Y-106556514D01*
X36467427Y-106556513D01*
X36312819Y-106183255D01*
X36234000Y-105787006D01*
X36234000Y-105382994D01*
X36312819Y-104986745D01*
X36467427Y-104613487D01*
X36691884Y-104277564D01*
X36691886Y-104277561D01*
X36977561Y-103991886D01*
X37313486Y-103767428D01*
X37313487Y-103767427D01*
X37686745Y-103612819D01*
X37686746Y-103612819D01*
X37686748Y-103612818D01*
X38082993Y-103534000D01*
X38487007Y-103534000D01*
X38883252Y-103612818D01*
X38883252Y-103612818D01*
G37*
G36*
X96525305Y-95572096D02*
X96634680Y-95617400D01*
X96733118Y-95683175D01*
X96816825Y-95766882D01*
X96882600Y-95865320D01*
X96927904Y-95974695D01*
X96951000Y-96090806D01*
X96951000Y-96209194D01*
X96927904Y-96325305D01*
X96882600Y-96434680D01*
X96816825Y-96533118D01*
X96733118Y-96616825D01*
X96634680Y-96682600D01*
X96525305Y-96727904D01*
X96409194Y-96751000D01*
X96290806Y-96751000D01*
X96174695Y-96727904D01*
X96065320Y-96682600D01*
X95966882Y-96616825D01*
X95883175Y-96533118D01*
X95817400Y-96434680D01*
X95772096Y-96325305D01*
X95749000Y-96209194D01*
X95749000Y-96090806D01*
X95772096Y-95974695D01*
X95817400Y-95865320D01*
X95883175Y-95766882D01*
X95966882Y-95683175D01*
X96065320Y-95617400D01*
X96174695Y-95572096D01*
X96290806Y-95549000D01*
X96409194Y-95549000D01*
X96525305Y-95572096D01*
X96525305Y-95572096D01*
G37*
G36*
X146925305Y-95172096D02*
X147034680Y-95217400D01*
X147133118Y-95283175D01*
X147216825Y-95366882D01*
X147282600Y-95465320D01*
X147327904Y-95574695D01*
X147351000Y-95690806D01*
X147351000Y-95809194D01*
X147327904Y-95925305D01*
X147282600Y-96034680D01*
X147216825Y-96133118D01*
X147133118Y-96216825D01*
X147034680Y-96282600D01*
X146925305Y-96327904D01*
X146809194Y-96351000D01*
X146690806Y-96351000D01*
X146574695Y-96327904D01*
X146465320Y-96282600D01*
X146366882Y-96216825D01*
X146283175Y-96133118D01*
X146217400Y-96034680D01*
X146172096Y-95925305D01*
X146149000Y-95809194D01*
X146149000Y-95690806D01*
X146172096Y-95574695D01*
X146217400Y-95465320D01*
X146283175Y-95366882D01*
X146366882Y-95283175D01*
X146465320Y-95217400D01*
X146574695Y-95172096D01*
X146690806Y-95149000D01*
X146809194Y-95149000D01*
X146925305Y-95172096D01*
X146925305Y-95172096D01*
G37*
G36*
X38883252Y-81312818D02*
X38883254Y-81312819D01*
X38883255Y-81312819D01*
X39256513Y-81467427D01*
X39256514Y-81467428D01*
X39592439Y-81691886D01*
X39878114Y-81977561D01*
X39878116Y-81977564D01*
X40102573Y-82313487D01*
X40257181Y-82686745D01*
X40336000Y-83082994D01*
X40336000Y-83487006D01*
X40257181Y-83883255D01*
X40102573Y-84256513D01*
X40102572Y-84256514D01*
X39878114Y-84592439D01*
X39592439Y-84878114D01*
X39592436Y-84878116D01*
X39256513Y-85102573D01*
X38883255Y-85257181D01*
X38883254Y-85257181D01*
X38883252Y-85257182D01*
X38487007Y-85336000D01*
X38082993Y-85336000D01*
X37686748Y-85257182D01*
X37686746Y-85257181D01*
X37686745Y-85257181D01*
X37313487Y-85102573D01*
X36977564Y-84878116D01*
X36977561Y-84878114D01*
X36691886Y-84592439D01*
X36467428Y-84256514D01*
X36467427Y-84256513D01*
X36312819Y-83883255D01*
X36234000Y-83487006D01*
X36234000Y-83082994D01*
X36312819Y-82686745D01*
X36467427Y-82313487D01*
X36691884Y-81977564D01*
X36691886Y-81977561D01*
X36977561Y-81691886D01*
X37313486Y-81467428D01*
X37313487Y-81467427D01*
X37686745Y-81312819D01*
X37686746Y-81312819D01*
X37686748Y-81312818D01*
X38082993Y-81234000D01*
X38487007Y-81234000D01*
X38883252Y-81312818D01*
X38883252Y-81312818D01*
G37*
G36*
X78151000Y-62751000D02*
X76349000Y-62751000D01*
X76349000Y-60949000D01*
X78151000Y-60949000D01*
X78151000Y-62751000D01*
X78151000Y-62751000D01*
G37*
G36*
X77360443Y-58415519D02*
X77426627Y-58422037D01*
X77539853Y-58456384D01*
X77596467Y-58473557D01*
X77735087Y-58547652D01*
X77752991Y-58557222D01*
X77788729Y-58586552D01*
X77890186Y-58669814D01*
X77973448Y-58771271D01*
X78002778Y-58807009D01*
X78002779Y-58807011D01*
X78086443Y-58963533D01*
X78086443Y-58963534D01*
X78137963Y-59133373D01*
X78155359Y-59310000D01*
X78137963Y-59486627D01*
X78103616Y-59599853D01*
X78086443Y-59656467D01*
X78012348Y-59795087D01*
X78002778Y-59812991D01*
X77973448Y-59848729D01*
X77890186Y-59950186D01*
X77788729Y-60033448D01*
X77752991Y-60062778D01*
X77752989Y-60062779D01*
X77596467Y-60146443D01*
X77539853Y-60163616D01*
X77426627Y-60197963D01*
X77360442Y-60204482D01*
X77294260Y-60211000D01*
X77205740Y-60211000D01*
X77139558Y-60204482D01*
X77073373Y-60197963D01*
X76960147Y-60163616D01*
X76903533Y-60146443D01*
X76747011Y-60062779D01*
X76747009Y-60062778D01*
X76711271Y-60033448D01*
X76609814Y-59950186D01*
X76526552Y-59848729D01*
X76497222Y-59812991D01*
X76487652Y-59795087D01*
X76413557Y-59656467D01*
X76396384Y-59599853D01*
X76362037Y-59486627D01*
X76344641Y-59310000D01*
X76362037Y-59133373D01*
X76413557Y-58963534D01*
X76413557Y-58963533D01*
X76497221Y-58807011D01*
X76497222Y-58807009D01*
X76526552Y-58771271D01*
X76609814Y-58669814D01*
X76711271Y-58586552D01*
X76747009Y-58557222D01*
X76764913Y-58547652D01*
X76903533Y-58473557D01*
X76960147Y-58456384D01*
X77073373Y-58422037D01*
X77139557Y-58415519D01*
X77205740Y-58409000D01*
X77294260Y-58409000D01*
X77360443Y-58415519D01*
X77360443Y-58415519D01*
G37*
G36*
X46975770Y-52615372D02*
X47091689Y-52638429D01*
X47273678Y-52713811D01*
X47437463Y-52823249D01*
X47576751Y-52962537D01*
X47686189Y-53126322D01*
X47761571Y-53308311D01*
X47800000Y-53501509D01*
X47800000Y-53698491D01*
X47761571Y-53891689D01*
X47686189Y-54073678D01*
X47576751Y-54237463D01*
X47437463Y-54376751D01*
X47273678Y-54486189D01*
X47091689Y-54561571D01*
X46975770Y-54584628D01*
X46898493Y-54600000D01*
X46701507Y-54600000D01*
X46624230Y-54584628D01*
X46508311Y-54561571D01*
X46326322Y-54486189D01*
X46162537Y-54376751D01*
X46023249Y-54237463D01*
X45913811Y-54073678D01*
X45838429Y-53891689D01*
X45800000Y-53698491D01*
X45800000Y-53501509D01*
X45838429Y-53308311D01*
X45913811Y-53126322D01*
X46023249Y-52962537D01*
X46162537Y-52823249D01*
X46326322Y-52713811D01*
X46508311Y-52638429D01*
X46624230Y-52615372D01*
X46701507Y-52600000D01*
X46898493Y-52600000D01*
X46975770Y-52615372D01*
X46975770Y-52615372D01*
G37*
G36*
X137036492Y-48412037D02*
X137502437Y-48504719D01*
X138003087Y-48712095D01*
X138364425Y-48953534D01*
X138453663Y-49013161D01*
X138836839Y-49396337D01*
X138836841Y-49396340D01*
X139137905Y-49846913D01*
X139345281Y-50347563D01*
X139451000Y-50879050D01*
X139451000Y-51420950D01*
X139345281Y-51952437D01*
X139137905Y-52453087D01*
X139014063Y-52638429D01*
X138836839Y-52903663D01*
X138453663Y-53286839D01*
X138453660Y-53286841D01*
X138003087Y-53587905D01*
X137502437Y-53795281D01*
X137236693Y-53848141D01*
X136970951Y-53901000D01*
X136429049Y-53901000D01*
X136163307Y-53848141D01*
X135897563Y-53795281D01*
X135396913Y-53587905D01*
X134946340Y-53286841D01*
X134946337Y-53286839D01*
X134563161Y-52903663D01*
X134385937Y-52638429D01*
X134262095Y-52453087D01*
X134054719Y-51952437D01*
X133949000Y-51420950D01*
X133949000Y-50879050D01*
X134054719Y-50347563D01*
X134262095Y-49846913D01*
X134563159Y-49396340D01*
X134563161Y-49396337D01*
X134946337Y-49013161D01*
X135035575Y-48953534D01*
X135396913Y-48712095D01*
X135897563Y-48504719D01*
X136363508Y-48412037D01*
X136429049Y-48399000D01*
X136970951Y-48399000D01*
X137036492Y-48412037D01*
X137036492Y-48412037D01*
G37*
G36*
X40786492Y-48412037D02*
X41252437Y-48504719D01*
X41753087Y-48712095D01*
X42114425Y-48953534D01*
X42203663Y-49013161D01*
X42586839Y-49396337D01*
X42586841Y-49396340D01*
X42887905Y-49846913D01*
X43095281Y-50347563D01*
X43201000Y-50879050D01*
X43201000Y-51420950D01*
X43095281Y-51952437D01*
X42887905Y-52453087D01*
X42764063Y-52638429D01*
X42586839Y-52903663D01*
X42203663Y-53286839D01*
X42203660Y-53286841D01*
X41753087Y-53587905D01*
X41252437Y-53795281D01*
X40986693Y-53848141D01*
X40720951Y-53901000D01*
X40179049Y-53901000D01*
X39913307Y-53848141D01*
X39647563Y-53795281D01*
X39146913Y-53587905D01*
X38696340Y-53286841D01*
X38696337Y-53286839D01*
X38313161Y-52903663D01*
X38135937Y-52638429D01*
X38012095Y-52453087D01*
X37804719Y-51952437D01*
X37699000Y-51420950D01*
X37699000Y-50879050D01*
X37804719Y-50347563D01*
X38012095Y-49846913D01*
X38313159Y-49396340D01*
X38313161Y-49396337D01*
X38696337Y-49013161D01*
X38785575Y-48953534D01*
X39146913Y-48712095D01*
X39647563Y-48504719D01*
X40113508Y-48412037D01*
X40179049Y-48399000D01*
X40720951Y-48399000D01*
X40786492Y-48412037D01*
X40786492Y-48412037D01*
G37*
G36*
X142425770Y-49515372D02*
X142541689Y-49538429D01*
X142723678Y-49613811D01*
X142887463Y-49723249D01*
X143026751Y-49862537D01*
X143136189Y-50026322D01*
X143211571Y-50208311D01*
X143250000Y-50401509D01*
X143250000Y-50598491D01*
X143211571Y-50791689D01*
X143136189Y-50973678D01*
X143026751Y-51137463D01*
X142887463Y-51276751D01*
X142723678Y-51386189D01*
X142541689Y-51461571D01*
X142425770Y-51484628D01*
X142348493Y-51500000D01*
X142151507Y-51500000D01*
X142074230Y-51484628D01*
X141958311Y-51461571D01*
X141776322Y-51386189D01*
X141612537Y-51276751D01*
X141473249Y-51137463D01*
X141363811Y-50973678D01*
X141288429Y-50791689D01*
X141250000Y-50598491D01*
X141250000Y-50401509D01*
X141288429Y-50208311D01*
X141363811Y-50026322D01*
X141473249Y-49862537D01*
X141612537Y-49723249D01*
X141776322Y-49613811D01*
X141958311Y-49538429D01*
X142074230Y-49515372D01*
X142151507Y-49500000D01*
X142348493Y-49500000D01*
X142425770Y-49515372D01*
X142425770Y-49515372D01*
G37*
G36*
X54260443Y-48405519D02*
X54326627Y-48412037D01*
X54439853Y-48446384D01*
X54496467Y-48463557D01*
X54635087Y-48537652D01*
X54652991Y-48547222D01*
X54688729Y-48576552D01*
X54790186Y-48659814D01*
X54873448Y-48761271D01*
X54902778Y-48797009D01*
X54902779Y-48797011D01*
X54986443Y-48953533D01*
X54986443Y-48953534D01*
X55037963Y-49123373D01*
X55055359Y-49300000D01*
X55037963Y-49476627D01*
X55003616Y-49589853D01*
X54986443Y-49646467D01*
X54945399Y-49723253D01*
X54902778Y-49802991D01*
X54873448Y-49838729D01*
X54790186Y-49940186D01*
X54688729Y-50023448D01*
X54652991Y-50052778D01*
X54652989Y-50052779D01*
X54496467Y-50136443D01*
X54439853Y-50153616D01*
X54326627Y-50187963D01*
X54260442Y-50194482D01*
X54194260Y-50201000D01*
X54105740Y-50201000D01*
X54039558Y-50194482D01*
X53973373Y-50187963D01*
X53860147Y-50153616D01*
X53803533Y-50136443D01*
X53647011Y-50052779D01*
X53647009Y-50052778D01*
X53611271Y-50023448D01*
X53509814Y-49940186D01*
X53426552Y-49838729D01*
X53397222Y-49802991D01*
X53354601Y-49723253D01*
X53313557Y-49646467D01*
X53296384Y-49589853D01*
X53262037Y-49476627D01*
X53244641Y-49300000D01*
X53262037Y-49123373D01*
X53313557Y-48953534D01*
X53313557Y-48953533D01*
X53397221Y-48797011D01*
X53397222Y-48797009D01*
X53426552Y-48761271D01*
X53509814Y-48659814D01*
X53611271Y-48576552D01*
X53647009Y-48547222D01*
X53664913Y-48537652D01*
X53803533Y-48463557D01*
X53860147Y-48446384D01*
X53973373Y-48412037D01*
X54039557Y-48405519D01*
X54105740Y-48399000D01*
X54194260Y-48399000D01*
X54260443Y-48405519D01*
X54260443Y-48405519D01*
G37*
G36*
X67751000Y-50201000D02*
X65949000Y-50201000D01*
X65949000Y-48399000D01*
X67751000Y-48399000D01*
X67751000Y-50201000D01*
X67751000Y-50201000D01*
G37*
G36*
X64420443Y-48405519D02*
X64486627Y-48412037D01*
X64599853Y-48446384D01*
X64656467Y-48463557D01*
X64795087Y-48537652D01*
X64812991Y-48547222D01*
X64848729Y-48576552D01*
X64950186Y-48659814D01*
X65033448Y-48761271D01*
X65062778Y-48797009D01*
X65062779Y-48797011D01*
X65146443Y-48953533D01*
X65146443Y-48953534D01*
X65197963Y-49123373D01*
X65215359Y-49300000D01*
X65197963Y-49476627D01*
X65163616Y-49589853D01*
X65146443Y-49646467D01*
X65105399Y-49723253D01*
X65062778Y-49802991D01*
X65033448Y-49838729D01*
X64950186Y-49940186D01*
X64848729Y-50023448D01*
X64812991Y-50052778D01*
X64812989Y-50052779D01*
X64656467Y-50136443D01*
X64599853Y-50153616D01*
X64486627Y-50187963D01*
X64420442Y-50194482D01*
X64354260Y-50201000D01*
X64265740Y-50201000D01*
X64199558Y-50194482D01*
X64133373Y-50187963D01*
X64020147Y-50153616D01*
X63963533Y-50136443D01*
X63807011Y-50052779D01*
X63807009Y-50052778D01*
X63771271Y-50023448D01*
X63669814Y-49940186D01*
X63586552Y-49838729D01*
X63557222Y-49802991D01*
X63514601Y-49723253D01*
X63473557Y-49646467D01*
X63456384Y-49589853D01*
X63422037Y-49476627D01*
X63404641Y-49300000D01*
X63422037Y-49123373D01*
X63473557Y-48953534D01*
X63473557Y-48953533D01*
X63557221Y-48797011D01*
X63557222Y-48797009D01*
X63586552Y-48761271D01*
X63669814Y-48659814D01*
X63771271Y-48576552D01*
X63807009Y-48547222D01*
X63824913Y-48537652D01*
X63963533Y-48463557D01*
X64020147Y-48446384D01*
X64133373Y-48412037D01*
X64199557Y-48405519D01*
X64265740Y-48399000D01*
X64354260Y-48399000D01*
X64420443Y-48405519D01*
X64420443Y-48405519D01*
G37*
G36*
X61880443Y-48405519D02*
X61946627Y-48412037D01*
X62059853Y-48446384D01*
X62116467Y-48463557D01*
X62255087Y-48537652D01*
X62272991Y-48547222D01*
X62308729Y-48576552D01*
X62410186Y-48659814D01*
X62493448Y-48761271D01*
X62522778Y-48797009D01*
X62522779Y-48797011D01*
X62606443Y-48953533D01*
X62606443Y-48953534D01*
X62657963Y-49123373D01*
X62675359Y-49300000D01*
X62657963Y-49476627D01*
X62623616Y-49589853D01*
X62606443Y-49646467D01*
X62565399Y-49723253D01*
X62522778Y-49802991D01*
X62493448Y-49838729D01*
X62410186Y-49940186D01*
X62308729Y-50023448D01*
X62272991Y-50052778D01*
X62272989Y-50052779D01*
X62116467Y-50136443D01*
X62059853Y-50153616D01*
X61946627Y-50187963D01*
X61880442Y-50194482D01*
X61814260Y-50201000D01*
X61725740Y-50201000D01*
X61659558Y-50194482D01*
X61593373Y-50187963D01*
X61480147Y-50153616D01*
X61423533Y-50136443D01*
X61267011Y-50052779D01*
X61267009Y-50052778D01*
X61231271Y-50023448D01*
X61129814Y-49940186D01*
X61046552Y-49838729D01*
X61017222Y-49802991D01*
X60974601Y-49723253D01*
X60933557Y-49646467D01*
X60916384Y-49589853D01*
X60882037Y-49476627D01*
X60864641Y-49300000D01*
X60882037Y-49123373D01*
X60933557Y-48953534D01*
X60933557Y-48953533D01*
X61017221Y-48797011D01*
X61017222Y-48797009D01*
X61046552Y-48761271D01*
X61129814Y-48659814D01*
X61231271Y-48576552D01*
X61267009Y-48547222D01*
X61284913Y-48537652D01*
X61423533Y-48463557D01*
X61480147Y-48446384D01*
X61593373Y-48412037D01*
X61659557Y-48405519D01*
X61725740Y-48399000D01*
X61814260Y-48399000D01*
X61880443Y-48405519D01*
X61880443Y-48405519D01*
G37*
G36*
X59340443Y-48405519D02*
X59406627Y-48412037D01*
X59519853Y-48446384D01*
X59576467Y-48463557D01*
X59715087Y-48537652D01*
X59732991Y-48547222D01*
X59768729Y-48576552D01*
X59870186Y-48659814D01*
X59953448Y-48761271D01*
X59982778Y-48797009D01*
X59982779Y-48797011D01*
X60066443Y-48953533D01*
X60066443Y-48953534D01*
X60117963Y-49123373D01*
X60135359Y-49300000D01*
X60117963Y-49476627D01*
X60083616Y-49589853D01*
X60066443Y-49646467D01*
X60025399Y-49723253D01*
X59982778Y-49802991D01*
X59953448Y-49838729D01*
X59870186Y-49940186D01*
X59768729Y-50023448D01*
X59732991Y-50052778D01*
X59732989Y-50052779D01*
X59576467Y-50136443D01*
X59519853Y-50153616D01*
X59406627Y-50187963D01*
X59340442Y-50194482D01*
X59274260Y-50201000D01*
X59185740Y-50201000D01*
X59119558Y-50194482D01*
X59053373Y-50187963D01*
X58940147Y-50153616D01*
X58883533Y-50136443D01*
X58727011Y-50052779D01*
X58727009Y-50052778D01*
X58691271Y-50023448D01*
X58589814Y-49940186D01*
X58506552Y-49838729D01*
X58477222Y-49802991D01*
X58434601Y-49723253D01*
X58393557Y-49646467D01*
X58376384Y-49589853D01*
X58342037Y-49476627D01*
X58324641Y-49300000D01*
X58342037Y-49123373D01*
X58393557Y-48953534D01*
X58393557Y-48953533D01*
X58477221Y-48797011D01*
X58477222Y-48797009D01*
X58506552Y-48761271D01*
X58589814Y-48659814D01*
X58691271Y-48576552D01*
X58727009Y-48547222D01*
X58744913Y-48537652D01*
X58883533Y-48463557D01*
X58940147Y-48446384D01*
X59053373Y-48412037D01*
X59119557Y-48405519D01*
X59185740Y-48399000D01*
X59274260Y-48399000D01*
X59340443Y-48405519D01*
X59340443Y-48405519D01*
G37*
G36*
X56800443Y-48405519D02*
X56866627Y-48412037D01*
X56979853Y-48446384D01*
X57036467Y-48463557D01*
X57175087Y-48537652D01*
X57192991Y-48547222D01*
X57228729Y-48576552D01*
X57330186Y-48659814D01*
X57413448Y-48761271D01*
X57442778Y-48797009D01*
X57442779Y-48797011D01*
X57526443Y-48953533D01*
X57526443Y-48953534D01*
X57577963Y-49123373D01*
X57595359Y-49300000D01*
X57577963Y-49476627D01*
X57543616Y-49589853D01*
X57526443Y-49646467D01*
X57485399Y-49723253D01*
X57442778Y-49802991D01*
X57413448Y-49838729D01*
X57330186Y-49940186D01*
X57228729Y-50023448D01*
X57192991Y-50052778D01*
X57192989Y-50052779D01*
X57036467Y-50136443D01*
X56979853Y-50153616D01*
X56866627Y-50187963D01*
X56800442Y-50194482D01*
X56734260Y-50201000D01*
X56645740Y-50201000D01*
X56579558Y-50194482D01*
X56513373Y-50187963D01*
X56400147Y-50153616D01*
X56343533Y-50136443D01*
X56187011Y-50052779D01*
X56187009Y-50052778D01*
X56151271Y-50023448D01*
X56049814Y-49940186D01*
X55966552Y-49838729D01*
X55937222Y-49802991D01*
X55894601Y-49723253D01*
X55853557Y-49646467D01*
X55836384Y-49589853D01*
X55802037Y-49476627D01*
X55784641Y-49300000D01*
X55802037Y-49123373D01*
X55853557Y-48953534D01*
X55853557Y-48953533D01*
X55937221Y-48797011D01*
X55937222Y-48797009D01*
X55966552Y-48761271D01*
X56049814Y-48659814D01*
X56151271Y-48576552D01*
X56187009Y-48547222D01*
X56204913Y-48537652D01*
X56343533Y-48463557D01*
X56400147Y-48446384D01*
X56513373Y-48412037D01*
X56579557Y-48405519D01*
X56645740Y-48399000D01*
X56734260Y-48399000D01*
X56800443Y-48405519D01*
X56800443Y-48405519D01*
G37*
G36*
X51720443Y-48405519D02*
X51786627Y-48412037D01*
X51899853Y-48446384D01*
X51956467Y-48463557D01*
X52095087Y-48537652D01*
X52112991Y-48547222D01*
X52148729Y-48576552D01*
X52250186Y-48659814D01*
X52333448Y-48761271D01*
X52362778Y-48797009D01*
X52362779Y-48797011D01*
X52446443Y-48953533D01*
X52446443Y-48953534D01*
X52497963Y-49123373D01*
X52515359Y-49300000D01*
X52497963Y-49476627D01*
X52463616Y-49589853D01*
X52446443Y-49646467D01*
X52405399Y-49723253D01*
X52362778Y-49802991D01*
X52333448Y-49838729D01*
X52250186Y-49940186D01*
X52148729Y-50023448D01*
X52112991Y-50052778D01*
X52112989Y-50052779D01*
X51956467Y-50136443D01*
X51899853Y-50153616D01*
X51786627Y-50187963D01*
X51720442Y-50194482D01*
X51654260Y-50201000D01*
X51565740Y-50201000D01*
X51499558Y-50194482D01*
X51433373Y-50187963D01*
X51320147Y-50153616D01*
X51263533Y-50136443D01*
X51107011Y-50052779D01*
X51107009Y-50052778D01*
X51071271Y-50023448D01*
X50969814Y-49940186D01*
X50886552Y-49838729D01*
X50857222Y-49802991D01*
X50814601Y-49723253D01*
X50773557Y-49646467D01*
X50756384Y-49589853D01*
X50722037Y-49476627D01*
X50704641Y-49300000D01*
X50722037Y-49123373D01*
X50773557Y-48953534D01*
X50773557Y-48953533D01*
X50857221Y-48797011D01*
X50857222Y-48797009D01*
X50886552Y-48761271D01*
X50969814Y-48659814D01*
X51071271Y-48576552D01*
X51107009Y-48547222D01*
X51124913Y-48537652D01*
X51263533Y-48463557D01*
X51320147Y-48446384D01*
X51433373Y-48412037D01*
X51499557Y-48405519D01*
X51565740Y-48399000D01*
X51654260Y-48399000D01*
X51720443Y-48405519D01*
X51720443Y-48405519D01*
G37*
G36*
X49180443Y-48405519D02*
X49246627Y-48412037D01*
X49359853Y-48446384D01*
X49416467Y-48463557D01*
X49555087Y-48537652D01*
X49572991Y-48547222D01*
X49608729Y-48576552D01*
X49710186Y-48659814D01*
X49793448Y-48761271D01*
X49822778Y-48797009D01*
X49822779Y-48797011D01*
X49906443Y-48953533D01*
X49906443Y-48953534D01*
X49957963Y-49123373D01*
X49975359Y-49300000D01*
X49957963Y-49476627D01*
X49923616Y-49589853D01*
X49906443Y-49646467D01*
X49865399Y-49723253D01*
X49822778Y-49802991D01*
X49793448Y-49838729D01*
X49710186Y-49940186D01*
X49608729Y-50023448D01*
X49572991Y-50052778D01*
X49572989Y-50052779D01*
X49416467Y-50136443D01*
X49359853Y-50153616D01*
X49246627Y-50187963D01*
X49180442Y-50194482D01*
X49114260Y-50201000D01*
X49025740Y-50201000D01*
X48959558Y-50194482D01*
X48893373Y-50187963D01*
X48780147Y-50153616D01*
X48723533Y-50136443D01*
X48567011Y-50052779D01*
X48567009Y-50052778D01*
X48531271Y-50023448D01*
X48429814Y-49940186D01*
X48346552Y-49838729D01*
X48317222Y-49802991D01*
X48274601Y-49723253D01*
X48233557Y-49646467D01*
X48216384Y-49589853D01*
X48182037Y-49476627D01*
X48164641Y-49300000D01*
X48182037Y-49123373D01*
X48233557Y-48953534D01*
X48233557Y-48953533D01*
X48317221Y-48797011D01*
X48317222Y-48797009D01*
X48346552Y-48761271D01*
X48429814Y-48659814D01*
X48531271Y-48576552D01*
X48567009Y-48547222D01*
X48584913Y-48537652D01*
X48723533Y-48463557D01*
X48780147Y-48446384D01*
X48893373Y-48412037D01*
X48959557Y-48405519D01*
X49025740Y-48399000D01*
X49114260Y-48399000D01*
X49180443Y-48405519D01*
X49180443Y-48405519D01*
G37*
M02*
