G04 #@! TF.GenerationSoftware,KiCad,Pcbnew,5.0.1-33cea8e~68~ubuntu16.04.1*
G04 #@! TF.CreationDate,2018-11-15T12:16:53-03:00*
G04 #@! TF.ProjectId,TrackerAVL,547261636B657241564C2E6B69636164,1.1*
G04 #@! TF.SameCoordinates,Original*
G04 #@! TF.FileFunction,Copper,L2,Bot,Signal*
G04 #@! TF.FilePolarity,Positive*
%FSLAX46Y46*%
G04 Gerber Fmt 4.6, Leading zero omitted, Abs format (unit mm)*
G04 Created by KiCad (PCBNEW 5.0.1-33cea8e~68~ubuntu16.04.1) date Thu 15 Nov 2018 12:16:53 -03*
%MOMM*%
%LPD*%
G01*
G04 APERTURE LIST*
G04 #@! TA.AperFunction,NonConductor*
%ADD10C,0.150000*%
G04 #@! TD*
G04 #@! TA.AperFunction,ComponentPad*
%ADD11R,1.700000X1.700000*%
G04 #@! TD*
G04 #@! TA.AperFunction,ComponentPad*
%ADD12O,1.700000X1.700000*%
G04 #@! TD*
G04 #@! TA.AperFunction,ComponentPad*
%ADD13C,5.400000*%
G04 #@! TD*
G04 #@! TA.AperFunction,ComponentPad*
%ADD14R,2.400000X2.400000*%
G04 #@! TD*
G04 #@! TA.AperFunction,ComponentPad*
%ADD15C,2.400000*%
G04 #@! TD*
G04 #@! TA.AperFunction,BGAPad,CuDef*
%ADD16C,1.000000*%
G04 #@! TD*
G04 #@! TA.AperFunction,ComponentPad*
%ADD17C,1.600000*%
G04 #@! TD*
G04 #@! TA.AperFunction,ComponentPad*
%ADD18C,4.000000*%
G04 #@! TD*
G04 #@! TA.AperFunction,ViaPad*
%ADD19C,0.800000*%
G04 #@! TD*
G04 #@! TA.AperFunction,Conductor*
%ADD20C,1.000000*%
G04 #@! TD*
G04 #@! TA.AperFunction,Conductor*
%ADD21C,0.500000*%
G04 #@! TD*
G04 #@! TA.AperFunction,Conductor*
%ADD22C,0.250000*%
G04 #@! TD*
G04 #@! TA.AperFunction,Conductor*
%ADD23C,0.240000*%
G04 #@! TD*
G04 #@! TA.AperFunction,Conductor*
%ADD24C,0.750000*%
G04 #@! TD*
G04 #@! TA.AperFunction,Conductor*
%ADD25C,0.200000*%
G04 #@! TD*
G04 APERTURE END LIST*
D10*
X154750000Y-126750000D02*
X154750000Y-46750000D01*
X34750000Y-126750000D02*
X154750000Y-126750000D01*
X34750000Y-46750000D02*
X34750000Y-126750000D01*
X34750000Y-46750000D02*
X154750000Y-46750000D01*
D11*
G04 #@! TO.P,J301,1*
G04 #@! TO.N,+3V3*
X66850000Y-49300000D03*
D12*
G04 #@! TO.P,J301,2*
G04 #@! TO.N,GND*
X64310000Y-49300000D03*
G04 #@! TO.P,J301,3*
G04 #@! TO.N,/I2C_SDA*
X61770000Y-49300000D03*
G04 #@! TO.P,J301,4*
G04 #@! TO.N,/I2C_SCL*
X59230000Y-49300000D03*
G04 #@! TO.P,J301,5*
G04 #@! TO.N,Net-(J301-Pad5)*
X56690000Y-49300000D03*
G04 #@! TO.P,J301,6*
G04 #@! TO.N,Net-(J301-Pad6)*
X54150000Y-49300000D03*
G04 #@! TO.P,J301,7*
G04 #@! TO.N,GND*
X51610000Y-49300000D03*
G04 #@! TO.P,J301,8*
G04 #@! TO.N,/Aceler\00F3metro/INT*
X49070000Y-49300000D03*
G04 #@! TD*
D13*
G04 #@! TO.P,H102,1*
G04 #@! TO.N,N/C*
X136700000Y-51150000D03*
G04 #@! TD*
G04 #@! TO.P,H101,1*
G04 #@! TO.N,N/C*
X40450000Y-122400000D03*
G04 #@! TD*
G04 #@! TO.P,H103,1*
G04 #@! TO.N,N/C*
X136700000Y-122400000D03*
G04 #@! TD*
G04 #@! TO.P,H104,1*
G04 #@! TO.N,N/C*
X40450000Y-51150000D03*
G04 #@! TD*
D14*
G04 #@! TO.P,C504,1*
G04 #@! TO.N,Net-(C502-Pad1)*
X78800000Y-120300000D03*
D15*
G04 #@! TO.P,C504,2*
G04 #@! TO.N,GND*
X78800000Y-115300000D03*
G04 #@! TD*
D16*
G04 #@! TO.P,F103,~*
G04 #@! TO.N,N/C*
X46800000Y-53600000D03*
G04 #@! TD*
G04 #@! TO.P,F104,~*
G04 #@! TO.N,N/C*
X129750000Y-123000000D03*
G04 #@! TD*
G04 #@! TO.P,F105,~*
G04 #@! TO.N,N/C*
X142250000Y-50500000D03*
G04 #@! TD*
D17*
G04 #@! TO.P,F501,1*
G04 #@! TO.N,Net-(D501-Pad2)*
X61100000Y-121650000D03*
G04 #@! TO.P,F501,2*
G04 #@! TO.N,Net-(C502-Pad1)*
X71300000Y-123050000D03*
G04 #@! TD*
D18*
G04 #@! TO.P,J801,*
G04 #@! TO.N,*
X38285000Y-83285000D03*
X38285000Y-105585000D03*
G04 #@! TD*
D11*
G04 #@! TO.P,JP201,1*
G04 #@! TO.N,/CPU/nRESET*
X77250000Y-61850000D03*
D12*
G04 #@! TO.P,JP201,2*
G04 #@! TO.N,GND*
X77250000Y-59310000D03*
G04 #@! TD*
D19*
G04 #@! TO.N,GND*
X81850000Y-100450000D03*
X81850000Y-106900000D03*
X148500000Y-106600000D03*
X144550000Y-106800000D03*
X148900000Y-103250000D03*
X144650000Y-101250000D03*
X40850000Y-99350000D03*
X44000000Y-57250000D03*
X90225000Y-59525000D03*
X101000000Y-81050000D03*
X74075000Y-107575000D03*
X41650000Y-118000000D03*
X40625000Y-88425000D03*
X46700000Y-82000000D03*
X63175000Y-83975000D03*
X91000000Y-55325000D03*
X93000000Y-55325000D03*
X95000000Y-55325000D03*
X62800000Y-111625000D03*
X79150000Y-69975000D03*
X108975000Y-75500000D03*
X119750000Y-81650000D03*
X123200000Y-84900000D03*
X68800000Y-112450000D03*
X115750000Y-62300000D03*
X150850000Y-113150000D03*
X140500000Y-118850000D03*
X83200000Y-61950000D03*
X67250000Y-66100000D03*
X79650000Y-59300000D03*
X75700000Y-64350000D03*
X121000000Y-70450000D03*
X46100000Y-57250000D03*
X50400000Y-57250000D03*
X55650000Y-61450000D03*
X59100000Y-79600000D03*
X107450000Y-55150001D03*
X107449996Y-48950000D03*
X106582080Y-59025000D03*
X81770517Y-76075010D03*
X37750000Y-110650000D03*
X92112660Y-77612660D03*
X78375000Y-73300000D03*
X78375000Y-75475008D03*
X53500000Y-60250000D03*
X129150000Y-79750000D03*
X77175000Y-54025000D03*
X132700000Y-77600000D03*
X88398372Y-53900000D03*
X85525000Y-50500000D03*
X145525001Y-70175000D03*
X144350000Y-80000000D03*
X48150000Y-74275000D03*
X140325000Y-110075000D03*
X105250000Y-52900000D03*
X92100000Y-89875000D03*
X77175000Y-52175000D03*
G04 #@! TO.N,+3V3*
X68250000Y-100750000D03*
X66250000Y-100750000D03*
X64250000Y-100750000D03*
X62250000Y-100750000D03*
X62250000Y-97750000D03*
X69250000Y-99250000D03*
X67250000Y-99250000D03*
X65250000Y-99250000D03*
X63250000Y-99250000D03*
X61250000Y-99250000D03*
X84700000Y-106850000D03*
X84700000Y-102550000D03*
X56350000Y-115550000D03*
X64250000Y-97750000D03*
X66250000Y-97750000D03*
X68250000Y-97750000D03*
X61250000Y-96250000D03*
X63250000Y-96250000D03*
X65250000Y-96250000D03*
X67250000Y-96250000D03*
X69250000Y-96250000D03*
X66250000Y-103750000D03*
X64250000Y-103750000D03*
X69250000Y-102250000D03*
X63250000Y-102250000D03*
X68250000Y-103750000D03*
X62250000Y-103750000D03*
X67250000Y-102250000D03*
X61250000Y-102250000D03*
X65250000Y-102250000D03*
X66250000Y-106750000D03*
X64250000Y-106750000D03*
X69250000Y-105250000D03*
X63250000Y-105250000D03*
X68250000Y-106750000D03*
X62250000Y-106750000D03*
X67250000Y-105250000D03*
X61250000Y-105250000D03*
X65250000Y-105250000D03*
X67250000Y-108250000D03*
X61250000Y-108250000D03*
X69250000Y-108250000D03*
X66250000Y-109750000D03*
X65250000Y-108250000D03*
X64250000Y-109750000D03*
X63250000Y-108250000D03*
X62250000Y-109750000D03*
X68250000Y-109750000D03*
X102550000Y-80600000D03*
X55440747Y-121200000D03*
X55450000Y-118900000D03*
X109425000Y-80025000D03*
X112175000Y-80025000D03*
X111400000Y-84325000D03*
X99600000Y-86250000D03*
X133200000Y-95100000D03*
X139699995Y-91400003D03*
X121900000Y-71450000D03*
X124500000Y-71450000D03*
X96250000Y-55300000D03*
X38300000Y-86800000D03*
X44650000Y-58700000D03*
X38300000Y-94300000D03*
X89250000Y-55150000D03*
X65250000Y-73750000D03*
X66800000Y-74750000D03*
X49200000Y-58700000D03*
X61700000Y-70250000D03*
X61700000Y-73500000D03*
X53950000Y-63300000D03*
X92625000Y-81124998D03*
X91350000Y-91250000D03*
X86650000Y-91250000D03*
X138250000Y-70550350D03*
X132626545Y-73050000D03*
X56350002Y-111350000D03*
X112174996Y-76050000D03*
G04 #@! TO.N,GND*
X72275000Y-56150000D03*
X120300000Y-90075000D03*
G04 #@! TO.N,Net-(C204-Pad1)*
X48850000Y-118750000D03*
X44550000Y-120750000D03*
G04 #@! TO.N,Net-(C205-Pad1)*
X48999625Y-122895642D03*
X52050119Y-122050000D03*
G04 #@! TO.N,/CPU/nRESET*
X90650000Y-69000000D03*
X87150000Y-66700000D03*
X117776985Y-66773015D03*
G04 #@! TO.N,+3.3VADC*
X98525000Y-86250000D03*
X90450000Y-73800000D03*
X88800000Y-96300000D03*
X88600000Y-101300000D03*
X88800000Y-86800000D03*
X86300000Y-76600000D03*
G04 #@! TO.N,GNDA*
X91127446Y-74731700D03*
X90000000Y-97600000D03*
X89699996Y-102099996D03*
X87750000Y-78575000D03*
G04 #@! TO.N,/CPU/TEC_0*
X111150000Y-78250000D03*
X108700000Y-76550000D03*
X95300000Y-76900000D03*
X64550000Y-78750000D03*
G04 #@! TO.N,/CPU/TEC_1*
X64550000Y-79850000D03*
X116770520Y-74776382D03*
X95300000Y-73850000D03*
X106286505Y-74174977D03*
G04 #@! TO.N,/CPU/TEC_2*
X64550000Y-81150000D03*
X112200000Y-73200000D03*
X107011515Y-73346435D03*
X95300000Y-74899987D03*
G04 #@! TO.N,/CPU/TEC_3*
X64550000Y-82450000D03*
X112250000Y-70200000D03*
X107650000Y-72500000D03*
X95300000Y-75900000D03*
G04 #@! TO.N,+1V8*
X138250006Y-97850000D03*
X138450000Y-93350000D03*
X145875000Y-83075000D03*
X146725000Y-73750000D03*
X131150000Y-70425000D03*
G04 #@! TO.N,GNDS*
X139875000Y-65750000D03*
X130950000Y-65750000D03*
X48448359Y-62686535D03*
X124275000Y-64000000D03*
X45700000Y-72150000D03*
X71700000Y-50375000D03*
G04 #@! TO.N,/Audio/MICBIAS*
X133350000Y-71025000D03*
X124875000Y-61975000D03*
G04 #@! TO.N,/MIC+*
X42600000Y-78175000D03*
X50700000Y-63200000D03*
X125850000Y-65550000D03*
X74012347Y-50387347D03*
G04 #@! TO.N,/MIC-*
X47350000Y-69100000D03*
X49800000Y-62450000D03*
X135000000Y-64800000D03*
X74025000Y-49125000D03*
G04 #@! TO.N,Net-(C502-Pad1)*
X77550000Y-100800000D03*
G04 #@! TO.N,/DIG_IN_0*
X50275000Y-95900000D03*
X61475000Y-77899998D03*
G04 #@! TO.N,/DIG_IN_1*
X46100000Y-93250000D03*
X60550000Y-78600000D03*
G04 #@! TO.N,/DIG_IN_2*
X46100000Y-91250000D03*
X59725000Y-80500000D03*
G04 #@! TO.N,/CPU/AN_IN_0*
X88045288Y-82316428D03*
X84335570Y-83625010D03*
G04 #@! TO.N,/CPU/AN_IN_1*
X56600000Y-82750000D03*
X86747088Y-77550062D03*
G04 #@! TO.N,/CPU/AN_IN_2*
X75750000Y-75350000D03*
X59200000Y-77400000D03*
G04 #@! TO.N,Net-(D203-Pad1)*
X37900000Y-48025000D03*
X36250000Y-118650000D03*
G04 #@! TO.N,/CPU/IBUTTON*
X92150000Y-59150000D03*
X64474999Y-57825001D03*
X49101992Y-69498008D03*
X49952856Y-64197144D03*
G04 #@! TO.N,/CPU/BUZZER*
X72400000Y-60600000D03*
X67525010Y-60600000D03*
X64975000Y-60600000D03*
X52150000Y-64200000D03*
X50000000Y-72000000D03*
X91400000Y-60000000D03*
G04 #@! TO.N,/Conectores_IO/DISP_2*
X52750000Y-73350000D03*
X57450000Y-73350000D03*
G04 #@! TO.N,/Conectores_IO/DISP_1*
X57450000Y-71050000D03*
X52750000Y-71050000D03*
G04 #@! TO.N,/Conectores_IO/DISP_0*
X57450000Y-68750000D03*
X52750000Y-68750000D03*
G04 #@! TO.N,/VBAT*
X75050000Y-70750000D03*
X38554327Y-100004327D03*
X37400000Y-87900000D03*
X44650000Y-83900000D03*
X58049987Y-77400000D03*
X41700000Y-101850000D03*
G04 #@! TO.N,/SPK+*
X110200000Y-49749997D03*
X139600000Y-59050000D03*
X142099839Y-71299841D03*
X44200002Y-69100000D03*
X46850000Y-61150000D03*
X70637347Y-49362347D03*
G04 #@! TO.N,/SPK-*
X139800000Y-70900000D03*
X138350000Y-59050000D03*
X110176986Y-50823014D03*
X47699999Y-61900000D03*
X45300000Y-69100006D03*
X70650000Y-50375000D03*
G04 #@! TO.N,/Conectores_IO/PROG_RX*
X49450000Y-123874989D03*
X43750000Y-115625000D03*
G04 #@! TO.N,/Conectores_IO/PROG_TX*
X51750000Y-119500000D03*
X44999679Y-115653401D03*
G04 #@! TO.N,/CPU/GPIO7*
X126250000Y-98650000D03*
X126250004Y-102600000D03*
X94183703Y-58875000D03*
X112700000Y-62350000D03*
G04 #@! TO.N,/CPU/TCK*
X111405527Y-83294473D03*
X103604316Y-80609990D03*
G04 #@! TO.N,/CPU/SLEEP_MDM*
X111250000Y-58450000D03*
X101050000Y-55150000D03*
G04 #@! TO.N,/Aceler\00F3metro/INT*
X98130817Y-58896856D03*
X77975000Y-55375000D03*
G04 #@! TO.N,/CPU/DISPLAY_MODE*
X96500000Y-59650000D03*
X66150000Y-57050000D03*
G04 #@! TO.N,/CPU/DIG_OUT_0*
X102149689Y-63475000D03*
X98075000Y-68250000D03*
X99175000Y-73100000D03*
X57750000Y-103675000D03*
G04 #@! TO.N,/CPU/DIG_OUT_1*
X103250000Y-63475000D03*
X99175000Y-68275000D03*
X99175000Y-71975000D03*
X57750000Y-99400000D03*
G04 #@! TO.N,/CPU/DIG_OUT_2*
X101150000Y-63450000D03*
X97000000Y-68250000D03*
X97000000Y-73100000D03*
X59450000Y-90875000D03*
G04 #@! TO.N,/CPU/IGN*
X94350000Y-77601248D03*
X87550000Y-95600000D03*
X87550000Y-99800000D03*
X86750000Y-107300000D03*
X78000000Y-110300000D03*
X75650000Y-110300000D03*
X75650000Y-111300000D03*
X94350000Y-67700000D03*
X95550000Y-61200000D03*
X96800000Y-64975010D03*
X94400000Y-64975010D03*
X85050000Y-84450000D03*
G04 #@! TO.N,/I2C_SDA*
X98798482Y-55228709D03*
X67150000Y-69100000D03*
X67150000Y-70660000D03*
X71475000Y-54175000D03*
X87025000Y-50400000D03*
G04 #@! TO.N,/I2C_SCL*
X100000000Y-55250000D03*
X87425000Y-51850000D03*
X75750000Y-51350000D03*
G04 #@! TO.N,/Audio/DACIN*
X148750000Y-96600000D03*
X148750000Y-98525000D03*
G04 #@! TO.N,/UC20_PCIe/I2C_SCL*
X139450000Y-97800000D03*
X140000000Y-94150000D03*
X137425000Y-84275000D03*
X141750006Y-76625000D03*
G04 #@! TO.N,/UC20_PCIe/I2C_SDA*
X139424871Y-85460127D03*
X140650000Y-97800000D03*
X141215693Y-94150000D03*
X142201360Y-75196914D03*
G04 #@! TO.N,/UC20_PCIe/W_DISABLE*
X145650000Y-98750000D03*
X145150000Y-94200000D03*
G04 #@! TO.N,/CPU/U2_RXD*
X104800000Y-102750000D03*
X104800000Y-97700000D03*
X115200000Y-91100000D03*
X107012660Y-64287340D03*
G04 #@! TO.N,/CPU/U2_TXD*
X103650000Y-102750000D03*
X103650000Y-97700000D03*
X114150000Y-91074990D03*
X98550000Y-62900000D03*
G04 #@! TO.N,/SPI_MOSI*
X90550000Y-64800000D03*
X79350000Y-66399996D03*
G04 #@! TO.N,/Conectores_IO/DISP_SPI_CS1*
X77188531Y-64184548D03*
X87050000Y-63650000D03*
X90550000Y-63650000D03*
X78996186Y-63645777D03*
G04 #@! TO.N,/CPU/BUFFER_OE*
X77623008Y-67174996D03*
X67600054Y-77700000D03*
X64550012Y-77700000D03*
X92200000Y-62850000D03*
G04 #@! TO.N,/SPI_SCK*
X65650000Y-68000000D03*
X77850000Y-65000000D03*
X71399998Y-68000000D03*
X79700000Y-64424988D03*
G04 #@! TO.N,/CPU/U3_TX*
X154000000Y-114500000D03*
X154000000Y-86000000D03*
X110950000Y-55900000D03*
X103704287Y-55825000D03*
G04 #@! TO.N,/CPU/U3_RX*
X109750000Y-55150000D03*
X102900000Y-55150000D03*
G04 #@! TO.N,/CPU/DIG_IN_2*
X77050000Y-75600000D03*
X97650000Y-61150000D03*
G04 #@! TO.N,/CPU/DIG_IN_1*
X79350000Y-67450000D03*
X98800000Y-60650000D03*
G04 #@! TO.N,/CPU/DIG_IN_0*
X99900000Y-60650000D03*
X99895621Y-62252848D03*
X90400000Y-62000000D03*
X73250000Y-69949994D03*
G04 #@! TD*
D20*
G04 #@! TO.N,GND*
X81850000Y-100450000D02*
X81850000Y-106900000D01*
D21*
X44000000Y-57250000D02*
X46100000Y-57250000D01*
D22*
X107450000Y-55150001D02*
X107450000Y-54584316D01*
X107450000Y-54584316D02*
X107450000Y-53250000D01*
D23*
X106582080Y-59025000D02*
X110575000Y-59025000D01*
X113850000Y-62300000D02*
X115750000Y-62300000D01*
X110575000Y-59025000D02*
X113850000Y-62300000D01*
D22*
X78375000Y-73300000D02*
X78375000Y-75475008D01*
D21*
X54700000Y-61450000D02*
X55650000Y-61450000D01*
X53500000Y-60250000D02*
X54700000Y-61450000D01*
X50500000Y-57250000D02*
X53500000Y-60250000D01*
X50400000Y-57250000D02*
X50500000Y-57250000D01*
X145925000Y-70574999D02*
X145525001Y-70175000D01*
X147575001Y-72225000D02*
X145925000Y-70574999D01*
X147575001Y-76774999D02*
X147575001Y-72225000D01*
X144350000Y-80000000D02*
X147575001Y-76774999D01*
D22*
X107450000Y-53250000D02*
X107100000Y-52900000D01*
X107100000Y-52900000D02*
X105250000Y-52900000D01*
D21*
G04 #@! TO.N,+3V3*
X84700000Y-106850000D02*
X84700000Y-102550000D01*
D22*
X55440747Y-121200000D02*
X55440747Y-118909253D01*
X55440747Y-118909253D02*
X55450000Y-118900000D01*
D21*
X102550000Y-80600000D02*
X101975000Y-80600000D01*
X101975000Y-80600000D02*
X101475000Y-80100000D01*
X101475000Y-80100000D02*
X100525000Y-80100000D01*
X100525000Y-80100000D02*
X100025000Y-80600000D01*
X109109989Y-79709989D02*
X109425000Y-80025000D01*
X102874326Y-79709989D02*
X109109989Y-79709989D01*
X102550000Y-80600000D02*
X102550000Y-80034315D01*
X102550000Y-80034315D02*
X102874326Y-79709989D01*
X109425000Y-80025000D02*
X112175000Y-80025000D01*
X112175000Y-80025000D02*
X112574999Y-80424999D01*
X111965685Y-84325000D02*
X111400000Y-84325000D01*
X112574999Y-83715686D02*
X111965685Y-84325000D01*
X112574999Y-80424999D02*
X112574999Y-83715686D01*
X99600000Y-85684315D02*
X100025000Y-85259315D01*
X99600000Y-86250000D02*
X99600000Y-85684315D01*
X139299996Y-91800002D02*
X139699995Y-91400003D01*
X133200000Y-95100000D02*
X135300000Y-95100000D01*
X138599998Y-91800002D02*
X139299996Y-91800002D01*
X135300000Y-95100000D02*
X138599998Y-91800002D01*
X121900000Y-71450000D02*
X124500000Y-71450000D01*
D23*
X95502742Y-54552742D02*
X89847258Y-54552742D01*
X96250000Y-55300000D02*
X95502742Y-54552742D01*
X89847258Y-54552742D02*
X89649999Y-54750001D01*
X89649999Y-54750001D02*
X89250000Y-55150000D01*
D21*
X41250000Y-62100000D02*
X44650000Y-58700000D01*
X41250000Y-84020002D02*
X41250000Y-62100000D01*
X38300000Y-86800000D02*
X38470002Y-86800000D01*
X38470002Y-86800000D02*
X41250000Y-84020002D01*
X65250000Y-73750000D02*
X65800000Y-73750000D01*
X65800000Y-73750000D02*
X66800000Y-74750000D01*
X61700000Y-70250000D02*
X61700000Y-73500000D01*
X53373008Y-62873008D02*
X53800000Y-63300000D01*
X53800000Y-63300000D02*
X53950000Y-63300000D01*
X49200000Y-58700000D02*
X53373008Y-62873008D01*
X100024998Y-81124998D02*
X100025000Y-81125000D01*
X92625000Y-81124998D02*
X100024998Y-81124998D01*
X100025000Y-85259315D02*
X100025000Y-81125000D01*
X100025000Y-81125000D02*
X100025000Y-80600000D01*
X39900000Y-95900000D02*
X38300000Y-94300000D01*
X61350000Y-104650000D02*
X56167998Y-104650000D01*
D22*
X48867998Y-97350000D02*
X48850000Y-97350000D01*
D21*
X48850000Y-97350000D02*
X47400000Y-95900000D01*
X62250000Y-103750000D02*
X61350000Y-104650000D01*
X56167998Y-104650000D02*
X48867998Y-97350000D01*
X47400000Y-95900000D02*
X39900000Y-95900000D01*
X91350000Y-91250000D02*
X86650000Y-91250000D01*
D22*
X126250002Y-69699998D02*
X124899999Y-71050001D01*
X124899999Y-71050001D02*
X124500000Y-71450000D01*
X137399648Y-69699998D02*
X126250002Y-69699998D01*
X138250000Y-70550350D02*
X137399648Y-69699998D01*
D21*
X56350000Y-115550000D02*
X56350000Y-111350002D01*
X56350000Y-111350002D02*
X56350002Y-111350000D01*
D22*
X130950319Y-71450000D02*
X124500000Y-71450000D01*
X132626545Y-73050000D02*
X132550319Y-73050000D01*
X132550319Y-73050000D02*
X130950319Y-71450000D01*
D21*
X112175000Y-80025000D02*
X112175000Y-76050004D01*
X112175000Y-76050004D02*
X112174996Y-76050000D01*
D22*
G04 #@! TO.N,Net-(C204-Pad1)*
X48850000Y-118750000D02*
X48550000Y-118450000D01*
X48550000Y-118450000D02*
X45050000Y-118450000D01*
X45050000Y-118450000D02*
X44550000Y-118950000D01*
X44550000Y-118950000D02*
X44550000Y-120750000D01*
G04 #@! TO.N,Net-(C205-Pad1)*
X51484434Y-122050000D02*
X52050119Y-122050000D01*
X48999625Y-122895642D02*
X49845267Y-122050000D01*
X49845267Y-122050000D02*
X51484434Y-122050000D01*
G04 #@! TO.N,/CPU/nRESET*
X87715685Y-66700000D02*
X87150000Y-66700000D01*
X89250000Y-66700000D02*
X87715685Y-66700000D01*
X90650000Y-69000000D02*
X90650000Y-68100000D01*
X90650000Y-68100000D02*
X89250000Y-66700000D01*
X90650000Y-69000000D02*
X115550000Y-69000000D01*
X115550000Y-69000000D02*
X117376986Y-67173014D01*
X117376986Y-67173014D02*
X117776985Y-66773015D01*
D24*
G04 #@! TO.N,+3.3VADC*
X88800000Y-96300000D02*
X88800000Y-101100000D01*
X88800000Y-101100000D02*
X88600000Y-101300000D01*
D21*
X98525000Y-86250000D02*
X97975000Y-86800000D01*
X97975000Y-86800000D02*
X88800000Y-86800000D01*
D23*
X86699999Y-76200001D02*
X86300000Y-76600000D01*
X89100000Y-73800000D02*
X86699999Y-76200001D01*
X90450000Y-73800000D02*
X89100000Y-73800000D01*
D21*
G04 #@! TO.N,GNDA*
X90000000Y-97600000D02*
X90000000Y-101799992D01*
X90000000Y-101799992D02*
X89699996Y-102099996D01*
D22*
X91127446Y-75197554D02*
X91127446Y-74731700D01*
X87750000Y-78575000D02*
X91127446Y-75197554D01*
G04 #@! TO.N,/CPU/TEC_0*
X111150000Y-78250000D02*
X110400000Y-78250000D01*
X110400000Y-78250000D02*
X108700000Y-76550000D01*
X86436400Y-82900010D02*
X85950000Y-82900010D01*
X90936410Y-78400000D02*
X86436400Y-82900010D01*
X92398322Y-78400000D02*
X90936410Y-78400000D01*
X93922075Y-76876247D02*
X92398322Y-78400000D01*
X95300000Y-76900000D02*
X95276247Y-76876247D01*
X95276247Y-76876247D02*
X93922075Y-76876247D01*
X85950000Y-82900010D02*
X65299990Y-82900010D01*
X65299990Y-82900010D02*
X64950000Y-83250000D01*
X64276998Y-83250000D02*
X63700000Y-82673002D01*
X64950000Y-83250000D02*
X64276998Y-83250000D01*
X63700000Y-82673002D02*
X63700000Y-79600000D01*
X63700000Y-79600000D02*
X64550000Y-78750000D01*
G04 #@! TO.N,/CPU/TEC_1*
X64550000Y-79850000D02*
X66225000Y-81525000D01*
X66225000Y-81525000D02*
X85902180Y-81525000D01*
X85902180Y-81525000D02*
X93577180Y-73850000D01*
X94734315Y-73850000D02*
X95300000Y-73850000D01*
X93577180Y-73850000D02*
X94734315Y-73850000D01*
X116169115Y-74174977D02*
X106852190Y-74174977D01*
X106852190Y-74174977D02*
X106286505Y-74174977D01*
X116770520Y-74776382D02*
X116169115Y-74174977D01*
G04 #@! TO.N,/CPU/TEC_2*
X111800001Y-73599999D02*
X107265079Y-73599999D01*
X112200000Y-73200000D02*
X111800001Y-73599999D01*
X107265079Y-73599999D02*
X107011515Y-73346435D01*
X65375011Y-81975011D02*
X86088579Y-81975011D01*
X94734315Y-74899987D02*
X95300000Y-74899987D01*
X93163603Y-74899987D02*
X94734315Y-74899987D01*
X86088579Y-81975011D02*
X93163603Y-74899987D01*
X64550000Y-81150000D02*
X65375011Y-81975011D01*
G04 #@! TO.N,/CPU/TEC_3*
X108215685Y-72500000D02*
X107650000Y-72500000D01*
X109950000Y-72500000D02*
X108215685Y-72500000D01*
X112250000Y-70200000D02*
X109950000Y-72500000D01*
X92800000Y-75900000D02*
X95300000Y-75900000D01*
X64550000Y-82450000D02*
X86250000Y-82450000D01*
X86250000Y-82450000D02*
X92800000Y-75900000D01*
D21*
G04 #@! TO.N,+1V8*
X138250006Y-97284315D02*
X138250006Y-97850000D01*
X138250006Y-94754110D02*
X138250006Y-97284315D01*
X138250006Y-94754110D02*
X138250006Y-93549994D01*
X138250006Y-93549994D02*
X138450000Y-93350000D01*
X138450000Y-93350000D02*
X139050000Y-92750000D01*
X139050000Y-92750000D02*
X139775000Y-92750000D01*
X139775000Y-92750000D02*
X145875000Y-86650000D01*
X145875000Y-86650000D02*
X145875000Y-83075000D01*
D22*
X131150000Y-70425000D02*
X131275000Y-70425000D01*
X134600000Y-73750000D02*
X146725000Y-73750000D01*
X131275000Y-70425000D02*
X134600000Y-73750000D01*
D21*
G04 #@! TO.N,GNDS*
X139875000Y-65750000D02*
X139309315Y-65750000D01*
X139309315Y-65750000D02*
X130950000Y-65750000D01*
D22*
X48448359Y-62686535D02*
X46750000Y-64384894D01*
X46750000Y-64384894D02*
X46750000Y-68150000D01*
X46750000Y-68450000D02*
X46350000Y-68850000D01*
X46750000Y-68150000D02*
X46750000Y-68450000D01*
X46350000Y-68850000D02*
X46350000Y-71500000D01*
X46350000Y-71500000D02*
X45700000Y-72150000D01*
X111925000Y-51650000D02*
X108950000Y-51650000D01*
X105475000Y-48175000D02*
X73900000Y-48175000D01*
X124275000Y-64000000D02*
X111925000Y-51650000D01*
X108950000Y-51650000D02*
X105475000Y-48175000D01*
X73900000Y-48175000D02*
X72099999Y-49975001D01*
X72099999Y-49975001D02*
X71700000Y-50375000D01*
G04 #@! TO.N,/Audio/MICBIAS*
X142975002Y-71748002D02*
X142023003Y-72700001D01*
X128525001Y-58324999D02*
X139948001Y-58324999D01*
X133749999Y-71424999D02*
X133350000Y-71025000D01*
X142975002Y-61352000D02*
X142975002Y-71748002D01*
X142023003Y-72700001D02*
X135025001Y-72700001D01*
X139948001Y-58324999D02*
X142975002Y-61352000D01*
X135025001Y-72700001D02*
X133749999Y-71424999D01*
X124875000Y-61975000D02*
X128525001Y-58324999D01*
G04 #@! TO.N,/MIC+*
X50650000Y-63250000D02*
X50700000Y-63200000D01*
X42999999Y-77775001D02*
X42999999Y-76750001D01*
X48326991Y-64673009D02*
X49750000Y-63250000D01*
X42600000Y-78175000D02*
X42999999Y-77775001D01*
X42999999Y-76750001D02*
X48326991Y-71423009D01*
X48326991Y-71423009D02*
X48326991Y-64673009D01*
X49750000Y-63250000D02*
X50650000Y-63250000D01*
X123000000Y-65550000D02*
X125850000Y-65550000D01*
X112574999Y-55124999D02*
X123000000Y-65550000D01*
X93386410Y-49175000D02*
X94661406Y-50449996D01*
X94661406Y-50449996D02*
X106192874Y-50449996D01*
X106192874Y-50449996D02*
X110867877Y-55124999D01*
X110867877Y-55124999D02*
X112574999Y-55124999D01*
X74412652Y-49987348D02*
X75225000Y-49175000D01*
X74412346Y-49987348D02*
X74412652Y-49987348D01*
X74012347Y-50387347D02*
X74412346Y-49987348D01*
X75225000Y-49175000D02*
X93386410Y-49175000D01*
G04 #@! TO.N,/MIC-*
X47350000Y-69100000D02*
X47350000Y-64900000D01*
X47350000Y-64900000D02*
X49800000Y-62450000D01*
X111099977Y-54600000D02*
X112700000Y-54600000D01*
X112757120Y-54600000D02*
X112782111Y-54624991D01*
X112700000Y-54600000D02*
X112757120Y-54600000D01*
X112782111Y-54624991D02*
X120528560Y-62371440D01*
X108850000Y-52350000D02*
X111074988Y-54574988D01*
X120528560Y-62371440D02*
X122928560Y-64771440D01*
X122928560Y-64771440D02*
X134971440Y-64771440D01*
X134971440Y-64771440D02*
X135000000Y-64800000D01*
X74475010Y-48674990D02*
X74424999Y-48725001D01*
X74424999Y-48725001D02*
X74025000Y-49125000D01*
X93593521Y-48674990D02*
X74475010Y-48674990D01*
X108849990Y-52349990D02*
X106400000Y-49900000D01*
X94818531Y-49900000D02*
X93593521Y-48674990D01*
X106400000Y-49900000D02*
X94818531Y-49900000D01*
D20*
G04 #@! TO.N,Net-(C502-Pad1)*
X77550000Y-100800000D02*
X76800000Y-101550000D01*
X78800000Y-118100000D02*
X78800000Y-120300000D01*
X76800000Y-116100000D02*
X78800000Y-118100000D01*
X76800000Y-101550000D02*
X76800000Y-116100000D01*
D22*
G04 #@! TO.N,/DIG_IN_0*
X61475000Y-87125000D02*
X61475000Y-78607104D01*
X54600000Y-94000000D02*
X61475000Y-87125000D01*
X50275000Y-95900000D02*
X52175000Y-94000000D01*
X61475000Y-78607104D02*
X61475000Y-77899998D01*
X52175000Y-94000000D02*
X54600000Y-94000000D01*
G04 #@! TO.N,/DIG_IN_1*
X60550000Y-87200000D02*
X60550000Y-79165685D01*
X60550000Y-79165685D02*
X60550000Y-78600000D01*
X54500000Y-93250000D02*
X60550000Y-87200000D01*
X46100000Y-93250000D02*
X54500000Y-93250000D01*
G04 #@! TO.N,/DIG_IN_2*
X55600000Y-91250000D02*
X46100000Y-91250000D01*
X59700000Y-87150000D02*
X55600000Y-91250000D01*
X59725000Y-80500000D02*
X59700000Y-80525000D01*
X59700000Y-80525000D02*
X59700000Y-87150000D01*
G04 #@! TO.N,/CPU/AN_IN_0*
X88045288Y-82316428D02*
X86736706Y-83625010D01*
X86736706Y-83625010D02*
X84335570Y-83625010D01*
G04 #@! TO.N,/CPU/AN_IN_1*
X59324999Y-78175001D02*
X56600000Y-80900000D01*
X85400020Y-76850020D02*
X60999980Y-76850020D01*
X86747088Y-77550062D02*
X86100062Y-77550062D01*
X56600000Y-80900000D02*
X56600000Y-82750000D01*
X59674999Y-78175001D02*
X59324999Y-78175001D01*
X60999980Y-76850020D02*
X59674999Y-78175001D01*
X86100062Y-77550062D02*
X85400020Y-76850020D01*
G04 #@! TO.N,/CPU/AN_IN_2*
X59599999Y-77000001D02*
X59200000Y-77400000D01*
X60249990Y-76350010D02*
X59599999Y-77000001D01*
X75750000Y-75350000D02*
X74749990Y-76350010D01*
X74749990Y-76350010D02*
X60249990Y-76350010D01*
G04 #@! TO.N,Net-(D203-Pad1)*
X37500001Y-48449999D02*
X35300000Y-50650000D01*
X37900000Y-48025000D02*
X37900000Y-48050000D01*
X37900000Y-48050000D02*
X37500001Y-48449999D01*
X35300000Y-50650000D02*
X35300000Y-80250000D01*
X35300000Y-80250000D02*
X35300000Y-82700000D01*
X35300000Y-82700000D02*
X35300000Y-83800000D01*
X35300000Y-83800000D02*
X35300000Y-90250000D01*
X35300000Y-90250000D02*
X35300000Y-90600000D01*
X35300000Y-90600000D02*
X35300000Y-97150000D01*
X35300000Y-97150000D02*
X35300000Y-104900000D01*
X35300000Y-104900000D02*
X35300000Y-110650000D01*
X35300000Y-110650000D02*
X35300000Y-111100000D01*
X35300000Y-111100000D02*
X35300000Y-117700000D01*
X35300000Y-117700000D02*
X36250000Y-118650000D01*
G04 #@! TO.N,/CPU/IBUTTON*
X90825001Y-57825001D02*
X64474999Y-57825001D01*
X92150000Y-59150000D02*
X90825001Y-57825001D01*
X49101992Y-65048008D02*
X49552857Y-64597143D01*
X49552857Y-64597143D02*
X49952856Y-64197144D01*
X49101992Y-69498008D02*
X49101992Y-65048008D01*
G04 #@! TO.N,/CPU/BUZZER*
X67525010Y-60600000D02*
X64975000Y-60600000D01*
X49950000Y-71950000D02*
X50000000Y-72000000D01*
X50000000Y-71900000D02*
X49950000Y-71950000D01*
X52150000Y-64200000D02*
X50000000Y-66350000D01*
X50000000Y-66350000D02*
X50000000Y-71900000D01*
X90800000Y-60600000D02*
X91400000Y-60000000D01*
X72400000Y-60600000D02*
X90800000Y-60600000D01*
G04 #@! TO.N,/Conectores_IO/DISP_2*
X52750000Y-73350000D02*
X57450000Y-73350000D01*
G04 #@! TO.N,/Conectores_IO/DISP_1*
X57450000Y-71050000D02*
X52750000Y-71050000D01*
G04 #@! TO.N,/Conectores_IO/DISP_0*
X57450000Y-68750000D02*
X56884315Y-68750000D01*
X56884315Y-68750000D02*
X52750000Y-68750000D01*
G04 #@! TO.N,/VBAT*
X38347002Y-87900000D02*
X41950000Y-84297002D01*
X37400000Y-87900000D02*
X38347002Y-87900000D01*
X41950000Y-84297002D02*
X44252998Y-84297002D01*
X44252998Y-84297002D02*
X44650000Y-83900000D01*
X59599987Y-75850000D02*
X58049987Y-77400000D01*
X75050000Y-70750000D02*
X69950000Y-75850000D01*
X69950000Y-75850000D02*
X59599987Y-75850000D01*
X41134315Y-101850000D02*
X41700000Y-101850000D01*
X40400000Y-101850000D02*
X41134315Y-101850000D01*
X38554327Y-100004327D02*
X40400000Y-101850000D01*
G04 #@! TO.N,/SPK+*
X110200000Y-49184312D02*
X108215698Y-47200010D01*
X110200000Y-49749997D02*
X110200000Y-49184312D01*
X142499838Y-70899842D02*
X142099839Y-71299841D01*
X142499838Y-61949838D02*
X142499838Y-70899842D01*
X139600000Y-59050000D02*
X142499838Y-61949838D01*
X44200002Y-68534315D02*
X44200002Y-69100000D01*
X46850000Y-61150000D02*
X44200002Y-63799998D01*
X44200002Y-63799998D02*
X44200002Y-68534315D01*
X71037662Y-48962348D02*
X72800000Y-47200010D01*
X71037346Y-48962348D02*
X71037662Y-48962348D01*
X70637347Y-49362347D02*
X71037346Y-48962348D01*
X108215698Y-47200010D02*
X72800000Y-47200010D01*
G04 #@! TO.N,/SPK-*
X47699999Y-61900000D02*
X45300000Y-64299999D01*
X45300000Y-64299999D02*
X45300000Y-68534321D01*
X45300000Y-68534321D02*
X45300000Y-69100006D01*
X141700000Y-62400000D02*
X139650000Y-60350000D01*
X141700000Y-70175000D02*
X141700000Y-62400000D01*
X139650000Y-60350000D02*
X138350000Y-59050000D01*
X139900000Y-70925000D02*
X140950000Y-70925000D01*
X140950000Y-70925000D02*
X141700000Y-70175000D01*
X73324979Y-47700021D02*
X71049999Y-49975001D01*
X110176986Y-50823014D02*
X108325001Y-48971029D01*
X108325001Y-48971029D02*
X108325001Y-48077995D01*
X71049999Y-49975001D02*
X70650000Y-50375000D01*
X107947027Y-47700021D02*
X73324979Y-47700021D01*
X108325001Y-48077995D02*
X107947027Y-47700021D01*
G04 #@! TO.N,/Conectores_IO/PROG_RX*
X49050001Y-124274988D02*
X49450000Y-123874989D01*
X48674989Y-124650000D02*
X49050001Y-124274988D01*
X44750000Y-124650000D02*
X48674989Y-124650000D01*
X44750000Y-124650000D02*
X44650000Y-124650000D01*
X44650000Y-124650000D02*
X43750000Y-123750000D01*
X43750000Y-123750000D02*
X43750000Y-115625000D01*
G04 #@! TO.N,/Conectores_IO/PROG_TX*
X51750000Y-119500000D02*
X49250000Y-117000000D01*
X49250000Y-117000000D02*
X49000000Y-116750000D01*
X49000000Y-116750000D02*
X45500000Y-116750000D01*
X45500000Y-116750000D02*
X45350000Y-116750000D01*
X45350000Y-116750000D02*
X44999679Y-116399679D01*
X44999679Y-116399679D02*
X44999679Y-115653401D01*
G04 #@! TO.N,/CPU/GPIO7*
X126250000Y-98650000D02*
X126250000Y-102599996D01*
D21*
X126250000Y-102599996D02*
X126250004Y-102600000D01*
D22*
X97850000Y-59800000D02*
X110150000Y-59800000D01*
X96925000Y-58875000D02*
X97850000Y-59800000D01*
X110150000Y-59800000D02*
X112300001Y-61950001D01*
X112300001Y-61950001D02*
X112700000Y-62350000D01*
X94183703Y-58875000D02*
X96925000Y-58875000D01*
D23*
G04 #@! TO.N,/CPU/TCK*
X106409990Y-80609990D02*
X103604316Y-80609990D01*
X111405527Y-82555527D02*
X110425000Y-81575000D01*
X111405527Y-83294473D02*
X111405527Y-82555527D01*
X110425000Y-81575000D02*
X108875000Y-81575000D01*
X106925000Y-81125000D02*
X106409990Y-80609990D01*
X108875000Y-81575000D02*
X108425000Y-81125000D01*
X108425000Y-81125000D02*
X106925000Y-81125000D01*
D22*
G04 #@! TO.N,/CPU/SLEEP_MDM*
X103015685Y-56600000D02*
X109400000Y-56600000D01*
X109400000Y-56600000D02*
X111250000Y-58450000D01*
X101050000Y-55150000D02*
X101565685Y-55150000D01*
X101565685Y-55150000D02*
X103015685Y-56600000D01*
G04 #@! TO.N,/Aceler\00F3metro/INT*
X49070000Y-49300000D02*
X50245001Y-50475001D01*
X59725001Y-50475001D02*
X60625020Y-51375020D01*
X77650000Y-55375000D02*
X77975000Y-55375000D01*
X60625020Y-51375020D02*
X66625020Y-51375020D01*
X50245001Y-50475001D02*
X59725001Y-50475001D01*
X66625020Y-51375020D02*
X70625000Y-55375000D01*
X70625000Y-55375000D02*
X77650000Y-55375000D01*
X79475000Y-56875000D02*
X77975000Y-55375000D01*
X98130817Y-58896856D02*
X96108961Y-56875000D01*
X96108961Y-56875000D02*
X79475000Y-56875000D01*
G04 #@! TO.N,/CPU/DISPLAY_MODE*
X66425000Y-57325000D02*
X66150000Y-57050000D01*
X91475000Y-57325000D02*
X66425000Y-57325000D01*
X96500000Y-59650000D02*
X93800000Y-59650000D01*
X93800000Y-59650000D02*
X91475000Y-57325000D01*
G04 #@! TO.N,/CPU/DIG_OUT_0*
X102149689Y-63475000D02*
X102149689Y-64175311D01*
X102149689Y-64175311D02*
X98075000Y-68250000D01*
X58575000Y-102850000D02*
X57750000Y-103675000D01*
X58575000Y-94725000D02*
X58575000Y-102850000D01*
X85770801Y-86075021D02*
X67224979Y-86075021D01*
X67224979Y-86075021D02*
X58575000Y-94725000D01*
X90120318Y-83338912D02*
X87384210Y-86075020D01*
X90120319Y-81888911D02*
X90120318Y-83338912D01*
X91759200Y-80250030D02*
X90120319Y-81888911D01*
X87384210Y-86075020D02*
X85770801Y-86075021D01*
X97900019Y-74374981D02*
X97900018Y-76645804D01*
X99175000Y-73100000D02*
X97900019Y-74374981D01*
X95245802Y-79300020D02*
X94560458Y-79300020D01*
X97900018Y-76645804D02*
X95245802Y-79300020D01*
X94560458Y-79300020D02*
X93610448Y-80250030D01*
X93610448Y-80250030D02*
X91759200Y-80250030D01*
G04 #@! TO.N,/CPU/DIG_OUT_1*
X103250000Y-63475000D02*
X103250000Y-64200000D01*
X103250000Y-64200000D02*
X99175000Y-68275000D01*
X66749989Y-85625011D02*
X57750000Y-94625000D01*
X89670309Y-83152511D02*
X87197809Y-85625011D01*
X89670309Y-81702511D02*
X89670309Y-83152511D01*
X57750000Y-94625000D02*
X57750000Y-99400000D01*
X91572800Y-79800020D02*
X89670309Y-81702511D01*
X97450010Y-73699990D02*
X97450009Y-76459403D01*
X87197809Y-85625011D02*
X66749989Y-85625011D01*
X93424048Y-79800020D02*
X91572800Y-79800020D01*
X97450009Y-76459403D02*
X95059402Y-78850010D01*
X95059402Y-78850010D02*
X94374058Y-78850010D01*
X99175000Y-71975000D02*
X97450010Y-73699990D01*
X94374058Y-78850010D02*
X93424048Y-79800020D01*
G04 #@! TO.N,/CPU/DIG_OUT_2*
X101150000Y-63450000D02*
X97000000Y-67600000D01*
X97000000Y-67600000D02*
X97000000Y-68250000D01*
X59450000Y-90000000D02*
X59450000Y-90875000D01*
X64274999Y-85175001D02*
X59450000Y-90000000D01*
X87011409Y-85175001D02*
X64274999Y-85175001D01*
X89220299Y-81516111D02*
X89220299Y-82966111D01*
X91386400Y-79350010D02*
X89220299Y-81516111D01*
X97000000Y-73100000D02*
X97000000Y-76273002D01*
X89220299Y-82966111D02*
X87011409Y-85175001D01*
X97000000Y-76273002D02*
X94873002Y-78400000D01*
X94873002Y-78400000D02*
X94187658Y-78400000D01*
X94187658Y-78400000D02*
X93237648Y-79350010D01*
X93237648Y-79350010D02*
X91386400Y-79350010D01*
G04 #@! TO.N,/CPU/IGN*
X87550000Y-95600000D02*
X87550000Y-96165685D01*
X87550000Y-96165685D02*
X87550000Y-99800000D01*
X86750000Y-107300000D02*
X83750000Y-110300000D01*
X83750000Y-110300000D02*
X78000000Y-110300000D01*
X75650000Y-110300000D02*
X75650000Y-111300000D01*
X95550000Y-61200000D02*
X94400000Y-62350000D01*
X96800000Y-65250000D02*
X96800000Y-64975010D01*
X94400000Y-64409325D02*
X94400000Y-64975010D01*
X94350000Y-67700000D02*
X96800000Y-65250000D01*
X94400000Y-62350000D02*
X94400000Y-64409325D01*
X93051248Y-78900000D02*
X94350000Y-77601248D01*
X91200000Y-78900000D02*
X93051248Y-78900000D01*
X88770289Y-81329711D02*
X91200000Y-78900000D01*
X85050000Y-84450000D02*
X87100000Y-84450000D01*
X88770289Y-82779711D02*
X88770289Y-81329711D01*
X87100000Y-84450000D02*
X88770289Y-82779711D01*
G04 #@! TO.N,/I2C_SDA*
X67150000Y-69100000D02*
X67150000Y-70660000D01*
X98798482Y-55228709D02*
X94519779Y-50950006D01*
X94525000Y-50950000D02*
X93975000Y-50400000D01*
X93975000Y-50400000D02*
X86975000Y-50400000D01*
X71512659Y-53912341D02*
X71512659Y-54012660D01*
X75800000Y-49625000D02*
X71512659Y-53912341D01*
X87000000Y-50375000D02*
X86250000Y-49625000D01*
X86250000Y-49625000D02*
X75800000Y-49625000D01*
X67209316Y-50475001D02*
X62945001Y-50475001D01*
X62619999Y-50149999D02*
X61770000Y-49300000D01*
X62945001Y-50475001D02*
X62619999Y-50149999D01*
X70909315Y-54175000D02*
X67209316Y-50475001D01*
X71475000Y-54175000D02*
X70909315Y-54175000D01*
D25*
G04 #@! TO.N,/I2C_SCL*
X100000000Y-55250000D02*
X99271290Y-55978710D01*
D22*
X94284771Y-51825000D02*
X87425000Y-51825000D01*
X99271290Y-55978710D02*
X98438481Y-55978710D01*
X98438481Y-55978710D02*
X94284771Y-51825000D01*
X87038589Y-51850000D02*
X86588589Y-51400000D01*
X87450000Y-51850000D02*
X87038589Y-51850000D01*
X86588589Y-51400000D02*
X75750000Y-51350000D01*
X60855011Y-50925011D02*
X60079999Y-50149999D01*
X60079999Y-50149999D02*
X59230000Y-49300000D01*
X66850011Y-50925011D02*
X60855011Y-50925011D01*
X70825001Y-54900001D02*
X66850011Y-50925011D01*
X72199999Y-54900001D02*
X70825001Y-54900001D01*
X75750000Y-51350000D02*
X72199999Y-54900001D01*
G04 #@! TO.N,/Audio/DACIN*
X148750000Y-96600000D02*
X148750000Y-98525000D01*
G04 #@! TO.N,/UC20_PCIe/I2C_SCL*
X139450000Y-97800000D02*
X140000000Y-97250000D01*
X140000000Y-97250000D02*
X140000000Y-94150000D01*
X137425000Y-80950006D02*
X141350007Y-77024999D01*
X141350007Y-77024999D02*
X141750006Y-76625000D01*
X137425000Y-84275000D02*
X137425000Y-80950006D01*
G04 #@! TO.N,/UC20_PCIe/I2C_SDA*
X140650000Y-97800000D02*
X140650000Y-94715693D01*
X140650000Y-94715693D02*
X140815694Y-94549999D01*
X140815694Y-94549999D02*
X141215693Y-94150000D01*
X139424871Y-85460127D02*
X142525002Y-82359996D01*
X142525002Y-75525002D02*
X142200000Y-75200000D01*
X142525002Y-82359996D02*
X142525002Y-75525002D01*
G04 #@! TO.N,/UC20_PCIe/W_DISABLE*
X145650000Y-98750000D02*
X145150000Y-98250000D01*
X145150000Y-98250000D02*
X145150000Y-94200000D01*
G04 #@! TO.N,/CPU/U2_RXD*
X104800000Y-102750000D02*
X104800000Y-97700000D01*
D23*
X117554122Y-64650000D02*
X117547050Y-64650000D01*
D22*
X115200000Y-91100000D02*
X115200000Y-78207122D01*
X115200000Y-78207122D02*
X119100011Y-74307111D01*
X119100011Y-74307111D02*
X119100010Y-66192888D01*
X117557122Y-64650000D02*
X117554122Y-64650000D01*
X119100010Y-66192888D02*
X117557122Y-64650000D01*
X107578345Y-64287340D02*
X107012660Y-64287340D01*
X117184390Y-64287340D02*
X107578345Y-64287340D01*
X117547050Y-64650000D02*
X117184390Y-64287340D01*
G04 #@! TO.N,/CPU/U2_TXD*
X103650000Y-102750000D02*
X103650000Y-97700000D01*
X114150000Y-78550000D02*
X118600000Y-74100000D01*
X114150000Y-91074990D02*
X114150000Y-78550000D01*
X118600000Y-66500000D02*
X117550000Y-65450000D01*
X118600000Y-74100000D02*
X118600000Y-66500000D01*
X107150000Y-65450000D02*
X117547002Y-65450000D01*
X100950000Y-62300000D02*
X104000000Y-62300000D01*
X99950001Y-63299999D02*
X100950000Y-62300000D01*
X104000000Y-62300000D02*
X107150000Y-65450000D01*
X98550000Y-62900000D02*
X98949999Y-63299999D01*
X98949999Y-63299999D02*
X99950001Y-63299999D01*
G04 #@! TO.N,/SPI_MOSI*
X90550000Y-64800000D02*
X81650000Y-64800000D01*
X80050004Y-66399996D02*
X79350000Y-66399996D01*
X81650000Y-64800000D02*
X80050004Y-66399996D01*
G04 #@! TO.N,/Conectores_IO/DISP_SPI_CS1*
X87050000Y-63650000D02*
X90550000Y-63650000D01*
X78554223Y-63645777D02*
X78996186Y-63645777D01*
X77188531Y-64184548D02*
X78015452Y-64184548D01*
X78015452Y-64184548D02*
X78554223Y-63645777D01*
G04 #@! TO.N,/CPU/BUFFER_OE*
X64550012Y-77700000D02*
X67600054Y-77700000D01*
X78932319Y-65300000D02*
X80150000Y-65300000D01*
X77623008Y-67174996D02*
X77623008Y-66609311D01*
X80150000Y-65300000D02*
X82600000Y-62850000D01*
X91634315Y-62850000D02*
X92200000Y-62850000D01*
X77623008Y-66609311D02*
X78932319Y-65300000D01*
X82600000Y-62850000D02*
X91634315Y-62850000D01*
G04 #@! TO.N,/SPI_SCK*
X65650000Y-68000000D02*
X71399998Y-68000000D01*
X78825012Y-64424988D02*
X79134315Y-64424988D01*
X77850000Y-65000000D02*
X78250000Y-65000000D01*
X79134315Y-64424988D02*
X79700000Y-64424988D01*
X78250000Y-65000000D02*
X78825012Y-64424988D01*
G04 #@! TO.N,/CPU/U3_TX*
X154000000Y-114500000D02*
X154000000Y-113934315D01*
X154000000Y-113934315D02*
X154000000Y-86000000D01*
X103804288Y-55925001D02*
X103704287Y-55825000D01*
X110950000Y-55900000D02*
X110924999Y-55925001D01*
X110924999Y-55925001D02*
X103804288Y-55925001D01*
G04 #@! TO.N,/CPU/U3_RX*
X109750000Y-54750000D02*
X109750000Y-55150000D01*
X104902998Y-52100000D02*
X107100000Y-52100000D01*
X102900000Y-54102998D02*
X104902998Y-52100000D01*
X102900000Y-55150000D02*
X102900000Y-54102998D01*
X107100000Y-52100000D02*
X109750000Y-54750000D01*
G04 #@! TO.N,/CPU/DIG_IN_2*
X95650001Y-63149999D02*
X97250001Y-61549999D01*
X95650001Y-65599999D02*
X95650001Y-63149999D01*
X95100000Y-66150000D02*
X95650001Y-65599999D01*
X89820877Y-65924999D02*
X90045878Y-66150000D01*
X97250001Y-61549999D02*
X97650000Y-61150000D01*
X90045878Y-66150000D02*
X95100000Y-66150000D01*
X78400000Y-68450000D02*
X79850000Y-68450000D01*
X77050000Y-69800000D02*
X78400000Y-68450000D01*
X82375001Y-65924999D02*
X89820877Y-65924999D01*
X79850000Y-68450000D02*
X82375001Y-65924999D01*
X77050000Y-75600000D02*
X77050000Y-69800000D01*
G04 #@! TO.N,/CPU/DIG_IN_1*
X93550000Y-60850000D02*
X94100000Y-60300000D01*
X79915685Y-67450000D02*
X82065675Y-65300010D01*
X89903008Y-65300010D02*
X90202998Y-65600000D01*
X93550000Y-64900000D02*
X93550000Y-60850000D01*
X79350000Y-67450000D02*
X79915685Y-67450000D01*
X82065675Y-65300010D02*
X89903008Y-65300010D01*
X90202998Y-65600000D02*
X92850000Y-65600000D01*
X98600000Y-60450000D02*
X98800000Y-60650000D01*
X92850000Y-65600000D02*
X93550000Y-64900000D01*
D23*
X98529999Y-60379999D02*
X98800000Y-60650000D01*
X94254990Y-60145010D02*
X95855408Y-60145010D01*
X95855408Y-60145010D02*
X96160398Y-60450000D01*
X96160398Y-60450000D02*
X97210398Y-60450000D01*
X94100000Y-60300000D02*
X94254990Y-60145010D01*
X97210398Y-60450000D02*
X97280399Y-60379999D01*
X97280399Y-60379999D02*
X98529999Y-60379999D01*
D22*
G04 #@! TO.N,/CPU/DIG_IN_0*
X99900000Y-60650000D02*
X99900000Y-62248469D01*
X99900000Y-62248469D02*
X99895621Y-62252848D01*
X90400000Y-62000000D02*
X89500000Y-61100000D01*
X73250000Y-65652998D02*
X73250000Y-69384309D01*
X73250000Y-69384309D02*
X73250000Y-69949994D01*
X75702998Y-63200000D02*
X73250000Y-65652998D01*
X78294988Y-63200000D02*
X75702998Y-63200000D01*
X89500000Y-61100000D02*
X80394988Y-61100000D01*
X80394988Y-61100000D02*
X78294988Y-63200000D01*
G04 #@! TD*
D25*
G04 #@! TO.N,+3V3*
G36*
X78400000Y-99900000D02*
X78183001Y-99900000D01*
X77979198Y-99763823D01*
X77549999Y-99678450D01*
X77120801Y-99763823D01*
X76916998Y-99900000D01*
X71500000Y-99900000D01*
X71461732Y-99907612D01*
X71429289Y-99929289D01*
X71407612Y-99961732D01*
X71400000Y-100000000D01*
X71400000Y-110150000D01*
X59850000Y-110150000D01*
X59850000Y-94850000D01*
X78400000Y-94850000D01*
X78400000Y-99900000D01*
X78400000Y-99900000D01*
G37*
X78400000Y-99900000D02*
X78183001Y-99900000D01*
X77979198Y-99763823D01*
X77549999Y-99678450D01*
X77120801Y-99763823D01*
X76916998Y-99900000D01*
X71500000Y-99900000D01*
X71461732Y-99907612D01*
X71429289Y-99929289D01*
X71407612Y-99961732D01*
X71400000Y-100000000D01*
X71400000Y-110150000D01*
X59850000Y-110150000D01*
X59850000Y-94850000D01*
X78400000Y-94850000D01*
X78400000Y-99900000D01*
D22*
G04 #@! TO.N,GND*
G36*
X70687698Y-48534495D02*
X70683431Y-48537347D01*
X70473244Y-48537347D01*
X70170022Y-48662946D01*
X69937946Y-48895022D01*
X69812347Y-49198244D01*
X69812347Y-49526450D01*
X69937946Y-49829672D01*
X69983274Y-49875000D01*
X69950599Y-49907675D01*
X69825000Y-50210897D01*
X69825000Y-50539103D01*
X69950599Y-50842325D01*
X70182675Y-51074401D01*
X70485897Y-51200000D01*
X70814103Y-51200000D01*
X71117325Y-51074401D01*
X71175000Y-51016726D01*
X71232675Y-51074401D01*
X71535897Y-51200000D01*
X71864103Y-51200000D01*
X72167325Y-51074401D01*
X72399401Y-50842325D01*
X72525000Y-50539103D01*
X72525000Y-50327817D01*
X72527211Y-50325606D01*
X72527213Y-50325603D01*
X73306529Y-49546287D01*
X73325599Y-49592325D01*
X73483121Y-49749847D01*
X73312946Y-49920022D01*
X73187347Y-50223244D01*
X73187347Y-50551450D01*
X73312946Y-50854672D01*
X73545022Y-51086748D01*
X73555921Y-51091262D01*
X71287487Y-53359697D01*
X71007675Y-53475599D01*
X70997703Y-53485571D01*
X67983707Y-50471576D01*
X68006408Y-50456408D01*
X68100341Y-50315827D01*
X68133326Y-50150000D01*
X68133326Y-48450000D01*
X68100341Y-48284173D01*
X68006408Y-48143592D01*
X67865827Y-48049659D01*
X67700000Y-48016674D01*
X66000000Y-48016674D01*
X65834173Y-48049659D01*
X65693592Y-48143592D01*
X65599659Y-48284173D01*
X65566674Y-48450000D01*
X65566674Y-48572425D01*
X65497815Y-48425503D01*
X65072742Y-48037513D01*
X64663372Y-47867955D01*
X64435000Y-47987188D01*
X64435000Y-49175000D01*
X64455000Y-49175000D01*
X64455000Y-49425000D01*
X64435000Y-49425000D01*
X64435000Y-49445000D01*
X64185000Y-49445000D01*
X64185000Y-49425000D01*
X64165000Y-49425000D01*
X64165000Y-49175000D01*
X64185000Y-49175000D01*
X64185000Y-47987188D01*
X63956628Y-47867955D01*
X63547258Y-48037513D01*
X63122185Y-48425503D01*
X62956014Y-48780057D01*
X62689223Y-48380777D01*
X62267480Y-48098977D01*
X61895573Y-48025000D01*
X61644427Y-48025000D01*
X61272520Y-48098977D01*
X60850777Y-48380777D01*
X60568977Y-48802520D01*
X60500000Y-49149291D01*
X60431023Y-48802520D01*
X60149223Y-48380777D01*
X59727480Y-48098977D01*
X59355573Y-48025000D01*
X59104427Y-48025000D01*
X58732520Y-48098977D01*
X58310777Y-48380777D01*
X58028977Y-48802520D01*
X57960000Y-49149291D01*
X57891023Y-48802520D01*
X57609223Y-48380777D01*
X57187480Y-48098977D01*
X56815573Y-48025000D01*
X56564427Y-48025000D01*
X56192520Y-48098977D01*
X55770777Y-48380777D01*
X55488977Y-48802520D01*
X55420000Y-49149291D01*
X55351023Y-48802520D01*
X55069223Y-48380777D01*
X54647480Y-48098977D01*
X54275573Y-48025000D01*
X54024427Y-48025000D01*
X53652520Y-48098977D01*
X53230777Y-48380777D01*
X52963986Y-48780057D01*
X52797815Y-48425503D01*
X52372742Y-48037513D01*
X51963372Y-47867955D01*
X51735000Y-47987188D01*
X51735000Y-49175000D01*
X51755000Y-49175000D01*
X51755000Y-49425000D01*
X51735000Y-49425000D01*
X51735000Y-49445000D01*
X51485000Y-49445000D01*
X51485000Y-49425000D01*
X51465000Y-49425000D01*
X51465000Y-49175000D01*
X51485000Y-49175000D01*
X51485000Y-47987188D01*
X51256628Y-47867955D01*
X50847258Y-48037513D01*
X50422185Y-48425503D01*
X50256014Y-48780057D01*
X49989223Y-48380777D01*
X49567480Y-48098977D01*
X49195573Y-48025000D01*
X48944427Y-48025000D01*
X48572520Y-48098977D01*
X48150777Y-48380777D01*
X47868977Y-48802520D01*
X47770022Y-49300000D01*
X47868977Y-49797480D01*
X48150777Y-50219223D01*
X48572520Y-50501023D01*
X48944427Y-50575000D01*
X49195573Y-50575000D01*
X49505529Y-50513346D01*
X49817789Y-50825606D01*
X49848473Y-50871529D01*
X49894395Y-50902213D01*
X50030400Y-50993089D01*
X50030401Y-50993089D01*
X50030402Y-50993090D01*
X50190831Y-51025001D01*
X50245000Y-51035776D01*
X50299169Y-51025001D01*
X59497185Y-51025001D01*
X60197806Y-51725623D01*
X60228492Y-51771548D01*
X60410421Y-51893109D01*
X60570850Y-51925020D01*
X60625019Y-51935795D01*
X60679188Y-51925020D01*
X66397204Y-51925020D01*
X70197786Y-55725603D01*
X70228472Y-55771528D01*
X70410401Y-55893089D01*
X70570830Y-55925000D01*
X70570831Y-55925000D01*
X70625000Y-55935775D01*
X70679169Y-55925000D01*
X77358274Y-55925000D01*
X77507675Y-56074401D01*
X77810897Y-56200000D01*
X78022184Y-56200000D01*
X78597183Y-56775000D01*
X66929065Y-56775000D01*
X66849401Y-56582675D01*
X66617325Y-56350599D01*
X66314103Y-56225000D01*
X65985897Y-56225000D01*
X65682675Y-56350599D01*
X65450599Y-56582675D01*
X65325000Y-56885897D01*
X65325000Y-57214103D01*
X65350225Y-57275001D01*
X65091725Y-57275001D01*
X64942324Y-57125600D01*
X64639102Y-57000001D01*
X64310896Y-57000001D01*
X64007674Y-57125600D01*
X63775598Y-57357676D01*
X63649999Y-57660898D01*
X63649999Y-57989104D01*
X63775598Y-58292326D01*
X64007674Y-58524402D01*
X64310896Y-58650001D01*
X64639102Y-58650001D01*
X64942324Y-58524402D01*
X65091725Y-58375001D01*
X76144742Y-58375001D01*
X75987513Y-58547258D01*
X75817955Y-58956628D01*
X75937188Y-59185000D01*
X77125000Y-59185000D01*
X77125000Y-59165000D01*
X77375000Y-59165000D01*
X77375000Y-59185000D01*
X78562812Y-59185000D01*
X78682045Y-58956628D01*
X78512487Y-58547258D01*
X78355258Y-58375001D01*
X90597185Y-58375001D01*
X91325000Y-59102817D01*
X91325000Y-59175000D01*
X91235897Y-59175000D01*
X90932675Y-59300599D01*
X90700599Y-59532675D01*
X90575000Y-59835897D01*
X90575000Y-60047184D01*
X90572184Y-60050000D01*
X78521907Y-60050000D01*
X78682045Y-59663372D01*
X78562812Y-59435000D01*
X77375000Y-59435000D01*
X77375000Y-59455000D01*
X77125000Y-59455000D01*
X77125000Y-59435000D01*
X75937188Y-59435000D01*
X75817955Y-59663372D01*
X75978093Y-60050000D01*
X73016726Y-60050000D01*
X72867325Y-59900599D01*
X72564103Y-59775000D01*
X72235897Y-59775000D01*
X71932675Y-59900599D01*
X71700599Y-60132675D01*
X71575000Y-60435897D01*
X71575000Y-60764103D01*
X71700599Y-61067325D01*
X71932675Y-61299401D01*
X72235897Y-61425000D01*
X72564103Y-61425000D01*
X72867325Y-61299401D01*
X73016726Y-61150000D01*
X75966674Y-61150000D01*
X75966674Y-62650000D01*
X75757166Y-62650000D01*
X75702997Y-62639225D01*
X75648828Y-62650000D01*
X75488399Y-62681911D01*
X75306470Y-62803472D01*
X75275785Y-62849396D01*
X72899400Y-65225782D01*
X72853472Y-65256470D01*
X72731911Y-65438400D01*
X72706511Y-65566096D01*
X72689225Y-65652998D01*
X72700000Y-65707167D01*
X72700001Y-69330135D01*
X72700000Y-69330140D01*
X72700000Y-69333268D01*
X72550599Y-69482669D01*
X72425000Y-69785891D01*
X72425000Y-70114097D01*
X72550599Y-70417319D01*
X72782675Y-70649395D01*
X73085897Y-70774994D01*
X73414103Y-70774994D01*
X73717325Y-70649395D01*
X73949401Y-70417319D01*
X74075000Y-70114097D01*
X74075000Y-69785891D01*
X73949401Y-69482669D01*
X73800000Y-69333268D01*
X73800000Y-65880814D01*
X75930815Y-63750000D01*
X76475553Y-63750000D01*
X76363531Y-64020445D01*
X76363531Y-64348651D01*
X76489130Y-64651873D01*
X76721206Y-64883949D01*
X77024428Y-65009548D01*
X77025000Y-65009548D01*
X77025000Y-65164103D01*
X77150599Y-65467325D01*
X77382675Y-65699401D01*
X77646020Y-65808482D01*
X77272406Y-66182097D01*
X77226481Y-66212783D01*
X77104920Y-66394712D01*
X77074722Y-66546527D01*
X77072231Y-66559047D01*
X76923607Y-66707671D01*
X76798008Y-67010893D01*
X76798008Y-67339099D01*
X76923607Y-67642321D01*
X77155683Y-67874397D01*
X77458905Y-67999996D01*
X77787111Y-67999996D01*
X78090333Y-67874397D01*
X78322409Y-67642321D01*
X78448008Y-67339099D01*
X78448008Y-67010893D01*
X78322409Y-66707671D01*
X78312437Y-66697699D01*
X78525000Y-66485136D01*
X78525000Y-66564099D01*
X78650599Y-66867321D01*
X78708276Y-66924998D01*
X78650599Y-66982675D01*
X78525000Y-67285897D01*
X78525000Y-67614103D01*
X78643423Y-67900000D01*
X78454168Y-67900000D01*
X78399999Y-67889225D01*
X78345830Y-67900000D01*
X78185401Y-67931911D01*
X78185400Y-67931912D01*
X78185399Y-67931912D01*
X78180176Y-67935402D01*
X78003472Y-68053472D01*
X77972787Y-68099396D01*
X76699398Y-69372786D01*
X76653473Y-69403472D01*
X76555566Y-69550000D01*
X76531912Y-69585401D01*
X76489225Y-69800000D01*
X76500001Y-69854174D01*
X76500000Y-74983274D01*
X76493686Y-74989588D01*
X76449401Y-74882675D01*
X76217325Y-74650599D01*
X75914103Y-74525000D01*
X75585897Y-74525000D01*
X75282675Y-74650599D01*
X75050599Y-74882675D01*
X74925000Y-75185897D01*
X74925000Y-75397183D01*
X74522174Y-75800010D01*
X70777806Y-75800010D01*
X75002817Y-71575000D01*
X75214103Y-71575000D01*
X75517325Y-71449401D01*
X75749401Y-71217325D01*
X75875000Y-70914103D01*
X75875000Y-70585897D01*
X75749401Y-70282675D01*
X75517325Y-70050599D01*
X75214103Y-69925000D01*
X74885897Y-69925000D01*
X74582675Y-70050599D01*
X74350599Y-70282675D01*
X74225000Y-70585897D01*
X74225000Y-70797183D01*
X69722184Y-75300000D01*
X67416726Y-75300000D01*
X67499401Y-75217325D01*
X67625000Y-74914103D01*
X67625000Y-74585897D01*
X67499401Y-74282675D01*
X67267325Y-74050599D01*
X66964103Y-73925000D01*
X66929594Y-73925000D01*
X66324309Y-73319716D01*
X66286648Y-73263352D01*
X66063372Y-73114164D01*
X65866481Y-73075000D01*
X65800000Y-73061776D01*
X65740364Y-73073638D01*
X65717325Y-73050599D01*
X65414103Y-72925000D01*
X65085897Y-72925000D01*
X64782675Y-73050599D01*
X64550599Y-73282675D01*
X64425000Y-73585897D01*
X64425000Y-73914103D01*
X64550599Y-74217325D01*
X64782675Y-74449401D01*
X65085897Y-74575000D01*
X65414103Y-74575000D01*
X65595337Y-74499930D01*
X65975000Y-74879594D01*
X65975000Y-74914103D01*
X66100599Y-75217325D01*
X66183274Y-75300000D01*
X59654155Y-75300000D01*
X59599986Y-75289225D01*
X59545817Y-75300000D01*
X59385388Y-75331911D01*
X59203459Y-75453472D01*
X59172774Y-75499396D01*
X58097171Y-76575000D01*
X57885884Y-76575000D01*
X57582662Y-76700599D01*
X57350586Y-76932675D01*
X57224987Y-77235897D01*
X57224987Y-77564103D01*
X57350586Y-77867325D01*
X57582662Y-78099401D01*
X57885884Y-78225000D01*
X58214090Y-78225000D01*
X58517312Y-78099401D01*
X58624994Y-77991720D01*
X58677728Y-78044454D01*
X56249400Y-80472784D01*
X56203472Y-80503472D01*
X56081911Y-80685402D01*
X56056973Y-80810775D01*
X56039225Y-80900000D01*
X56050000Y-80954169D01*
X56050001Y-82133273D01*
X55900599Y-82282675D01*
X55775000Y-82585897D01*
X55775000Y-82914103D01*
X55900599Y-83217325D01*
X56132675Y-83449401D01*
X56435897Y-83575000D01*
X56764103Y-83575000D01*
X57067325Y-83449401D01*
X57299401Y-83217325D01*
X57425000Y-82914103D01*
X57425000Y-82585897D01*
X57299401Y-82282675D01*
X57150000Y-82133274D01*
X57150000Y-81127816D01*
X59552817Y-78725001D01*
X59620830Y-78725001D01*
X59674999Y-78735776D01*
X59725000Y-78725830D01*
X59725000Y-78764103D01*
X59850599Y-79067325D01*
X60000000Y-79216726D01*
X60000000Y-79219854D01*
X60000001Y-79219859D01*
X60000001Y-79720936D01*
X59889103Y-79675000D01*
X59560897Y-79675000D01*
X59257675Y-79800599D01*
X59025599Y-80032675D01*
X58900000Y-80335897D01*
X58900000Y-80664103D01*
X59025599Y-80967325D01*
X59150000Y-81091726D01*
X59150001Y-86922182D01*
X55372184Y-90700000D01*
X46716726Y-90700000D01*
X46567325Y-90550599D01*
X46264103Y-90425000D01*
X45935897Y-90425000D01*
X45632675Y-90550599D01*
X45400599Y-90782675D01*
X45275000Y-91085897D01*
X45275000Y-91414103D01*
X45400599Y-91717325D01*
X45632675Y-91949401D01*
X45935897Y-92075000D01*
X46264103Y-92075000D01*
X46567325Y-91949401D01*
X46716726Y-91800000D01*
X55172184Y-91800000D01*
X54272184Y-92700000D01*
X46716726Y-92700000D01*
X46567325Y-92550599D01*
X46264103Y-92425000D01*
X45935897Y-92425000D01*
X45632675Y-92550599D01*
X45400599Y-92782675D01*
X45275000Y-93085897D01*
X45275000Y-93414103D01*
X45400599Y-93717325D01*
X45632675Y-93949401D01*
X45935897Y-94075000D01*
X46264103Y-94075000D01*
X46567325Y-93949401D01*
X46716726Y-93800000D01*
X51597183Y-93800000D01*
X50322184Y-95075000D01*
X50110897Y-95075000D01*
X49807675Y-95200599D01*
X49575599Y-95432675D01*
X49450000Y-95735897D01*
X49450000Y-96064103D01*
X49575599Y-96367325D01*
X49807675Y-96599401D01*
X50110897Y-96725000D01*
X50439103Y-96725000D01*
X50742325Y-96599401D01*
X50974401Y-96367325D01*
X51100000Y-96064103D01*
X51100000Y-95852816D01*
X52402817Y-94550000D01*
X54545831Y-94550000D01*
X54600000Y-94560775D01*
X54654169Y-94550000D01*
X54654170Y-94550000D01*
X54814599Y-94518089D01*
X54996528Y-94396528D01*
X55027216Y-94350600D01*
X58625000Y-90752817D01*
X58625000Y-91039103D01*
X58750599Y-91342325D01*
X58982675Y-91574401D01*
X59285897Y-91700000D01*
X59614103Y-91700000D01*
X59917325Y-91574401D01*
X60149401Y-91342325D01*
X60275000Y-91039103D01*
X60275000Y-90710897D01*
X60149401Y-90407675D01*
X60000000Y-90258274D01*
X60000000Y-90227816D01*
X64502816Y-85725001D01*
X65872181Y-85725001D01*
X57399400Y-94197784D01*
X57353472Y-94228472D01*
X57231911Y-94410402D01*
X57210491Y-94518088D01*
X57189225Y-94625000D01*
X57200000Y-94679169D01*
X57200001Y-98783273D01*
X57050599Y-98932675D01*
X56925000Y-99235897D01*
X56925000Y-99564103D01*
X57050599Y-99867325D01*
X57282675Y-100099401D01*
X57585897Y-100225000D01*
X57914103Y-100225000D01*
X58025001Y-100179065D01*
X58025001Y-102622182D01*
X57797183Y-102850000D01*
X57585897Y-102850000D01*
X57282675Y-102975599D01*
X57050599Y-103207675D01*
X56925000Y-103510897D01*
X56925000Y-103839103D01*
X56981291Y-103975000D01*
X56447592Y-103975000D01*
X49298285Y-96825694D01*
X49244047Y-96789454D01*
X47924309Y-95469716D01*
X47886648Y-95413352D01*
X47663372Y-95264164D01*
X47466481Y-95225000D01*
X47400000Y-95211776D01*
X47333519Y-95225000D01*
X40179594Y-95225000D01*
X39125000Y-94170407D01*
X39125000Y-94135897D01*
X38999401Y-93832675D01*
X38767325Y-93600599D01*
X38464103Y-93475000D01*
X38135897Y-93475000D01*
X37832675Y-93600599D01*
X37600599Y-93832675D01*
X37475000Y-94135897D01*
X37475000Y-94464103D01*
X37600599Y-94767325D01*
X37832675Y-94999401D01*
X38135897Y-95125000D01*
X38170407Y-95125000D01*
X39375692Y-96330286D01*
X39413352Y-96386648D01*
X39529272Y-96464103D01*
X39636628Y-96535836D01*
X39900000Y-96588224D01*
X39966481Y-96575000D01*
X47120407Y-96575000D01*
X48419712Y-97874306D01*
X48473955Y-97910550D01*
X55643691Y-105080287D01*
X55681350Y-105136648D01*
X55904626Y-105285836D01*
X56167997Y-105338224D01*
X56234478Y-105325000D01*
X59125000Y-105325000D01*
X59125000Y-110250000D01*
X59172575Y-110489177D01*
X59308058Y-110691942D01*
X59510823Y-110827425D01*
X59750000Y-110875000D01*
X71500000Y-110875000D01*
X71739177Y-110827425D01*
X71941942Y-110691942D01*
X72077425Y-110489177D01*
X72125000Y-110250000D01*
X72125000Y-100625000D01*
X76416853Y-100625000D01*
X76210344Y-100831509D01*
X76133113Y-100883113D01*
X75928670Y-101189084D01*
X75875000Y-101458901D01*
X75875000Y-101458904D01*
X75856880Y-101550000D01*
X75875000Y-101641096D01*
X75875001Y-109500225D01*
X75814103Y-109475000D01*
X75485897Y-109475000D01*
X75182675Y-109600599D01*
X74950599Y-109832675D01*
X74825000Y-110135897D01*
X74825000Y-110464103D01*
X74950599Y-110767325D01*
X74983274Y-110800000D01*
X74950599Y-110832675D01*
X74825000Y-111135897D01*
X74825000Y-111464103D01*
X74950599Y-111767325D01*
X75182675Y-111999401D01*
X75485897Y-112125000D01*
X75814103Y-112125000D01*
X75875001Y-112099775D01*
X75875001Y-116008899D01*
X75856880Y-116100000D01*
X75928670Y-116460916D01*
X76081509Y-116689656D01*
X76081511Y-116689658D01*
X76133114Y-116766887D01*
X76210342Y-116818489D01*
X77875000Y-118483148D01*
X77875000Y-118666674D01*
X77600000Y-118666674D01*
X77434173Y-118699659D01*
X77293592Y-118793592D01*
X77199659Y-118934173D01*
X77166674Y-119100000D01*
X77166674Y-121500000D01*
X77199659Y-121665827D01*
X77293592Y-121806408D01*
X77434173Y-121900341D01*
X77600000Y-121933326D01*
X80000000Y-121933326D01*
X80165827Y-121900341D01*
X80306408Y-121806408D01*
X80325122Y-121778399D01*
X133575000Y-121778399D01*
X133575000Y-123021601D01*
X134050753Y-124170170D01*
X134929830Y-125049247D01*
X136078399Y-125525000D01*
X137321601Y-125525000D01*
X138470170Y-125049247D01*
X139349247Y-124170170D01*
X139825000Y-123021601D01*
X139825000Y-121778399D01*
X139349247Y-120629830D01*
X139225749Y-120506332D01*
X145525000Y-120506332D01*
X145525000Y-120993668D01*
X145711495Y-121443907D01*
X146056093Y-121788505D01*
X146506332Y-121975000D01*
X146993668Y-121975000D01*
X147443907Y-121788505D01*
X147788505Y-121443907D01*
X147975000Y-120993668D01*
X147975000Y-120506332D01*
X147788505Y-120056093D01*
X147443907Y-119711495D01*
X146993668Y-119525000D01*
X146506332Y-119525000D01*
X146056093Y-119711495D01*
X145711495Y-120056093D01*
X145525000Y-120506332D01*
X139225749Y-120506332D01*
X138470170Y-119750753D01*
X137321601Y-119275000D01*
X136078399Y-119275000D01*
X134929830Y-119750753D01*
X134050753Y-120629830D01*
X133575000Y-121778399D01*
X80325122Y-121778399D01*
X80400341Y-121665827D01*
X80433326Y-121500000D01*
X80433326Y-120106332D01*
X95125000Y-120106332D01*
X95125000Y-120593668D01*
X95311495Y-121043907D01*
X95656093Y-121388505D01*
X96106332Y-121575000D01*
X96593668Y-121575000D01*
X97043907Y-121388505D01*
X97388505Y-121043907D01*
X97575000Y-120593668D01*
X97575000Y-120106332D01*
X97388505Y-119656093D01*
X97043907Y-119311495D01*
X96593668Y-119125000D01*
X96106332Y-119125000D01*
X95656093Y-119311495D01*
X95311495Y-119656093D01*
X95125000Y-120106332D01*
X80433326Y-120106332D01*
X80433326Y-119100000D01*
X80400341Y-118934173D01*
X80306408Y-118793592D01*
X80165827Y-118699659D01*
X80000000Y-118666674D01*
X79725000Y-118666674D01*
X79725000Y-118191095D01*
X79743120Y-118099999D01*
X79725000Y-118008901D01*
X79725000Y-118008900D01*
X79671330Y-117739083D01*
X79466887Y-117433113D01*
X79389659Y-117381511D01*
X79124779Y-117116631D01*
X79213889Y-117114139D01*
X79790126Y-116875454D01*
X79913632Y-116590409D01*
X78800000Y-115476777D01*
X78785858Y-115490919D01*
X78609081Y-115314142D01*
X78623223Y-115300000D01*
X78976777Y-115300000D01*
X80090409Y-116413632D01*
X80375454Y-116290126D01*
X80634434Y-115611857D01*
X80614139Y-114886111D01*
X80375454Y-114309874D01*
X80090409Y-114186368D01*
X78976777Y-115300000D01*
X78623223Y-115300000D01*
X78609081Y-115285858D01*
X78785858Y-115109081D01*
X78800000Y-115123223D01*
X79913632Y-114009591D01*
X79790126Y-113724546D01*
X79111857Y-113465566D01*
X78386111Y-113485861D01*
X77809874Y-113724546D01*
X77725000Y-113920430D01*
X77725000Y-111079065D01*
X77835897Y-111125000D01*
X78164103Y-111125000D01*
X78467325Y-110999401D01*
X78616726Y-110850000D01*
X83695831Y-110850000D01*
X83750000Y-110860775D01*
X83804169Y-110850000D01*
X83804170Y-110850000D01*
X83964599Y-110818089D01*
X84146528Y-110696528D01*
X84177217Y-110650599D01*
X86702817Y-108125000D01*
X86914103Y-108125000D01*
X87217325Y-107999401D01*
X87449401Y-107767325D01*
X87575000Y-107464103D01*
X87575000Y-107135897D01*
X87449401Y-106832675D01*
X87217325Y-106600599D01*
X86914103Y-106475000D01*
X86585897Y-106475000D01*
X86282675Y-106600599D01*
X86050599Y-106832675D01*
X85925000Y-107135897D01*
X85925000Y-107347183D01*
X83522184Y-109750000D01*
X78616726Y-109750000D01*
X78467325Y-109600599D01*
X78164103Y-109475000D01*
X77835897Y-109475000D01*
X77725000Y-109520935D01*
X77725000Y-102385897D01*
X83875000Y-102385897D01*
X83875000Y-102714103D01*
X84000599Y-103017325D01*
X84025001Y-103041727D01*
X84025000Y-106358274D01*
X84000599Y-106382675D01*
X83875000Y-106685897D01*
X83875000Y-107014103D01*
X84000599Y-107317325D01*
X84232675Y-107549401D01*
X84535897Y-107675000D01*
X84864103Y-107675000D01*
X85167325Y-107549401D01*
X85399401Y-107317325D01*
X85525000Y-107014103D01*
X85525000Y-106685897D01*
X85399401Y-106382675D01*
X85375000Y-106358274D01*
X85375000Y-103041726D01*
X85399401Y-103017325D01*
X85525000Y-102714103D01*
X85525000Y-102385897D01*
X85399401Y-102082675D01*
X85167325Y-101850599D01*
X84864103Y-101725000D01*
X84535897Y-101725000D01*
X84232675Y-101850599D01*
X84000599Y-102082675D01*
X83875000Y-102385897D01*
X77725000Y-102385897D01*
X77725000Y-101933147D01*
X78268491Y-101389657D01*
X78421330Y-101160917D01*
X78493120Y-100800001D01*
X78458311Y-100625000D01*
X78500000Y-100625000D01*
X78739177Y-100577425D01*
X78941942Y-100441942D01*
X79077425Y-100239177D01*
X79125000Y-100000000D01*
X79125000Y-95435897D01*
X86725000Y-95435897D01*
X86725000Y-95764103D01*
X86850599Y-96067325D01*
X87000000Y-96216726D01*
X87000001Y-99183273D01*
X86850599Y-99332675D01*
X86725000Y-99635897D01*
X86725000Y-99964103D01*
X86850599Y-100267325D01*
X87082675Y-100499401D01*
X87385897Y-100625000D01*
X87714103Y-100625000D01*
X88000001Y-100506577D01*
X88000001Y-100733273D01*
X87900599Y-100832675D01*
X87775000Y-101135897D01*
X87775000Y-101464103D01*
X87900599Y-101767325D01*
X88132675Y-101999401D01*
X88435897Y-102125000D01*
X88764103Y-102125000D01*
X88874996Y-102079066D01*
X88874996Y-102264099D01*
X89000595Y-102567321D01*
X89232671Y-102799397D01*
X89535893Y-102924996D01*
X89864099Y-102924996D01*
X90167321Y-102799397D01*
X90399397Y-102567321D01*
X90524996Y-102264099D01*
X90524996Y-102229248D01*
X90635836Y-102063364D01*
X90665514Y-101914164D01*
X90688224Y-101799992D01*
X90675000Y-101733511D01*
X90675000Y-98091726D01*
X90699401Y-98067325D01*
X90825000Y-97764103D01*
X90825000Y-97535897D01*
X102825000Y-97535897D01*
X102825000Y-97864103D01*
X102950599Y-98167325D01*
X103100001Y-98316727D01*
X103100000Y-102133274D01*
X102950599Y-102282675D01*
X102825000Y-102585897D01*
X102825000Y-102914103D01*
X102950599Y-103217325D01*
X103182675Y-103449401D01*
X103485897Y-103575000D01*
X103814103Y-103575000D01*
X104117325Y-103449401D01*
X104225000Y-103341726D01*
X104332675Y-103449401D01*
X104635897Y-103575000D01*
X104964103Y-103575000D01*
X105267325Y-103449401D01*
X105499401Y-103217325D01*
X105625000Y-102914103D01*
X105625000Y-102585897D01*
X105499401Y-102282675D01*
X105350000Y-102133274D01*
X105350000Y-98485897D01*
X125425000Y-98485897D01*
X125425000Y-98814103D01*
X125550599Y-99117325D01*
X125700000Y-99266726D01*
X125700001Y-101983277D01*
X125550603Y-102132675D01*
X125425004Y-102435897D01*
X125425004Y-102764103D01*
X125550603Y-103067325D01*
X125782679Y-103299401D01*
X126085901Y-103425000D01*
X126414107Y-103425000D01*
X126717329Y-103299401D01*
X126949405Y-103067325D01*
X127075004Y-102764103D01*
X127075004Y-102435897D01*
X126949405Y-102132675D01*
X126800000Y-101983270D01*
X126800000Y-99266726D01*
X126949401Y-99117325D01*
X127075000Y-98814103D01*
X127075000Y-98485897D01*
X126949401Y-98182675D01*
X126717325Y-97950599D01*
X126414103Y-97825000D01*
X126085897Y-97825000D01*
X125782675Y-97950599D01*
X125550599Y-98182675D01*
X125425000Y-98485897D01*
X105350000Y-98485897D01*
X105350000Y-98316726D01*
X105499401Y-98167325D01*
X105625000Y-97864103D01*
X105625000Y-97535897D01*
X105499401Y-97232675D01*
X105267325Y-97000599D01*
X104964103Y-96875000D01*
X104635897Y-96875000D01*
X104332675Y-97000599D01*
X104225000Y-97108274D01*
X104117325Y-97000599D01*
X103814103Y-96875000D01*
X103485897Y-96875000D01*
X103182675Y-97000599D01*
X102950599Y-97232675D01*
X102825000Y-97535897D01*
X90825000Y-97535897D01*
X90825000Y-97435897D01*
X90699401Y-97132675D01*
X90467325Y-96900599D01*
X90164103Y-96775000D01*
X89835897Y-96775000D01*
X89600000Y-96872712D01*
X89600000Y-96524458D01*
X89625000Y-96464103D01*
X89625000Y-96135897D01*
X89550510Y-95956061D01*
X95375000Y-95956061D01*
X95375000Y-96343939D01*
X95523435Y-96702293D01*
X95797707Y-96976565D01*
X96156061Y-97125000D01*
X96543939Y-97125000D01*
X96902293Y-96976565D01*
X97176565Y-96702293D01*
X97325000Y-96343939D01*
X97325000Y-95956061D01*
X97176565Y-95597707D01*
X96902293Y-95323435D01*
X96543939Y-95175000D01*
X96156061Y-95175000D01*
X95797707Y-95323435D01*
X95523435Y-95597707D01*
X95375000Y-95956061D01*
X89550510Y-95956061D01*
X89499401Y-95832675D01*
X89267325Y-95600599D01*
X88964103Y-95475000D01*
X88635897Y-95475000D01*
X88375000Y-95583067D01*
X88375000Y-95435897D01*
X88249401Y-95132675D01*
X88052623Y-94935897D01*
X132375000Y-94935897D01*
X132375000Y-95264103D01*
X132500599Y-95567325D01*
X132732675Y-95799401D01*
X133035897Y-95925000D01*
X133364103Y-95925000D01*
X133667325Y-95799401D01*
X133691726Y-95775000D01*
X135233519Y-95775000D01*
X135300000Y-95788224D01*
X135366481Y-95775000D01*
X135563372Y-95735836D01*
X135786648Y-95586648D01*
X135824309Y-95530284D01*
X137575007Y-93779587D01*
X137575006Y-94687629D01*
X137575006Y-94687630D01*
X137575007Y-97217830D01*
X137575006Y-97217835D01*
X137575006Y-97358274D01*
X137550605Y-97382675D01*
X137425006Y-97685897D01*
X137425006Y-98014103D01*
X137550605Y-98317325D01*
X137782681Y-98549401D01*
X138085903Y-98675000D01*
X138414109Y-98675000D01*
X138717331Y-98549401D01*
X138875003Y-98391729D01*
X138982675Y-98499401D01*
X139285897Y-98625000D01*
X139614103Y-98625000D01*
X139917325Y-98499401D01*
X140050000Y-98366726D01*
X140182675Y-98499401D01*
X140485897Y-98625000D01*
X140814103Y-98625000D01*
X141117325Y-98499401D01*
X141349401Y-98267325D01*
X141475000Y-97964103D01*
X141475000Y-97635897D01*
X141349401Y-97332675D01*
X141200000Y-97183274D01*
X141200000Y-94975000D01*
X141379796Y-94975000D01*
X141683018Y-94849401D01*
X141915094Y-94617325D01*
X142040693Y-94314103D01*
X142040693Y-94035897D01*
X144325000Y-94035897D01*
X144325000Y-94364103D01*
X144450599Y-94667325D01*
X144600001Y-94816727D01*
X144600000Y-98195831D01*
X144589225Y-98250000D01*
X144600000Y-98304169D01*
X144631911Y-98464598D01*
X144753472Y-98646528D01*
X144799400Y-98677216D01*
X144825000Y-98702816D01*
X144825000Y-98914103D01*
X144950599Y-99217325D01*
X145182675Y-99449401D01*
X145485897Y-99575000D01*
X145814103Y-99575000D01*
X146117325Y-99449401D01*
X146349401Y-99217325D01*
X146475000Y-98914103D01*
X146475000Y-98585897D01*
X146349401Y-98282675D01*
X146117325Y-98050599D01*
X145814103Y-97925000D01*
X145700000Y-97925000D01*
X145700000Y-95556061D01*
X145775000Y-95556061D01*
X145775000Y-95943939D01*
X145923435Y-96302293D01*
X146197707Y-96576565D01*
X146556061Y-96725000D01*
X146943939Y-96725000D01*
X147302293Y-96576565D01*
X147442961Y-96435897D01*
X147925000Y-96435897D01*
X147925000Y-96764103D01*
X148050599Y-97067325D01*
X148200000Y-97216726D01*
X148200001Y-97908273D01*
X148050599Y-98057675D01*
X147925000Y-98360897D01*
X147925000Y-98689103D01*
X148050599Y-98992325D01*
X148282675Y-99224401D01*
X148585897Y-99350000D01*
X148914103Y-99350000D01*
X149217325Y-99224401D01*
X149449401Y-98992325D01*
X149575000Y-98689103D01*
X149575000Y-98360897D01*
X149449401Y-98057675D01*
X149300000Y-97908274D01*
X149300000Y-97216726D01*
X149449401Y-97067325D01*
X149575000Y-96764103D01*
X149575000Y-96435897D01*
X149449401Y-96132675D01*
X149217325Y-95900599D01*
X148914103Y-95775000D01*
X148585897Y-95775000D01*
X148282675Y-95900599D01*
X148050599Y-96132675D01*
X147925000Y-96435897D01*
X147442961Y-96435897D01*
X147576565Y-96302293D01*
X147725000Y-95943939D01*
X147725000Y-95556061D01*
X147576565Y-95197707D01*
X147302293Y-94923435D01*
X146943939Y-94775000D01*
X146556061Y-94775000D01*
X146197707Y-94923435D01*
X145923435Y-95197707D01*
X145775000Y-95556061D01*
X145700000Y-95556061D01*
X145700000Y-94816726D01*
X145849401Y-94667325D01*
X145975000Y-94364103D01*
X145975000Y-94035897D01*
X145849401Y-93732675D01*
X145617325Y-93500599D01*
X145314103Y-93375000D01*
X144985897Y-93375000D01*
X144682675Y-93500599D01*
X144450599Y-93732675D01*
X144325000Y-94035897D01*
X142040693Y-94035897D01*
X142040693Y-93985897D01*
X141915094Y-93682675D01*
X141683018Y-93450599D01*
X141379796Y-93325000D01*
X141051590Y-93325000D01*
X140748368Y-93450599D01*
X140607847Y-93591121D01*
X140467325Y-93450599D01*
X140164103Y-93325000D01*
X140129420Y-93325000D01*
X140261648Y-93236648D01*
X140299309Y-93180284D01*
X146305289Y-87174305D01*
X146361647Y-87136648D01*
X146410610Y-87063371D01*
X146510836Y-86913372D01*
X146563224Y-86650000D01*
X146550000Y-86583519D01*
X146550000Y-83566726D01*
X146574401Y-83542325D01*
X146700000Y-83239103D01*
X146700000Y-82910897D01*
X146574401Y-82607675D01*
X146342325Y-82375599D01*
X146039103Y-82250000D01*
X145710897Y-82250000D01*
X145407675Y-82375599D01*
X145175599Y-82607675D01*
X145050000Y-82910897D01*
X145050000Y-83239103D01*
X145175599Y-83542325D01*
X145200001Y-83566727D01*
X145200000Y-86370406D01*
X140469202Y-91101205D01*
X140399396Y-90932678D01*
X140167320Y-90700602D01*
X139864098Y-90575003D01*
X139535892Y-90575003D01*
X139232670Y-90700602D01*
X139000594Y-90932678D01*
X138920931Y-91125002D01*
X138666479Y-91125002D01*
X138599998Y-91111778D01*
X138533517Y-91125002D01*
X138336626Y-91164166D01*
X138113350Y-91313354D01*
X138075691Y-91369715D01*
X135020407Y-94425000D01*
X133691726Y-94425000D01*
X133667325Y-94400599D01*
X133364103Y-94275000D01*
X133035897Y-94275000D01*
X132732675Y-94400599D01*
X132500599Y-94632675D01*
X132375000Y-94935897D01*
X88052623Y-94935897D01*
X88017325Y-94900599D01*
X87714103Y-94775000D01*
X87385897Y-94775000D01*
X87082675Y-94900599D01*
X86850599Y-95132675D01*
X86725000Y-95435897D01*
X79125000Y-95435897D01*
X79125000Y-94750000D01*
X79077425Y-94510823D01*
X78941942Y-94308058D01*
X78739177Y-94172575D01*
X78500000Y-94125000D01*
X59952816Y-94125000D01*
X62991919Y-91085897D01*
X85825000Y-91085897D01*
X85825000Y-91414103D01*
X85950599Y-91717325D01*
X86182675Y-91949401D01*
X86485897Y-92075000D01*
X86814103Y-92075000D01*
X87117325Y-91949401D01*
X87141726Y-91925000D01*
X90858274Y-91925000D01*
X90882675Y-91949401D01*
X91185897Y-92075000D01*
X91514103Y-92075000D01*
X91817325Y-91949401D01*
X92049401Y-91717325D01*
X92175000Y-91414103D01*
X92175000Y-91085897D01*
X92049401Y-90782675D01*
X91817325Y-90550599D01*
X91514103Y-90425000D01*
X91185897Y-90425000D01*
X90882675Y-90550599D01*
X90858274Y-90575000D01*
X87141726Y-90575000D01*
X87117325Y-90550599D01*
X86814103Y-90425000D01*
X86485897Y-90425000D01*
X86182675Y-90550599D01*
X85950599Y-90782675D01*
X85825000Y-91085897D01*
X62991919Y-91085897D01*
X67452796Y-86625021D01*
X85824972Y-86625021D01*
X87330037Y-86625019D01*
X87384210Y-86635795D01*
X87598809Y-86593108D01*
X87642035Y-86564225D01*
X87780738Y-86471547D01*
X87811424Y-86425622D01*
X90470923Y-83766124D01*
X90516845Y-83735440D01*
X90560170Y-83670600D01*
X90638406Y-83553512D01*
X90681093Y-83338913D01*
X90670317Y-83284740D01*
X90670319Y-82116727D01*
X91800000Y-80987047D01*
X91800000Y-81289101D01*
X91925599Y-81592323D01*
X92157675Y-81824399D01*
X92460897Y-81949998D01*
X92789103Y-81949998D01*
X93092325Y-81824399D01*
X93116726Y-81799998D01*
X99350001Y-81799998D01*
X99350000Y-84979722D01*
X99169714Y-85160008D01*
X99113353Y-85197667D01*
X98964164Y-85420943D01*
X98956370Y-85460127D01*
X98942481Y-85529953D01*
X98689103Y-85425000D01*
X98360897Y-85425000D01*
X98057675Y-85550599D01*
X97825599Y-85782675D01*
X97700000Y-86085897D01*
X97700000Y-86120407D01*
X97695407Y-86125000D01*
X89291726Y-86125000D01*
X89267325Y-86100599D01*
X88964103Y-85975000D01*
X88635897Y-85975000D01*
X88332675Y-86100599D01*
X88100599Y-86332675D01*
X87975000Y-86635897D01*
X87975000Y-86964103D01*
X88100599Y-87267325D01*
X88332675Y-87499401D01*
X88635897Y-87625000D01*
X88964103Y-87625000D01*
X89267325Y-87499401D01*
X89291726Y-87475000D01*
X97908519Y-87475000D01*
X97975000Y-87488224D01*
X98041481Y-87475000D01*
X98238372Y-87435836D01*
X98461648Y-87286648D01*
X98499309Y-87230284D01*
X98654593Y-87075000D01*
X98689103Y-87075000D01*
X98992325Y-86949401D01*
X99062500Y-86879226D01*
X99132675Y-86949401D01*
X99435897Y-87075000D01*
X99764103Y-87075000D01*
X100067325Y-86949401D01*
X100299401Y-86717325D01*
X100425000Y-86414103D01*
X100425000Y-86085897D01*
X100345336Y-85893572D01*
X100455286Y-85783622D01*
X100511647Y-85745963D01*
X100660836Y-85522687D01*
X100700000Y-85325796D01*
X100700000Y-85325795D01*
X100713224Y-85259315D01*
X100700000Y-85192834D01*
X100700000Y-81191480D01*
X100713224Y-81125000D01*
X100700000Y-81058519D01*
X100700000Y-80879593D01*
X100804594Y-80775000D01*
X101195407Y-80775000D01*
X101450692Y-81030286D01*
X101488352Y-81086648D01*
X101645246Y-81191481D01*
X101711628Y-81235836D01*
X101975000Y-81288224D01*
X102041481Y-81275000D01*
X102058274Y-81275000D01*
X102082675Y-81299401D01*
X102385897Y-81425000D01*
X102714103Y-81425000D01*
X103017325Y-81299401D01*
X103072163Y-81244563D01*
X103136991Y-81309391D01*
X103440213Y-81434990D01*
X103768419Y-81434990D01*
X104071641Y-81309391D01*
X104226042Y-81154990D01*
X106184245Y-81154990D01*
X106501670Y-81472416D01*
X106532077Y-81517923D01*
X106657704Y-81601864D01*
X106712350Y-81638378D01*
X106712351Y-81638378D01*
X106712352Y-81638379D01*
X106871323Y-81670000D01*
X106871326Y-81670000D01*
X106924999Y-81680676D01*
X106978672Y-81670000D01*
X108199255Y-81670000D01*
X108451670Y-81922416D01*
X108482077Y-81967923D01*
X108594569Y-82043088D01*
X108662350Y-82088378D01*
X108662351Y-82088378D01*
X108662352Y-82088379D01*
X108821323Y-82120000D01*
X108821326Y-82120000D01*
X108874999Y-82130676D01*
X108928672Y-82120000D01*
X110199255Y-82120000D01*
X110806264Y-82727010D01*
X110706126Y-82827148D01*
X110580527Y-83130370D01*
X110580527Y-83458576D01*
X110706126Y-83761798D01*
X110751301Y-83806973D01*
X110700599Y-83857675D01*
X110575000Y-84160897D01*
X110575000Y-84489103D01*
X110700599Y-84792325D01*
X110932675Y-85024401D01*
X111235897Y-85150000D01*
X111564103Y-85150000D01*
X111867325Y-85024401D01*
X111891726Y-85000000D01*
X111899204Y-85000000D01*
X111965685Y-85013224D01*
X112032166Y-85000000D01*
X112229057Y-84960836D01*
X112452333Y-84811648D01*
X112489994Y-84755284D01*
X113005285Y-84239994D01*
X113061647Y-84202334D01*
X113210835Y-83979058D01*
X113249999Y-83782167D01*
X113263223Y-83715687D01*
X113249999Y-83649207D01*
X113249999Y-80491479D01*
X113263223Y-80424998D01*
X113210835Y-80161627D01*
X113181743Y-80118088D01*
X113061646Y-79938351D01*
X113005285Y-79900692D01*
X113000000Y-79895407D01*
X113000000Y-79860897D01*
X112874401Y-79557675D01*
X112850000Y-79533274D01*
X112850000Y-76541722D01*
X112874397Y-76517325D01*
X112999996Y-76214103D01*
X112999996Y-75885897D01*
X112874397Y-75582675D01*
X112642321Y-75350599D01*
X112339099Y-75225000D01*
X112010893Y-75225000D01*
X111707671Y-75350599D01*
X111475595Y-75582675D01*
X111349996Y-75885897D01*
X111349996Y-76214103D01*
X111475595Y-76517325D01*
X111500001Y-76541731D01*
X111500001Y-77502002D01*
X111314103Y-77425000D01*
X110985897Y-77425000D01*
X110682675Y-77550599D01*
X110580545Y-77652729D01*
X109525000Y-76597184D01*
X109525000Y-76385897D01*
X109399401Y-76082675D01*
X109167325Y-75850599D01*
X108864103Y-75725000D01*
X108535897Y-75725000D01*
X108232675Y-75850599D01*
X108000599Y-76082675D01*
X107875000Y-76385897D01*
X107875000Y-76714103D01*
X108000599Y-77017325D01*
X108232675Y-77249401D01*
X108535897Y-77375000D01*
X108747184Y-77375000D01*
X109972786Y-78600603D01*
X110003472Y-78646528D01*
X110185401Y-78768089D01*
X110345830Y-78800000D01*
X110399999Y-78810775D01*
X110454168Y-78800000D01*
X110533274Y-78800000D01*
X110682675Y-78949401D01*
X110985897Y-79075000D01*
X111314103Y-79075000D01*
X111500000Y-78997999D01*
X111500000Y-79350000D01*
X109916726Y-79350000D01*
X109892325Y-79325599D01*
X109589103Y-79200000D01*
X109561705Y-79200000D01*
X109373361Y-79074153D01*
X109176470Y-79034989D01*
X109109989Y-79021765D01*
X109043508Y-79034989D01*
X102940805Y-79034989D01*
X102874325Y-79021765D01*
X102807845Y-79034989D01*
X102610954Y-79074153D01*
X102387678Y-79223341D01*
X102350018Y-79279703D01*
X102119714Y-79510008D01*
X102063353Y-79547667D01*
X101990556Y-79656615D01*
X101961648Y-79613352D01*
X101738372Y-79464164D01*
X101541481Y-79425000D01*
X101475000Y-79411776D01*
X101408519Y-79425000D01*
X100591481Y-79425000D01*
X100525000Y-79411776D01*
X100458519Y-79425000D01*
X100261628Y-79464164D01*
X100038352Y-79613352D01*
X100000692Y-79669714D01*
X99594714Y-80075693D01*
X99538353Y-80113352D01*
X99389164Y-80336628D01*
X99378701Y-80389231D01*
X99366613Y-80449998D01*
X94188296Y-80449998D01*
X94788275Y-79850020D01*
X95191633Y-79850020D01*
X95245802Y-79860795D01*
X95299971Y-79850020D01*
X95299972Y-79850020D01*
X95460401Y-79818109D01*
X95642330Y-79696548D01*
X95673018Y-79650620D01*
X98250623Y-77073016D01*
X98296545Y-77042332D01*
X98339870Y-76977492D01*
X98418106Y-76860405D01*
X98460793Y-76645805D01*
X98450017Y-76591631D01*
X98450019Y-74602798D01*
X99127817Y-73925000D01*
X99339103Y-73925000D01*
X99642325Y-73799401D01*
X99874401Y-73567325D01*
X100000000Y-73264103D01*
X100000000Y-72935897D01*
X99874401Y-72632675D01*
X99779226Y-72537500D01*
X99874401Y-72442325D01*
X100000000Y-72139103D01*
X100000000Y-71810897D01*
X99874401Y-71507675D01*
X99642325Y-71275599D01*
X99339103Y-71150000D01*
X99010897Y-71150000D01*
X98707675Y-71275599D01*
X98475599Y-71507675D01*
X98350000Y-71810897D01*
X98350000Y-72022183D01*
X97711148Y-72661035D01*
X97699401Y-72632675D01*
X97467325Y-72400599D01*
X97164103Y-72275000D01*
X96835897Y-72275000D01*
X96532675Y-72400599D01*
X96300599Y-72632675D01*
X96175000Y-72935897D01*
X96175000Y-73264103D01*
X96300599Y-73567325D01*
X96450000Y-73716726D01*
X96450001Y-76045183D01*
X96017885Y-76477299D01*
X95999401Y-76432675D01*
X95966726Y-76400000D01*
X95999401Y-76367325D01*
X96125000Y-76064103D01*
X96125000Y-75735897D01*
X95999401Y-75432675D01*
X95966720Y-75399994D01*
X95999401Y-75367312D01*
X96125000Y-75064090D01*
X96125000Y-74735884D01*
X95999401Y-74432662D01*
X95941733Y-74374994D01*
X95999401Y-74317325D01*
X96125000Y-74014103D01*
X96125000Y-73685897D01*
X95999401Y-73382675D01*
X95767325Y-73150599D01*
X95464103Y-73025000D01*
X95135897Y-73025000D01*
X94832675Y-73150599D01*
X94683274Y-73300000D01*
X93631348Y-73300000D01*
X93577179Y-73289225D01*
X93523010Y-73300000D01*
X93362581Y-73331911D01*
X93180652Y-73453472D01*
X93149966Y-73499397D01*
X91952446Y-74696917D01*
X91952446Y-74567597D01*
X91826847Y-74264375D01*
X91594771Y-74032299D01*
X91291549Y-73906700D01*
X91275000Y-73906700D01*
X91275000Y-73635897D01*
X91149401Y-73332675D01*
X90917325Y-73100599D01*
X90614103Y-72975000D01*
X90285897Y-72975000D01*
X89982675Y-73100599D01*
X89828274Y-73255000D01*
X89153676Y-73255000D01*
X89100000Y-73244323D01*
X89046324Y-73255000D01*
X89046323Y-73255000D01*
X88887352Y-73286621D01*
X88707077Y-73407077D01*
X88676670Y-73452584D01*
X86354255Y-75775000D01*
X86135897Y-75775000D01*
X85832675Y-75900599D01*
X85600599Y-76132675D01*
X85525414Y-76314187D01*
X85454190Y-76300020D01*
X85454189Y-76300020D01*
X85400020Y-76289245D01*
X85345851Y-76300020D01*
X77515831Y-76300020D01*
X77517325Y-76299401D01*
X77749401Y-76067325D01*
X77875000Y-75764103D01*
X77875000Y-75435897D01*
X77749401Y-75132675D01*
X77600000Y-74983274D01*
X77600000Y-70027816D01*
X78627817Y-69000000D01*
X79795831Y-69000000D01*
X79850000Y-69010775D01*
X79904169Y-69000000D01*
X79904170Y-69000000D01*
X80064599Y-68968089D01*
X80246528Y-68846528D01*
X80277216Y-68800600D01*
X82602818Y-66474999D01*
X86350225Y-66474999D01*
X86325000Y-66535897D01*
X86325000Y-66864103D01*
X86450599Y-67167325D01*
X86682675Y-67399401D01*
X86985897Y-67525000D01*
X87314103Y-67525000D01*
X87617325Y-67399401D01*
X87766726Y-67250000D01*
X89022184Y-67250000D01*
X90100001Y-68327818D01*
X90100001Y-68383273D01*
X89950599Y-68532675D01*
X89825000Y-68835897D01*
X89825000Y-69164103D01*
X89950599Y-69467325D01*
X90182675Y-69699401D01*
X90485897Y-69825000D01*
X90814103Y-69825000D01*
X91117325Y-69699401D01*
X91266726Y-69550000D01*
X111733274Y-69550000D01*
X111550599Y-69732675D01*
X111425000Y-70035897D01*
X111425000Y-70247183D01*
X109722184Y-71950000D01*
X108266726Y-71950000D01*
X108117325Y-71800599D01*
X107814103Y-71675000D01*
X107485897Y-71675000D01*
X107182675Y-71800599D01*
X106950599Y-72032675D01*
X106825000Y-72335897D01*
X106825000Y-72530718D01*
X106544190Y-72647034D01*
X106312114Y-72879110D01*
X106186515Y-73182332D01*
X106186515Y-73349977D01*
X106122402Y-73349977D01*
X105819180Y-73475576D01*
X105587104Y-73707652D01*
X105461505Y-74010874D01*
X105461505Y-74339080D01*
X105587104Y-74642302D01*
X105819180Y-74874378D01*
X106122402Y-74999977D01*
X106450608Y-74999977D01*
X106753830Y-74874378D01*
X106903231Y-74724977D01*
X115941299Y-74724977D01*
X115945520Y-74729198D01*
X115945520Y-74940485D01*
X116071119Y-75243707D01*
X116303195Y-75475783D01*
X116404456Y-75517727D01*
X113799398Y-78122786D01*
X113753473Y-78153472D01*
X113655133Y-78300649D01*
X113631912Y-78335401D01*
X113589225Y-78550000D01*
X113600001Y-78604174D01*
X113600000Y-90458264D01*
X113450599Y-90607665D01*
X113325000Y-90910887D01*
X113325000Y-91239093D01*
X113450599Y-91542315D01*
X113682675Y-91774391D01*
X113985897Y-91899990D01*
X114314103Y-91899990D01*
X114617325Y-91774391D01*
X114662495Y-91729221D01*
X114732675Y-91799401D01*
X115035897Y-91925000D01*
X115364103Y-91925000D01*
X115667325Y-91799401D01*
X115899401Y-91567325D01*
X116025000Y-91264103D01*
X116025000Y-90935897D01*
X115899401Y-90632675D01*
X115750000Y-90483274D01*
X115750000Y-84110897D01*
X136600000Y-84110897D01*
X136600000Y-84439103D01*
X136725599Y-84742325D01*
X136957675Y-84974401D01*
X137260897Y-85100000D01*
X137589103Y-85100000D01*
X137892325Y-84974401D01*
X138124401Y-84742325D01*
X138250000Y-84439103D01*
X138250000Y-84110897D01*
X138124401Y-83807675D01*
X137975000Y-83658274D01*
X137975000Y-81177822D01*
X141702823Y-77450000D01*
X141914109Y-77450000D01*
X141975003Y-77424777D01*
X141975002Y-82132179D01*
X139472055Y-84635127D01*
X139260768Y-84635127D01*
X138957546Y-84760726D01*
X138725470Y-84992802D01*
X138599871Y-85296024D01*
X138599871Y-85624230D01*
X138725470Y-85927452D01*
X138957546Y-86159528D01*
X139260768Y-86285127D01*
X139588974Y-86285127D01*
X139892196Y-86159528D01*
X140124272Y-85927452D01*
X140249871Y-85624230D01*
X140249871Y-85412943D01*
X142875605Y-82787210D01*
X142921530Y-82756524D01*
X143043091Y-82574595D01*
X143075002Y-82414166D01*
X143075002Y-82414165D01*
X143085777Y-82359997D01*
X143075002Y-82305828D01*
X143075002Y-75579170D01*
X143085777Y-75525001D01*
X143067099Y-75431101D01*
X143043091Y-75310403D01*
X143026360Y-75285363D01*
X143026360Y-75032811D01*
X142900761Y-74729589D01*
X142668685Y-74497513D01*
X142365463Y-74371914D01*
X142037257Y-74371914D01*
X141734035Y-74497513D01*
X141501959Y-74729589D01*
X141376360Y-75032811D01*
X141376360Y-75361017D01*
X141501959Y-75664239D01*
X141637720Y-75800000D01*
X141585903Y-75800000D01*
X141282681Y-75925599D01*
X141050605Y-76157675D01*
X140925006Y-76460897D01*
X140925006Y-76672183D01*
X137074398Y-80522792D01*
X137028473Y-80553478D01*
X136940325Y-80685401D01*
X136906912Y-80735407D01*
X136864225Y-80950006D01*
X136875001Y-81004180D01*
X136875000Y-83658274D01*
X136725599Y-83807675D01*
X136600000Y-84110897D01*
X115750000Y-84110897D01*
X115750000Y-78434938D01*
X119450620Y-74734320D01*
X119496539Y-74703638D01*
X119527221Y-74657719D01*
X119527223Y-74657717D01*
X119618099Y-74521712D01*
X119618100Y-74521709D01*
X119650011Y-74361280D01*
X119650011Y-74361277D01*
X119660785Y-74307112D01*
X119650011Y-74252947D01*
X119650011Y-71285897D01*
X121075000Y-71285897D01*
X121075000Y-71614103D01*
X121200599Y-71917325D01*
X121432675Y-72149401D01*
X121735897Y-72275000D01*
X122064103Y-72275000D01*
X122367325Y-72149401D01*
X122391726Y-72125000D01*
X124008274Y-72125000D01*
X124032675Y-72149401D01*
X124335897Y-72275000D01*
X124664103Y-72275000D01*
X124967325Y-72149401D01*
X125116726Y-72000000D01*
X130722503Y-72000000D01*
X131801545Y-73079043D01*
X131801545Y-73214103D01*
X131927144Y-73517325D01*
X132159220Y-73749401D01*
X132462442Y-73875000D01*
X132790648Y-73875000D01*
X133093870Y-73749401D01*
X133325946Y-73517325D01*
X133403142Y-73330958D01*
X134172786Y-74100603D01*
X134203472Y-74146528D01*
X134385401Y-74268089D01*
X134545830Y-74300000D01*
X134599999Y-74310775D01*
X134654168Y-74300000D01*
X146108274Y-74300000D01*
X146257675Y-74449401D01*
X146560897Y-74575000D01*
X146889103Y-74575000D01*
X147192325Y-74449401D01*
X147424401Y-74217325D01*
X147550000Y-73914103D01*
X147550000Y-73585897D01*
X147424401Y-73282675D01*
X147192325Y-73050599D01*
X146889103Y-72925000D01*
X146560897Y-72925000D01*
X146257675Y-73050599D01*
X146108274Y-73200000D01*
X142264676Y-73200000D01*
X142419531Y-73096529D01*
X142450219Y-73050601D01*
X143325605Y-72175216D01*
X143371530Y-72144530D01*
X143493091Y-71962601D01*
X143525002Y-71802172D01*
X143525002Y-71802171D01*
X143535777Y-71748002D01*
X143525002Y-71693833D01*
X143525002Y-61406169D01*
X143535777Y-61352000D01*
X143514797Y-61246527D01*
X143493091Y-61137401D01*
X143371530Y-60955472D01*
X143325605Y-60924786D01*
X140375217Y-57974399D01*
X140344529Y-57928471D01*
X140162600Y-57806910D01*
X140002171Y-57774999D01*
X140002170Y-57774999D01*
X139948001Y-57764224D01*
X139893832Y-57774999D01*
X128579170Y-57774999D01*
X128525001Y-57764224D01*
X128470832Y-57774999D01*
X128470831Y-57774999D01*
X128310402Y-57806910D01*
X128128473Y-57928471D01*
X128097787Y-57974396D01*
X124922184Y-61150000D01*
X124710897Y-61150000D01*
X124407675Y-61275599D01*
X124175599Y-61507675D01*
X124050000Y-61810897D01*
X124050000Y-62139103D01*
X124175599Y-62442325D01*
X124407675Y-62674401D01*
X124710897Y-62800000D01*
X125039103Y-62800000D01*
X125342325Y-62674401D01*
X125574401Y-62442325D01*
X125700000Y-62139103D01*
X125700000Y-61927816D01*
X128752818Y-58874999D01*
X137529514Y-58874999D01*
X137525000Y-58885897D01*
X137525000Y-59214103D01*
X137650599Y-59517325D01*
X137882675Y-59749401D01*
X138185897Y-59875000D01*
X138397184Y-59875000D01*
X139299395Y-60777212D01*
X139299398Y-60777214D01*
X141150001Y-62627818D01*
X141150000Y-69947183D01*
X140722184Y-70375000D01*
X140441726Y-70375000D01*
X140267325Y-70200599D01*
X139964103Y-70075000D01*
X139635897Y-70075000D01*
X139332675Y-70200599D01*
X139100599Y-70432675D01*
X139075000Y-70494476D01*
X139075000Y-70386247D01*
X138949401Y-70083025D01*
X138717325Y-69850949D01*
X138414103Y-69725350D01*
X138202816Y-69725350D01*
X137826864Y-69349398D01*
X137796176Y-69303470D01*
X137614247Y-69181909D01*
X137453818Y-69149998D01*
X137453817Y-69149998D01*
X137399648Y-69139223D01*
X137345479Y-69149998D01*
X126304171Y-69149998D01*
X126250002Y-69139223D01*
X126195833Y-69149998D01*
X126195832Y-69149998D01*
X126035403Y-69181909D01*
X125853474Y-69303470D01*
X125822790Y-69349393D01*
X124549397Y-70622787D01*
X124549394Y-70622789D01*
X124547183Y-70625000D01*
X124335897Y-70625000D01*
X124032675Y-70750599D01*
X124008274Y-70775000D01*
X122391726Y-70775000D01*
X122367325Y-70750599D01*
X122064103Y-70625000D01*
X121735897Y-70625000D01*
X121432675Y-70750599D01*
X121200599Y-70982675D01*
X121075000Y-71285897D01*
X119650011Y-71285897D01*
X119650009Y-66247061D01*
X119660785Y-66192887D01*
X119618098Y-65978288D01*
X119527222Y-65842283D01*
X119527221Y-65842282D01*
X119496537Y-65796360D01*
X119450615Y-65765676D01*
X117984338Y-64299400D01*
X117953650Y-64253472D01*
X117877370Y-64202504D01*
X117611606Y-63936740D01*
X117580918Y-63890812D01*
X117398989Y-63769251D01*
X117238560Y-63737340D01*
X117238559Y-63737340D01*
X117184390Y-63726565D01*
X117130221Y-63737340D01*
X107629386Y-63737340D01*
X107479985Y-63587939D01*
X107176763Y-63462340D01*
X106848557Y-63462340D01*
X106545335Y-63587939D01*
X106313259Y-63820015D01*
X106308740Y-63830924D01*
X104427216Y-61949400D01*
X104396528Y-61903472D01*
X104214599Y-61781911D01*
X104054170Y-61750000D01*
X104054169Y-61750000D01*
X104000000Y-61739225D01*
X103945831Y-61750000D01*
X101004168Y-61750000D01*
X100949999Y-61739225D01*
X100895830Y-61750000D01*
X100735401Y-61781911D01*
X100624281Y-61856159D01*
X100595022Y-61785523D01*
X100450000Y-61640501D01*
X100450000Y-61266726D01*
X100599401Y-61117325D01*
X100725000Y-60814103D01*
X100725000Y-60485897D01*
X100668709Y-60350000D01*
X109922184Y-60350000D01*
X111875000Y-62302818D01*
X111875000Y-62514103D01*
X112000599Y-62817325D01*
X112232675Y-63049401D01*
X112535897Y-63175000D01*
X112864103Y-63175000D01*
X113167325Y-63049401D01*
X113399401Y-62817325D01*
X113525000Y-62514103D01*
X113525000Y-62185897D01*
X113399401Y-61882675D01*
X113167325Y-61650599D01*
X112864103Y-61525000D01*
X112652818Y-61525000D01*
X110577216Y-59449400D01*
X110546528Y-59403472D01*
X110364599Y-59281911D01*
X110204170Y-59250000D01*
X110204169Y-59250000D01*
X110150000Y-59239225D01*
X110095831Y-59250000D01*
X98877513Y-59250000D01*
X98955817Y-59060959D01*
X98955817Y-58732753D01*
X98830218Y-58429531D01*
X98598142Y-58197455D01*
X98294920Y-58071856D01*
X98083634Y-58071856D01*
X96536177Y-56524400D01*
X96505489Y-56478472D01*
X96323560Y-56356911D01*
X96163131Y-56325000D01*
X96163130Y-56325000D01*
X96108961Y-56314225D01*
X96054792Y-56325000D01*
X79702817Y-56325000D01*
X78800000Y-55422184D01*
X78800000Y-55210897D01*
X78674401Y-54907675D01*
X78442325Y-54675599D01*
X78139103Y-54550000D01*
X77810897Y-54550000D01*
X77507675Y-54675599D01*
X77358274Y-54825000D01*
X73052816Y-54825000D01*
X75702818Y-52175000D01*
X75914103Y-52175000D01*
X76217325Y-52049401D01*
X76363888Y-51902838D01*
X86359723Y-51948950D01*
X86611374Y-52200602D01*
X86642061Y-52246528D01*
X86717020Y-52296614D01*
X86725599Y-52317325D01*
X86957675Y-52549401D01*
X87260897Y-52675000D01*
X87589103Y-52675000D01*
X87892325Y-52549401D01*
X88066726Y-52375000D01*
X94056955Y-52375000D01*
X95733254Y-54051299D01*
X95715390Y-54039363D01*
X95556419Y-54007742D01*
X95556418Y-54007742D01*
X95502742Y-53997065D01*
X95449066Y-54007742D01*
X89900930Y-54007742D01*
X89847257Y-53997066D01*
X89793585Y-54007742D01*
X89793581Y-54007742D01*
X89634610Y-54039363D01*
X89454335Y-54159819D01*
X89423928Y-54205326D01*
X89304255Y-54325000D01*
X89085897Y-54325000D01*
X88782675Y-54450599D01*
X88550599Y-54682675D01*
X88425000Y-54985897D01*
X88425000Y-55314103D01*
X88550599Y-55617325D01*
X88782675Y-55849401D01*
X89085897Y-55975000D01*
X89414103Y-55975000D01*
X89717325Y-55849401D01*
X89949401Y-55617325D01*
X90075000Y-55314103D01*
X90075000Y-55097742D01*
X95276997Y-55097742D01*
X95425000Y-55245746D01*
X95425000Y-55464103D01*
X95550599Y-55767325D01*
X95782675Y-55999401D01*
X96085897Y-56125000D01*
X96414103Y-56125000D01*
X96717325Y-55999401D01*
X96949401Y-55767325D01*
X97075000Y-55464103D01*
X97075000Y-55393046D01*
X98011267Y-56329313D01*
X98041953Y-56375238D01*
X98223882Y-56496799D01*
X98384311Y-56528710D01*
X98438480Y-56539485D01*
X98492649Y-56528710D01*
X99325460Y-56528710D01*
X99485889Y-56496799D01*
X99667818Y-56375238D01*
X99769699Y-56222763D01*
X99917462Y-56075000D01*
X100164103Y-56075000D01*
X100467325Y-55949401D01*
X100575000Y-55841726D01*
X100582675Y-55849401D01*
X100885897Y-55975000D01*
X101214103Y-55975000D01*
X101496073Y-55858204D01*
X102588471Y-56950603D01*
X102619157Y-56996528D01*
X102801086Y-57118089D01*
X102961515Y-57150000D01*
X102961516Y-57150000D01*
X103015685Y-57160775D01*
X103069854Y-57150000D01*
X109172184Y-57150000D01*
X110425000Y-58402817D01*
X110425000Y-58614103D01*
X110550599Y-58917325D01*
X110782675Y-59149401D01*
X111085897Y-59275000D01*
X111414103Y-59275000D01*
X111717325Y-59149401D01*
X111949401Y-58917325D01*
X112075000Y-58614103D01*
X112075000Y-58285897D01*
X111949401Y-57982675D01*
X111717325Y-57750599D01*
X111414103Y-57625000D01*
X111202817Y-57625000D01*
X110052817Y-56475001D01*
X110358275Y-56475001D01*
X110482675Y-56599401D01*
X110785897Y-56725000D01*
X111114103Y-56725000D01*
X111417325Y-56599401D01*
X111649401Y-56367325D01*
X111775000Y-56064103D01*
X111775000Y-55735897D01*
X111749775Y-55674999D01*
X112347183Y-55674999D01*
X122572786Y-65900603D01*
X122603472Y-65946528D01*
X122785401Y-66068089D01*
X122945830Y-66100000D01*
X122945831Y-66100000D01*
X123000000Y-66110775D01*
X123054169Y-66100000D01*
X125233274Y-66100000D01*
X125382675Y-66249401D01*
X125685897Y-66375000D01*
X126014103Y-66375000D01*
X126317325Y-66249401D01*
X126549401Y-66017325D01*
X126675000Y-65714103D01*
X126675000Y-65385897D01*
X126648301Y-65321440D01*
X130234542Y-65321440D01*
X130125000Y-65585897D01*
X130125000Y-65914103D01*
X130250599Y-66217325D01*
X130482675Y-66449401D01*
X130785897Y-66575000D01*
X131114103Y-66575000D01*
X131417325Y-66449401D01*
X131441726Y-66425000D01*
X139383274Y-66425000D01*
X139407675Y-66449401D01*
X139710897Y-66575000D01*
X140039103Y-66575000D01*
X140342325Y-66449401D01*
X140574401Y-66217325D01*
X140700000Y-65914103D01*
X140700000Y-65585897D01*
X140574401Y-65282675D01*
X140342325Y-65050599D01*
X140039103Y-64925000D01*
X139710897Y-64925000D01*
X139407675Y-65050599D01*
X139383274Y-65075000D01*
X135779065Y-65075000D01*
X135825000Y-64964103D01*
X135825000Y-64635897D01*
X135699401Y-64332675D01*
X135467325Y-64100599D01*
X135164103Y-63975000D01*
X134835897Y-63975000D01*
X134532675Y-64100599D01*
X134411834Y-64221440D01*
X125076250Y-64221440D01*
X125100000Y-64164103D01*
X125100000Y-63835897D01*
X124974401Y-63532675D01*
X124742325Y-63300599D01*
X124439103Y-63175000D01*
X124227818Y-63175000D01*
X112352216Y-51299400D01*
X112321528Y-51253472D01*
X112139599Y-51131911D01*
X111979170Y-51100000D01*
X111979169Y-51100000D01*
X111925000Y-51089225D01*
X111870831Y-51100000D01*
X110955228Y-51100000D01*
X111001986Y-50987117D01*
X111001986Y-50658911D01*
X110947927Y-50528399D01*
X133575000Y-50528399D01*
X133575000Y-51771601D01*
X134050753Y-52920170D01*
X134929830Y-53799247D01*
X136078399Y-54275000D01*
X137321601Y-54275000D01*
X138470170Y-53799247D01*
X139349247Y-52920170D01*
X139825000Y-51771601D01*
X139825000Y-50528399D01*
X139720546Y-50276224D01*
X141125000Y-50276224D01*
X141125000Y-50723776D01*
X141296271Y-51137261D01*
X141612739Y-51453729D01*
X142026224Y-51625000D01*
X142473776Y-51625000D01*
X142887261Y-51453729D01*
X143203729Y-51137261D01*
X143375000Y-50723776D01*
X143375000Y-50276224D01*
X143203729Y-49862739D01*
X142887261Y-49546271D01*
X142473776Y-49375000D01*
X142026224Y-49375000D01*
X141612739Y-49546271D01*
X141296271Y-49862739D01*
X141125000Y-50276224D01*
X139720546Y-50276224D01*
X139349247Y-49379830D01*
X138470170Y-48500753D01*
X137321601Y-48025000D01*
X136078399Y-48025000D01*
X134929830Y-48500753D01*
X134050753Y-49379830D01*
X133575000Y-50528399D01*
X110947927Y-50528399D01*
X110876387Y-50355689D01*
X110818711Y-50298013D01*
X110899401Y-50217322D01*
X111025000Y-49914100D01*
X111025000Y-49585894D01*
X110899401Y-49282672D01*
X110750777Y-49134048D01*
X110748977Y-49125000D01*
X110718089Y-48969713D01*
X110596528Y-48787784D01*
X110550603Y-48757098D01*
X109043504Y-47250000D01*
X154250001Y-47250000D01*
X154250001Y-85210580D01*
X154164103Y-85175000D01*
X153835897Y-85175000D01*
X153532675Y-85300599D01*
X153300599Y-85532675D01*
X153175000Y-85835897D01*
X153175000Y-86164103D01*
X153300599Y-86467325D01*
X153450001Y-86616727D01*
X153450000Y-113880145D01*
X153450000Y-113883274D01*
X153300599Y-114032675D01*
X153175000Y-114335897D01*
X153175000Y-114664103D01*
X153300599Y-114967325D01*
X153532675Y-115199401D01*
X153835897Y-115325000D01*
X154164103Y-115325000D01*
X154250000Y-115289420D01*
X154250000Y-126250000D01*
X35250000Y-126250000D01*
X35250000Y-121778399D01*
X37325000Y-121778399D01*
X37325000Y-123021601D01*
X37800753Y-124170170D01*
X38679830Y-125049247D01*
X39828399Y-125525000D01*
X41071601Y-125525000D01*
X42220170Y-125049247D01*
X43099247Y-124170170D01*
X43216497Y-123887104D01*
X43231911Y-123964598D01*
X43353472Y-124146528D01*
X43399400Y-124177216D01*
X44222786Y-125000603D01*
X44253472Y-125046528D01*
X44435401Y-125168089D01*
X44595830Y-125200000D01*
X44649999Y-125210775D01*
X44704168Y-125200000D01*
X48620820Y-125200000D01*
X48674989Y-125210775D01*
X48729158Y-125200000D01*
X48729159Y-125200000D01*
X48889588Y-125168089D01*
X49071517Y-125046528D01*
X49102205Y-125000600D01*
X49402817Y-124699989D01*
X49614103Y-124699989D01*
X49917325Y-124574390D01*
X50149401Y-124342314D01*
X50275000Y-124039092D01*
X50275000Y-123710886D01*
X50149401Y-123407664D01*
X49917325Y-123175588D01*
X49797244Y-123125849D01*
X49824625Y-123059745D01*
X49824625Y-122848459D01*
X50073085Y-122600000D01*
X51433393Y-122600000D01*
X51582794Y-122749401D01*
X51886016Y-122875000D01*
X52214222Y-122875000D01*
X52517444Y-122749401D01*
X52749520Y-122517325D01*
X52875119Y-122214103D01*
X52875119Y-121885897D01*
X52749520Y-121582675D01*
X52517444Y-121350599D01*
X52214222Y-121225000D01*
X51886016Y-121225000D01*
X51582794Y-121350599D01*
X51433393Y-121500000D01*
X49899435Y-121500000D01*
X49845266Y-121489225D01*
X49791097Y-121500000D01*
X49630668Y-121531911D01*
X49630667Y-121531912D01*
X49630666Y-121531912D01*
X49566181Y-121575000D01*
X49448739Y-121653472D01*
X49418054Y-121699395D01*
X49046808Y-122070642D01*
X48835522Y-122070642D01*
X48532300Y-122196241D01*
X48300224Y-122428317D01*
X48174625Y-122731539D01*
X48174625Y-123059745D01*
X48300224Y-123362967D01*
X48532300Y-123595043D01*
X48652381Y-123644782D01*
X48625000Y-123710886D01*
X48625000Y-123922172D01*
X48447173Y-124100000D01*
X44877817Y-124100000D01*
X44300000Y-123522184D01*
X44300000Y-121539420D01*
X44385897Y-121575000D01*
X44714103Y-121575000D01*
X45017325Y-121449401D01*
X45249401Y-121217325D01*
X45324551Y-121035897D01*
X54615747Y-121035897D01*
X54615747Y-121364103D01*
X54741346Y-121667325D01*
X54973422Y-121899401D01*
X55276644Y-122025000D01*
X55604850Y-122025000D01*
X55908072Y-121899401D01*
X56140148Y-121667325D01*
X56248255Y-121406332D01*
X59875000Y-121406332D01*
X59875000Y-121893668D01*
X60061495Y-122343907D01*
X60406093Y-122688505D01*
X60856332Y-122875000D01*
X61343668Y-122875000D01*
X61509447Y-122806332D01*
X70075000Y-122806332D01*
X70075000Y-123293668D01*
X70261495Y-123743907D01*
X70606093Y-124088505D01*
X71056332Y-124275000D01*
X71543668Y-124275000D01*
X71993907Y-124088505D01*
X72338505Y-123743907D01*
X72525000Y-123293668D01*
X72525000Y-122806332D01*
X72512529Y-122776224D01*
X128625000Y-122776224D01*
X128625000Y-123223776D01*
X128796271Y-123637261D01*
X129112739Y-123953729D01*
X129526224Y-124125000D01*
X129973776Y-124125000D01*
X130387261Y-123953729D01*
X130703729Y-123637261D01*
X130875000Y-123223776D01*
X130875000Y-122776224D01*
X130703729Y-122362739D01*
X130387261Y-122046271D01*
X129973776Y-121875000D01*
X129526224Y-121875000D01*
X129112739Y-122046271D01*
X128796271Y-122362739D01*
X128625000Y-122776224D01*
X72512529Y-122776224D01*
X72338505Y-122356093D01*
X71993907Y-122011495D01*
X71543668Y-121825000D01*
X71056332Y-121825000D01*
X70606093Y-122011495D01*
X70261495Y-122356093D01*
X70075000Y-122806332D01*
X61509447Y-122806332D01*
X61793907Y-122688505D01*
X62138505Y-122343907D01*
X62325000Y-121893668D01*
X62325000Y-121406332D01*
X62138505Y-120956093D01*
X61793907Y-120611495D01*
X61343668Y-120425000D01*
X60856332Y-120425000D01*
X60406093Y-120611495D01*
X60061495Y-120956093D01*
X59875000Y-121406332D01*
X56248255Y-121406332D01*
X56265747Y-121364103D01*
X56265747Y-121035897D01*
X56140148Y-120732675D01*
X55990747Y-120583274D01*
X55990747Y-119525979D01*
X56149401Y-119367325D01*
X56275000Y-119064103D01*
X56275000Y-118735897D01*
X56149401Y-118432675D01*
X55917325Y-118200599D01*
X55614103Y-118075000D01*
X55285897Y-118075000D01*
X54982675Y-118200599D01*
X54750599Y-118432675D01*
X54625000Y-118735897D01*
X54625000Y-119064103D01*
X54750599Y-119367325D01*
X54890748Y-119507474D01*
X54890747Y-120583274D01*
X54741346Y-120732675D01*
X54615747Y-121035897D01*
X45324551Y-121035897D01*
X45375000Y-120914103D01*
X45375000Y-120585897D01*
X45249401Y-120282675D01*
X45100000Y-120133274D01*
X45100000Y-119177816D01*
X45277817Y-119000000D01*
X48060580Y-119000000D01*
X48150599Y-119217325D01*
X48382675Y-119449401D01*
X48685897Y-119575000D01*
X49014103Y-119575000D01*
X49317325Y-119449401D01*
X49549401Y-119217325D01*
X49675000Y-118914103D01*
X49675000Y-118585897D01*
X49549401Y-118282675D01*
X49317325Y-118050599D01*
X49014103Y-117925000D01*
X48729855Y-117925000D01*
X48604170Y-117900000D01*
X48604169Y-117900000D01*
X48550000Y-117889225D01*
X48495831Y-117900000D01*
X45104169Y-117900000D01*
X45050000Y-117889225D01*
X44995831Y-117900000D01*
X44995830Y-117900000D01*
X44835401Y-117931911D01*
X44653472Y-118053472D01*
X44622785Y-118099398D01*
X44300000Y-118422184D01*
X44300000Y-116241726D01*
X44360639Y-116181087D01*
X44449679Y-116270127D01*
X44449679Y-116345510D01*
X44438904Y-116399679D01*
X44449679Y-116453848D01*
X44481590Y-116614277D01*
X44603151Y-116796207D01*
X44649079Y-116826895D01*
X44922784Y-117100600D01*
X44953472Y-117146528D01*
X45135401Y-117268089D01*
X45295830Y-117300000D01*
X45295831Y-117300000D01*
X45350000Y-117310775D01*
X45404169Y-117300000D01*
X48772183Y-117300000D01*
X48899395Y-117427212D01*
X48899398Y-117427214D01*
X50925000Y-119452817D01*
X50925000Y-119664103D01*
X51050599Y-119967325D01*
X51282675Y-120199401D01*
X51585897Y-120325000D01*
X51914103Y-120325000D01*
X52217325Y-120199401D01*
X52449401Y-119967325D01*
X52575000Y-119664103D01*
X52575000Y-119335897D01*
X52449401Y-119032675D01*
X52217325Y-118800599D01*
X51914103Y-118675000D01*
X51702817Y-118675000D01*
X49677214Y-116649398D01*
X49677212Y-116649395D01*
X49427216Y-116399400D01*
X49396528Y-116353472D01*
X49214599Y-116231911D01*
X49054170Y-116200000D01*
X49054169Y-116200000D01*
X49000000Y-116189225D01*
X48945831Y-116200000D01*
X45619806Y-116200000D01*
X45699080Y-116120726D01*
X45824679Y-115817504D01*
X45824679Y-115489298D01*
X45781849Y-115385897D01*
X55525000Y-115385897D01*
X55525000Y-115714103D01*
X55650599Y-116017325D01*
X55882675Y-116249401D01*
X56185897Y-116375000D01*
X56514103Y-116375000D01*
X56817325Y-116249401D01*
X57049401Y-116017325D01*
X57175000Y-115714103D01*
X57175000Y-115385897D01*
X57049401Y-115082675D01*
X57025000Y-115058274D01*
X57025000Y-111841728D01*
X57049403Y-111817325D01*
X57175002Y-111514103D01*
X57175002Y-111185897D01*
X57049403Y-110882675D01*
X56817327Y-110650599D01*
X56514105Y-110525000D01*
X56185899Y-110525000D01*
X55882677Y-110650599D01*
X55650601Y-110882675D01*
X55525002Y-111185897D01*
X55525002Y-111514103D01*
X55650601Y-111817325D01*
X55675001Y-111841725D01*
X55675000Y-115058274D01*
X55650599Y-115082675D01*
X55525000Y-115385897D01*
X45781849Y-115385897D01*
X45699080Y-115186076D01*
X45467004Y-114954000D01*
X45163782Y-114828401D01*
X44835576Y-114828401D01*
X44532354Y-114954000D01*
X44389040Y-115097314D01*
X44217325Y-114925599D01*
X43914103Y-114800000D01*
X43585897Y-114800000D01*
X43282675Y-114925599D01*
X43050599Y-115157675D01*
X42925000Y-115460897D01*
X42925000Y-115789103D01*
X43050599Y-116092325D01*
X43200001Y-116241727D01*
X43200000Y-120873070D01*
X43099247Y-120629830D01*
X42220170Y-119750753D01*
X41071601Y-119275000D01*
X39828399Y-119275000D01*
X38679830Y-119750753D01*
X37800753Y-120629830D01*
X37325000Y-121778399D01*
X35250000Y-121778399D01*
X35250000Y-118427816D01*
X35425000Y-118602817D01*
X35425000Y-118814103D01*
X35550599Y-119117325D01*
X35782675Y-119349401D01*
X36085897Y-119475000D01*
X36414103Y-119475000D01*
X36717325Y-119349401D01*
X36949401Y-119117325D01*
X37075000Y-118814103D01*
X37075000Y-118485897D01*
X36949401Y-118182675D01*
X36717325Y-117950599D01*
X36414103Y-117825000D01*
X36202817Y-117825000D01*
X35850000Y-117472184D01*
X35850000Y-105102637D01*
X35860000Y-105102637D01*
X35860000Y-106067363D01*
X36229184Y-106958652D01*
X36911348Y-107640816D01*
X37802637Y-108010000D01*
X38767363Y-108010000D01*
X39658652Y-107640816D01*
X40340816Y-106958652D01*
X40710000Y-106067363D01*
X40710000Y-105102637D01*
X40340816Y-104211348D01*
X39658652Y-103529184D01*
X38767363Y-103160000D01*
X37802637Y-103160000D01*
X36911348Y-103529184D01*
X36229184Y-104211348D01*
X35860000Y-105102637D01*
X35850000Y-105102637D01*
X35850000Y-99840224D01*
X37729327Y-99840224D01*
X37729327Y-100168430D01*
X37854926Y-100471652D01*
X38087002Y-100703728D01*
X38390224Y-100829327D01*
X38601511Y-100829327D01*
X39972786Y-102200603D01*
X40003472Y-102246528D01*
X40185401Y-102368089D01*
X40345830Y-102400000D01*
X40345831Y-102400000D01*
X40400000Y-102410775D01*
X40454169Y-102400000D01*
X41083274Y-102400000D01*
X41232675Y-102549401D01*
X41535897Y-102675000D01*
X41864103Y-102675000D01*
X42167325Y-102549401D01*
X42399401Y-102317325D01*
X42525000Y-102014103D01*
X42525000Y-101685897D01*
X42399401Y-101382675D01*
X42167325Y-101150599D01*
X41864103Y-101025000D01*
X41535897Y-101025000D01*
X41232675Y-101150599D01*
X41083274Y-101300000D01*
X40627817Y-101300000D01*
X39379327Y-100051511D01*
X39379327Y-99840224D01*
X39253728Y-99537002D01*
X39021652Y-99304926D01*
X38718430Y-99179327D01*
X38390224Y-99179327D01*
X38087002Y-99304926D01*
X37854926Y-99537002D01*
X37729327Y-99840224D01*
X35850000Y-99840224D01*
X35850000Y-82802637D01*
X35860000Y-82802637D01*
X35860000Y-83767363D01*
X36229184Y-84658652D01*
X36911348Y-85340816D01*
X37802637Y-85710000D01*
X38605409Y-85710000D01*
X38340409Y-85975000D01*
X38135897Y-85975000D01*
X37832675Y-86100599D01*
X37600599Y-86332675D01*
X37475000Y-86635897D01*
X37475000Y-86964103D01*
X37520935Y-87075000D01*
X37235897Y-87075000D01*
X36932675Y-87200599D01*
X36700599Y-87432675D01*
X36575000Y-87735897D01*
X36575000Y-88064103D01*
X36700599Y-88367325D01*
X36932675Y-88599401D01*
X37235897Y-88725000D01*
X37564103Y-88725000D01*
X37867325Y-88599401D01*
X38016726Y-88450000D01*
X38292833Y-88450000D01*
X38347002Y-88460775D01*
X38401171Y-88450000D01*
X38401172Y-88450000D01*
X38561601Y-88418089D01*
X38743530Y-88296528D01*
X38774218Y-88250600D01*
X42177817Y-84847002D01*
X44198829Y-84847002D01*
X44252998Y-84857777D01*
X44307167Y-84847002D01*
X44307168Y-84847002D01*
X44467597Y-84815091D01*
X44602428Y-84725000D01*
X44814103Y-84725000D01*
X45117325Y-84599401D01*
X45349401Y-84367325D01*
X45475000Y-84064103D01*
X45475000Y-83735897D01*
X45349401Y-83432675D01*
X45117325Y-83200599D01*
X44814103Y-83075000D01*
X44485897Y-83075000D01*
X44182675Y-83200599D01*
X43950599Y-83432675D01*
X43825000Y-83735897D01*
X43825000Y-83747002D01*
X42004169Y-83747002D01*
X41950000Y-83736227D01*
X41925000Y-83741200D01*
X41925000Y-78666726D01*
X42132675Y-78874401D01*
X42435897Y-79000000D01*
X42764103Y-79000000D01*
X43067325Y-78874401D01*
X43299401Y-78642325D01*
X43425000Y-78339103D01*
X43425000Y-78128916D01*
X43518088Y-77989600D01*
X43549999Y-77829171D01*
X43549999Y-77829170D01*
X43560774Y-77775002D01*
X43549999Y-77720833D01*
X43549999Y-76977817D01*
X47341919Y-73185897D01*
X51925000Y-73185897D01*
X51925000Y-73514103D01*
X52050599Y-73817325D01*
X52282675Y-74049401D01*
X52585897Y-74175000D01*
X52914103Y-74175000D01*
X53217325Y-74049401D01*
X53366726Y-73900000D01*
X56833274Y-73900000D01*
X56982675Y-74049401D01*
X57285897Y-74175000D01*
X57614103Y-74175000D01*
X57917325Y-74049401D01*
X58149401Y-73817325D01*
X58275000Y-73514103D01*
X58275000Y-73185897D01*
X58149401Y-72882675D01*
X57917325Y-72650599D01*
X57614103Y-72525000D01*
X57285897Y-72525000D01*
X56982675Y-72650599D01*
X56833274Y-72800000D01*
X53366726Y-72800000D01*
X53217325Y-72650599D01*
X52914103Y-72525000D01*
X52585897Y-72525000D01*
X52282675Y-72650599D01*
X52050599Y-72882675D01*
X51925000Y-73185897D01*
X47341919Y-73185897D01*
X48677594Y-71850223D01*
X48723519Y-71819537D01*
X48816931Y-71679736D01*
X48845079Y-71637610D01*
X48845079Y-71637609D01*
X48845080Y-71637608D01*
X48876991Y-71477179D01*
X48876991Y-71477178D01*
X48887766Y-71423010D01*
X48876991Y-71368841D01*
X48876991Y-70297783D01*
X48937889Y-70323008D01*
X49266095Y-70323008D01*
X49450001Y-70246832D01*
X49450001Y-71383273D01*
X49300599Y-71532675D01*
X49175000Y-71835897D01*
X49175000Y-72164103D01*
X49300599Y-72467325D01*
X49532675Y-72699401D01*
X49835897Y-72825000D01*
X50164103Y-72825000D01*
X50467325Y-72699401D01*
X50699401Y-72467325D01*
X50825000Y-72164103D01*
X50825000Y-71835897D01*
X50699401Y-71532675D01*
X50550000Y-71383274D01*
X50550000Y-70885897D01*
X51925000Y-70885897D01*
X51925000Y-71214103D01*
X52050599Y-71517325D01*
X52282675Y-71749401D01*
X52585897Y-71875000D01*
X52914103Y-71875000D01*
X53217325Y-71749401D01*
X53366726Y-71600000D01*
X56833274Y-71600000D01*
X56982675Y-71749401D01*
X57285897Y-71875000D01*
X57614103Y-71875000D01*
X57917325Y-71749401D01*
X58149401Y-71517325D01*
X58275000Y-71214103D01*
X58275000Y-70885897D01*
X58149401Y-70582675D01*
X57917325Y-70350599D01*
X57614103Y-70225000D01*
X57285897Y-70225000D01*
X56982675Y-70350599D01*
X56833274Y-70500000D01*
X53366726Y-70500000D01*
X53217325Y-70350599D01*
X52914103Y-70225000D01*
X52585897Y-70225000D01*
X52282675Y-70350599D01*
X52050599Y-70582675D01*
X51925000Y-70885897D01*
X50550000Y-70885897D01*
X50550000Y-70085897D01*
X60875000Y-70085897D01*
X60875000Y-70414103D01*
X61000599Y-70717325D01*
X61025000Y-70741726D01*
X61025001Y-73008273D01*
X61000599Y-73032675D01*
X60875000Y-73335897D01*
X60875000Y-73664103D01*
X61000599Y-73967325D01*
X61232675Y-74199401D01*
X61535897Y-74325000D01*
X61864103Y-74325000D01*
X62167325Y-74199401D01*
X62399401Y-73967325D01*
X62525000Y-73664103D01*
X62525000Y-73335897D01*
X62399401Y-73032675D01*
X62375000Y-73008274D01*
X62375000Y-70741726D01*
X62399401Y-70717325D01*
X62525000Y-70414103D01*
X62525000Y-70085897D01*
X62399401Y-69782675D01*
X62167325Y-69550599D01*
X61864103Y-69425000D01*
X61535897Y-69425000D01*
X61232675Y-69550599D01*
X61000599Y-69782675D01*
X60875000Y-70085897D01*
X50550000Y-70085897D01*
X50550000Y-68585897D01*
X51925000Y-68585897D01*
X51925000Y-68914103D01*
X52050599Y-69217325D01*
X52282675Y-69449401D01*
X52585897Y-69575000D01*
X52914103Y-69575000D01*
X53217325Y-69449401D01*
X53366726Y-69300000D01*
X56833274Y-69300000D01*
X56982675Y-69449401D01*
X57285897Y-69575000D01*
X57614103Y-69575000D01*
X57917325Y-69449401D01*
X58149401Y-69217325D01*
X58275000Y-68914103D01*
X58275000Y-68585897D01*
X58149401Y-68282675D01*
X57917325Y-68050599D01*
X57614103Y-67925000D01*
X57285897Y-67925000D01*
X56982675Y-68050599D01*
X56833274Y-68200000D01*
X53366726Y-68200000D01*
X53217325Y-68050599D01*
X52914103Y-67925000D01*
X52585897Y-67925000D01*
X52282675Y-68050599D01*
X52050599Y-68282675D01*
X51925000Y-68585897D01*
X50550000Y-68585897D01*
X50550000Y-67835897D01*
X64825000Y-67835897D01*
X64825000Y-68164103D01*
X64950599Y-68467325D01*
X65182675Y-68699401D01*
X65485897Y-68825000D01*
X65814103Y-68825000D01*
X66117325Y-68699401D01*
X66266726Y-68550000D01*
X66533274Y-68550000D01*
X66450599Y-68632675D01*
X66325000Y-68935897D01*
X66325000Y-69264103D01*
X66450599Y-69567325D01*
X66600000Y-69716726D01*
X66600001Y-70043273D01*
X66450599Y-70192675D01*
X66325000Y-70495897D01*
X66325000Y-70824103D01*
X66450599Y-71127325D01*
X66682675Y-71359401D01*
X66985897Y-71485000D01*
X67314103Y-71485000D01*
X67617325Y-71359401D01*
X67849401Y-71127325D01*
X67975000Y-70824103D01*
X67975000Y-70495897D01*
X67849401Y-70192675D01*
X67700000Y-70043274D01*
X67700000Y-69716726D01*
X67849401Y-69567325D01*
X67975000Y-69264103D01*
X67975000Y-68935897D01*
X67849401Y-68632675D01*
X67766726Y-68550000D01*
X70783272Y-68550000D01*
X70932673Y-68699401D01*
X71235895Y-68825000D01*
X71564101Y-68825000D01*
X71867323Y-68699401D01*
X72099399Y-68467325D01*
X72224998Y-68164103D01*
X72224998Y-67835897D01*
X72099399Y-67532675D01*
X71867323Y-67300599D01*
X71564101Y-67175000D01*
X71235895Y-67175000D01*
X70932673Y-67300599D01*
X70783272Y-67450000D01*
X66266726Y-67450000D01*
X66117325Y-67300599D01*
X65814103Y-67175000D01*
X65485897Y-67175000D01*
X65182675Y-67300599D01*
X64950599Y-67532675D01*
X64825000Y-67835897D01*
X50550000Y-67835897D01*
X50550000Y-66577816D01*
X52102817Y-65025000D01*
X52314103Y-65025000D01*
X52617325Y-64899401D01*
X52849401Y-64667325D01*
X52975000Y-64364103D01*
X52975000Y-64035897D01*
X52849401Y-63732675D01*
X52617325Y-63500599D01*
X52314103Y-63375000D01*
X51985897Y-63375000D01*
X51682675Y-63500599D01*
X51450599Y-63732675D01*
X51325000Y-64035897D01*
X51325000Y-64247183D01*
X49651992Y-65920192D01*
X49651992Y-65275825D01*
X49905674Y-65022144D01*
X50116959Y-65022144D01*
X50420181Y-64896545D01*
X50652257Y-64664469D01*
X50777856Y-64361247D01*
X50777856Y-64033041D01*
X50774525Y-64025000D01*
X50864103Y-64025000D01*
X51167325Y-63899401D01*
X51399401Y-63667325D01*
X51525000Y-63364103D01*
X51525000Y-63035897D01*
X51399401Y-62732675D01*
X51167325Y-62500599D01*
X50864103Y-62375000D01*
X50625000Y-62375000D01*
X50625000Y-62285897D01*
X50499401Y-61982675D01*
X50267325Y-61750599D01*
X49964103Y-61625000D01*
X49635897Y-61625000D01*
X49332675Y-61750599D01*
X49100599Y-61982675D01*
X49045133Y-62116583D01*
X48915684Y-61987134D01*
X48612462Y-61861535D01*
X48524999Y-61861535D01*
X48524999Y-61735897D01*
X48399400Y-61432675D01*
X48167324Y-61200599D01*
X47864102Y-61075000D01*
X47675000Y-61075000D01*
X47675000Y-60985897D01*
X47549401Y-60682675D01*
X47317325Y-60450599D01*
X47014103Y-60325000D01*
X46685897Y-60325000D01*
X46382675Y-60450599D01*
X46150599Y-60682675D01*
X46025000Y-60985897D01*
X46025000Y-61197183D01*
X43849402Y-63372782D01*
X43803474Y-63403470D01*
X43681913Y-63585400D01*
X43651691Y-63737340D01*
X43639227Y-63799998D01*
X43650002Y-63854167D01*
X43650003Y-68480141D01*
X43650002Y-68480146D01*
X43650002Y-68483274D01*
X43500601Y-68632675D01*
X43375002Y-68935897D01*
X43375002Y-69264103D01*
X43500601Y-69567325D01*
X43732677Y-69799401D01*
X44035899Y-69925000D01*
X44364105Y-69925000D01*
X44667327Y-69799401D01*
X44749998Y-69716730D01*
X44832675Y-69799407D01*
X45135897Y-69925006D01*
X45464103Y-69925006D01*
X45767325Y-69799407D01*
X45800000Y-69766732D01*
X45800001Y-71272182D01*
X45747183Y-71325000D01*
X45535897Y-71325000D01*
X45232675Y-71450599D01*
X45000599Y-71682675D01*
X44875000Y-71985897D01*
X44875000Y-72314103D01*
X45000599Y-72617325D01*
X45232675Y-72849401D01*
X45535897Y-72975000D01*
X45864103Y-72975000D01*
X46091286Y-72880898D01*
X42649397Y-76322787D01*
X42603472Y-76353473D01*
X42536641Y-76453493D01*
X42481911Y-76535402D01*
X42439224Y-76750001D01*
X42450000Y-76804174D01*
X42449999Y-77350000D01*
X42435897Y-77350000D01*
X42132675Y-77475599D01*
X41925000Y-77683274D01*
X41925000Y-62379593D01*
X44779594Y-59525000D01*
X44814103Y-59525000D01*
X45117325Y-59399401D01*
X45349401Y-59167325D01*
X45475000Y-58864103D01*
X45475000Y-58535897D01*
X48375000Y-58535897D01*
X48375000Y-58864103D01*
X48500599Y-59167325D01*
X48732675Y-59399401D01*
X49035897Y-59525000D01*
X49070407Y-59525000D01*
X52942720Y-63397314D01*
X52942723Y-63397316D01*
X53206664Y-63661257D01*
X53250599Y-63767325D01*
X53482675Y-63999401D01*
X53785897Y-64125000D01*
X54114103Y-64125000D01*
X54417325Y-63999401D01*
X54649401Y-63767325D01*
X54775000Y-63464103D01*
X54775000Y-63135897D01*
X54649401Y-62832675D01*
X54417325Y-62600599D01*
X54114103Y-62475000D01*
X53929593Y-62475000D01*
X53897316Y-62442723D01*
X53897314Y-62442720D01*
X51890491Y-60435897D01*
X64150000Y-60435897D01*
X64150000Y-60764103D01*
X64275599Y-61067325D01*
X64507675Y-61299401D01*
X64810897Y-61425000D01*
X65139103Y-61425000D01*
X65442325Y-61299401D01*
X65591726Y-61150000D01*
X66908284Y-61150000D01*
X67057685Y-61299401D01*
X67360907Y-61425000D01*
X67689113Y-61425000D01*
X67992335Y-61299401D01*
X68224411Y-61067325D01*
X68350010Y-60764103D01*
X68350010Y-60435897D01*
X68224411Y-60132675D01*
X67992335Y-59900599D01*
X67689113Y-59775000D01*
X67360907Y-59775000D01*
X67057685Y-59900599D01*
X66908284Y-60050000D01*
X65591726Y-60050000D01*
X65442325Y-59900599D01*
X65139103Y-59775000D01*
X64810897Y-59775000D01*
X64507675Y-59900599D01*
X64275599Y-60132675D01*
X64150000Y-60435897D01*
X51890491Y-60435897D01*
X50025000Y-58570407D01*
X50025000Y-58535897D01*
X49899401Y-58232675D01*
X49667325Y-58000599D01*
X49364103Y-57875000D01*
X49035897Y-57875000D01*
X48732675Y-58000599D01*
X48500599Y-58232675D01*
X48375000Y-58535897D01*
X45475000Y-58535897D01*
X45349401Y-58232675D01*
X45117325Y-58000599D01*
X44814103Y-57875000D01*
X44485897Y-57875000D01*
X44182675Y-58000599D01*
X43950599Y-58232675D01*
X43825000Y-58535897D01*
X43825000Y-58570406D01*
X40819714Y-61575693D01*
X40763353Y-61613352D01*
X40713679Y-61687694D01*
X40614164Y-61836629D01*
X40561776Y-62100000D01*
X40575001Y-62166486D01*
X40575000Y-82476718D01*
X40340816Y-81911348D01*
X39658652Y-81229184D01*
X38767363Y-80860000D01*
X37802637Y-80860000D01*
X36911348Y-81229184D01*
X36229184Y-81911348D01*
X35860000Y-82802637D01*
X35850000Y-82802637D01*
X35850000Y-50877816D01*
X36199417Y-50528399D01*
X37325000Y-50528399D01*
X37325000Y-51771601D01*
X37800753Y-52920170D01*
X38679830Y-53799247D01*
X39828399Y-54275000D01*
X41071601Y-54275000D01*
X42220170Y-53799247D01*
X42643193Y-53376224D01*
X45675000Y-53376224D01*
X45675000Y-53823776D01*
X45846271Y-54237261D01*
X46162739Y-54553729D01*
X46576224Y-54725000D01*
X47023776Y-54725000D01*
X47437261Y-54553729D01*
X47753729Y-54237261D01*
X47925000Y-53823776D01*
X47925000Y-53376224D01*
X47753729Y-52962739D01*
X47437261Y-52646271D01*
X47023776Y-52475000D01*
X46576224Y-52475000D01*
X46162739Y-52646271D01*
X45846271Y-52962739D01*
X45675000Y-53376224D01*
X42643193Y-53376224D01*
X43099247Y-52920170D01*
X43575000Y-51771601D01*
X43575000Y-50528399D01*
X43099247Y-49379830D01*
X42220170Y-48500753D01*
X41071601Y-48025000D01*
X39828399Y-48025000D01*
X38679830Y-48500753D01*
X37800753Y-49379830D01*
X37325000Y-50528399D01*
X36199417Y-50528399D01*
X37877817Y-48850000D01*
X38064103Y-48850000D01*
X38367325Y-48724401D01*
X38599401Y-48492325D01*
X38725000Y-48189103D01*
X38725000Y-47860897D01*
X38599401Y-47557675D01*
X38367325Y-47325599D01*
X38184813Y-47250000D01*
X71972193Y-47250000D01*
X70687698Y-48534495D01*
X70687698Y-48534495D01*
G37*
X70687698Y-48534495D02*
X70683431Y-48537347D01*
X70473244Y-48537347D01*
X70170022Y-48662946D01*
X69937946Y-48895022D01*
X69812347Y-49198244D01*
X69812347Y-49526450D01*
X69937946Y-49829672D01*
X69983274Y-49875000D01*
X69950599Y-49907675D01*
X69825000Y-50210897D01*
X69825000Y-50539103D01*
X69950599Y-50842325D01*
X70182675Y-51074401D01*
X70485897Y-51200000D01*
X70814103Y-51200000D01*
X71117325Y-51074401D01*
X71175000Y-51016726D01*
X71232675Y-51074401D01*
X71535897Y-51200000D01*
X71864103Y-51200000D01*
X72167325Y-51074401D01*
X72399401Y-50842325D01*
X72525000Y-50539103D01*
X72525000Y-50327817D01*
X72527211Y-50325606D01*
X72527213Y-50325603D01*
X73306529Y-49546287D01*
X73325599Y-49592325D01*
X73483121Y-49749847D01*
X73312946Y-49920022D01*
X73187347Y-50223244D01*
X73187347Y-50551450D01*
X73312946Y-50854672D01*
X73545022Y-51086748D01*
X73555921Y-51091262D01*
X71287487Y-53359697D01*
X71007675Y-53475599D01*
X70997703Y-53485571D01*
X67983707Y-50471576D01*
X68006408Y-50456408D01*
X68100341Y-50315827D01*
X68133326Y-50150000D01*
X68133326Y-48450000D01*
X68100341Y-48284173D01*
X68006408Y-48143592D01*
X67865827Y-48049659D01*
X67700000Y-48016674D01*
X66000000Y-48016674D01*
X65834173Y-48049659D01*
X65693592Y-48143592D01*
X65599659Y-48284173D01*
X65566674Y-48450000D01*
X65566674Y-48572425D01*
X65497815Y-48425503D01*
X65072742Y-48037513D01*
X64663372Y-47867955D01*
X64435000Y-47987188D01*
X64435000Y-49175000D01*
X64455000Y-49175000D01*
X64455000Y-49425000D01*
X64435000Y-49425000D01*
X64435000Y-49445000D01*
X64185000Y-49445000D01*
X64185000Y-49425000D01*
X64165000Y-49425000D01*
X64165000Y-49175000D01*
X64185000Y-49175000D01*
X64185000Y-47987188D01*
X63956628Y-47867955D01*
X63547258Y-48037513D01*
X63122185Y-48425503D01*
X62956014Y-48780057D01*
X62689223Y-48380777D01*
X62267480Y-48098977D01*
X61895573Y-48025000D01*
X61644427Y-48025000D01*
X61272520Y-48098977D01*
X60850777Y-48380777D01*
X60568977Y-48802520D01*
X60500000Y-49149291D01*
X60431023Y-48802520D01*
X60149223Y-48380777D01*
X59727480Y-48098977D01*
X59355573Y-48025000D01*
X59104427Y-48025000D01*
X58732520Y-48098977D01*
X58310777Y-48380777D01*
X58028977Y-48802520D01*
X57960000Y-49149291D01*
X57891023Y-48802520D01*
X57609223Y-48380777D01*
X57187480Y-48098977D01*
X56815573Y-48025000D01*
X56564427Y-48025000D01*
X56192520Y-48098977D01*
X55770777Y-48380777D01*
X55488977Y-48802520D01*
X55420000Y-49149291D01*
X55351023Y-48802520D01*
X55069223Y-48380777D01*
X54647480Y-48098977D01*
X54275573Y-48025000D01*
X54024427Y-48025000D01*
X53652520Y-48098977D01*
X53230777Y-48380777D01*
X52963986Y-48780057D01*
X52797815Y-48425503D01*
X52372742Y-48037513D01*
X51963372Y-47867955D01*
X51735000Y-47987188D01*
X51735000Y-49175000D01*
X51755000Y-49175000D01*
X51755000Y-49425000D01*
X51735000Y-49425000D01*
X51735000Y-49445000D01*
X51485000Y-49445000D01*
X51485000Y-49425000D01*
X51465000Y-49425000D01*
X51465000Y-49175000D01*
X51485000Y-49175000D01*
X51485000Y-47987188D01*
X51256628Y-47867955D01*
X50847258Y-48037513D01*
X50422185Y-48425503D01*
X50256014Y-48780057D01*
X49989223Y-48380777D01*
X49567480Y-48098977D01*
X49195573Y-48025000D01*
X48944427Y-48025000D01*
X48572520Y-48098977D01*
X48150777Y-48380777D01*
X47868977Y-48802520D01*
X47770022Y-49300000D01*
X47868977Y-49797480D01*
X48150777Y-50219223D01*
X48572520Y-50501023D01*
X48944427Y-50575000D01*
X49195573Y-50575000D01*
X49505529Y-50513346D01*
X49817789Y-50825606D01*
X49848473Y-50871529D01*
X49894395Y-50902213D01*
X50030400Y-50993089D01*
X50030401Y-50993089D01*
X50030402Y-50993090D01*
X50190831Y-51025001D01*
X50245000Y-51035776D01*
X50299169Y-51025001D01*
X59497185Y-51025001D01*
X60197806Y-51725623D01*
X60228492Y-51771548D01*
X60410421Y-51893109D01*
X60570850Y-51925020D01*
X60625019Y-51935795D01*
X60679188Y-51925020D01*
X66397204Y-51925020D01*
X70197786Y-55725603D01*
X70228472Y-55771528D01*
X70410401Y-55893089D01*
X70570830Y-55925000D01*
X70570831Y-55925000D01*
X70625000Y-55935775D01*
X70679169Y-55925000D01*
X77358274Y-55925000D01*
X77507675Y-56074401D01*
X77810897Y-56200000D01*
X78022184Y-56200000D01*
X78597183Y-56775000D01*
X66929065Y-56775000D01*
X66849401Y-56582675D01*
X66617325Y-56350599D01*
X66314103Y-56225000D01*
X65985897Y-56225000D01*
X65682675Y-56350599D01*
X65450599Y-56582675D01*
X65325000Y-56885897D01*
X65325000Y-57214103D01*
X65350225Y-57275001D01*
X65091725Y-57275001D01*
X64942324Y-57125600D01*
X64639102Y-57000001D01*
X64310896Y-57000001D01*
X64007674Y-57125600D01*
X63775598Y-57357676D01*
X63649999Y-57660898D01*
X63649999Y-57989104D01*
X63775598Y-58292326D01*
X64007674Y-58524402D01*
X64310896Y-58650001D01*
X64639102Y-58650001D01*
X64942324Y-58524402D01*
X65091725Y-58375001D01*
X76144742Y-58375001D01*
X75987513Y-58547258D01*
X75817955Y-58956628D01*
X75937188Y-59185000D01*
X77125000Y-59185000D01*
X77125000Y-59165000D01*
X77375000Y-59165000D01*
X77375000Y-59185000D01*
X78562812Y-59185000D01*
X78682045Y-58956628D01*
X78512487Y-58547258D01*
X78355258Y-58375001D01*
X90597185Y-58375001D01*
X91325000Y-59102817D01*
X91325000Y-59175000D01*
X91235897Y-59175000D01*
X90932675Y-59300599D01*
X90700599Y-59532675D01*
X90575000Y-59835897D01*
X90575000Y-60047184D01*
X90572184Y-60050000D01*
X78521907Y-60050000D01*
X78682045Y-59663372D01*
X78562812Y-59435000D01*
X77375000Y-59435000D01*
X77375000Y-59455000D01*
X77125000Y-59455000D01*
X77125000Y-59435000D01*
X75937188Y-59435000D01*
X75817955Y-59663372D01*
X75978093Y-60050000D01*
X73016726Y-60050000D01*
X72867325Y-59900599D01*
X72564103Y-59775000D01*
X72235897Y-59775000D01*
X71932675Y-59900599D01*
X71700599Y-60132675D01*
X71575000Y-60435897D01*
X71575000Y-60764103D01*
X71700599Y-61067325D01*
X71932675Y-61299401D01*
X72235897Y-61425000D01*
X72564103Y-61425000D01*
X72867325Y-61299401D01*
X73016726Y-61150000D01*
X75966674Y-61150000D01*
X75966674Y-62650000D01*
X75757166Y-62650000D01*
X75702997Y-62639225D01*
X75648828Y-62650000D01*
X75488399Y-62681911D01*
X75306470Y-62803472D01*
X75275785Y-62849396D01*
X72899400Y-65225782D01*
X72853472Y-65256470D01*
X72731911Y-65438400D01*
X72706511Y-65566096D01*
X72689225Y-65652998D01*
X72700000Y-65707167D01*
X72700001Y-69330135D01*
X72700000Y-69330140D01*
X72700000Y-69333268D01*
X72550599Y-69482669D01*
X72425000Y-69785891D01*
X72425000Y-70114097D01*
X72550599Y-70417319D01*
X72782675Y-70649395D01*
X73085897Y-70774994D01*
X73414103Y-70774994D01*
X73717325Y-70649395D01*
X73949401Y-70417319D01*
X74075000Y-70114097D01*
X74075000Y-69785891D01*
X73949401Y-69482669D01*
X73800000Y-69333268D01*
X73800000Y-65880814D01*
X75930815Y-63750000D01*
X76475553Y-63750000D01*
X76363531Y-64020445D01*
X76363531Y-64348651D01*
X76489130Y-64651873D01*
X76721206Y-64883949D01*
X77024428Y-65009548D01*
X77025000Y-65009548D01*
X77025000Y-65164103D01*
X77150599Y-65467325D01*
X77382675Y-65699401D01*
X77646020Y-65808482D01*
X77272406Y-66182097D01*
X77226481Y-66212783D01*
X77104920Y-66394712D01*
X77074722Y-66546527D01*
X77072231Y-66559047D01*
X76923607Y-66707671D01*
X76798008Y-67010893D01*
X76798008Y-67339099D01*
X76923607Y-67642321D01*
X77155683Y-67874397D01*
X77458905Y-67999996D01*
X77787111Y-67999996D01*
X78090333Y-67874397D01*
X78322409Y-67642321D01*
X78448008Y-67339099D01*
X78448008Y-67010893D01*
X78322409Y-66707671D01*
X78312437Y-66697699D01*
X78525000Y-66485136D01*
X78525000Y-66564099D01*
X78650599Y-66867321D01*
X78708276Y-66924998D01*
X78650599Y-66982675D01*
X78525000Y-67285897D01*
X78525000Y-67614103D01*
X78643423Y-67900000D01*
X78454168Y-67900000D01*
X78399999Y-67889225D01*
X78345830Y-67900000D01*
X78185401Y-67931911D01*
X78185400Y-67931912D01*
X78185399Y-67931912D01*
X78180176Y-67935402D01*
X78003472Y-68053472D01*
X77972787Y-68099396D01*
X76699398Y-69372786D01*
X76653473Y-69403472D01*
X76555566Y-69550000D01*
X76531912Y-69585401D01*
X76489225Y-69800000D01*
X76500001Y-69854174D01*
X76500000Y-74983274D01*
X76493686Y-74989588D01*
X76449401Y-74882675D01*
X76217325Y-74650599D01*
X75914103Y-74525000D01*
X75585897Y-74525000D01*
X75282675Y-74650599D01*
X75050599Y-74882675D01*
X74925000Y-75185897D01*
X74925000Y-75397183D01*
X74522174Y-75800010D01*
X70777806Y-75800010D01*
X75002817Y-71575000D01*
X75214103Y-71575000D01*
X75517325Y-71449401D01*
X75749401Y-71217325D01*
X75875000Y-70914103D01*
X75875000Y-70585897D01*
X75749401Y-70282675D01*
X75517325Y-70050599D01*
X75214103Y-69925000D01*
X74885897Y-69925000D01*
X74582675Y-70050599D01*
X74350599Y-70282675D01*
X74225000Y-70585897D01*
X74225000Y-70797183D01*
X69722184Y-75300000D01*
X67416726Y-75300000D01*
X67499401Y-75217325D01*
X67625000Y-74914103D01*
X67625000Y-74585897D01*
X67499401Y-74282675D01*
X67267325Y-74050599D01*
X66964103Y-73925000D01*
X66929594Y-73925000D01*
X66324309Y-73319716D01*
X66286648Y-73263352D01*
X66063372Y-73114164D01*
X65866481Y-73075000D01*
X65800000Y-73061776D01*
X65740364Y-73073638D01*
X65717325Y-73050599D01*
X65414103Y-72925000D01*
X65085897Y-72925000D01*
X64782675Y-73050599D01*
X64550599Y-73282675D01*
X64425000Y-73585897D01*
X64425000Y-73914103D01*
X64550599Y-74217325D01*
X64782675Y-74449401D01*
X65085897Y-74575000D01*
X65414103Y-74575000D01*
X65595337Y-74499930D01*
X65975000Y-74879594D01*
X65975000Y-74914103D01*
X66100599Y-75217325D01*
X66183274Y-75300000D01*
X59654155Y-75300000D01*
X59599986Y-75289225D01*
X59545817Y-75300000D01*
X59385388Y-75331911D01*
X59203459Y-75453472D01*
X59172774Y-75499396D01*
X58097171Y-76575000D01*
X57885884Y-76575000D01*
X57582662Y-76700599D01*
X57350586Y-76932675D01*
X57224987Y-77235897D01*
X57224987Y-77564103D01*
X57350586Y-77867325D01*
X57582662Y-78099401D01*
X57885884Y-78225000D01*
X58214090Y-78225000D01*
X58517312Y-78099401D01*
X58624994Y-77991720D01*
X58677728Y-78044454D01*
X56249400Y-80472784D01*
X56203472Y-80503472D01*
X56081911Y-80685402D01*
X56056973Y-80810775D01*
X56039225Y-80900000D01*
X56050000Y-80954169D01*
X56050001Y-82133273D01*
X55900599Y-82282675D01*
X55775000Y-82585897D01*
X55775000Y-82914103D01*
X55900599Y-83217325D01*
X56132675Y-83449401D01*
X56435897Y-83575000D01*
X56764103Y-83575000D01*
X57067325Y-83449401D01*
X57299401Y-83217325D01*
X57425000Y-82914103D01*
X57425000Y-82585897D01*
X57299401Y-82282675D01*
X57150000Y-82133274D01*
X57150000Y-81127816D01*
X59552817Y-78725001D01*
X59620830Y-78725001D01*
X59674999Y-78735776D01*
X59725000Y-78725830D01*
X59725000Y-78764103D01*
X59850599Y-79067325D01*
X60000000Y-79216726D01*
X60000000Y-79219854D01*
X60000001Y-79219859D01*
X60000001Y-79720936D01*
X59889103Y-79675000D01*
X59560897Y-79675000D01*
X59257675Y-79800599D01*
X59025599Y-80032675D01*
X58900000Y-80335897D01*
X58900000Y-80664103D01*
X59025599Y-80967325D01*
X59150000Y-81091726D01*
X59150001Y-86922182D01*
X55372184Y-90700000D01*
X46716726Y-90700000D01*
X46567325Y-90550599D01*
X46264103Y-90425000D01*
X45935897Y-90425000D01*
X45632675Y-90550599D01*
X45400599Y-90782675D01*
X45275000Y-91085897D01*
X45275000Y-91414103D01*
X45400599Y-91717325D01*
X45632675Y-91949401D01*
X45935897Y-92075000D01*
X46264103Y-92075000D01*
X46567325Y-91949401D01*
X46716726Y-91800000D01*
X55172184Y-91800000D01*
X54272184Y-92700000D01*
X46716726Y-92700000D01*
X46567325Y-92550599D01*
X46264103Y-92425000D01*
X45935897Y-92425000D01*
X45632675Y-92550599D01*
X45400599Y-92782675D01*
X45275000Y-93085897D01*
X45275000Y-93414103D01*
X45400599Y-93717325D01*
X45632675Y-93949401D01*
X45935897Y-94075000D01*
X46264103Y-94075000D01*
X46567325Y-93949401D01*
X46716726Y-93800000D01*
X51597183Y-93800000D01*
X50322184Y-95075000D01*
X50110897Y-95075000D01*
X49807675Y-95200599D01*
X49575599Y-95432675D01*
X49450000Y-95735897D01*
X49450000Y-96064103D01*
X49575599Y-96367325D01*
X49807675Y-96599401D01*
X50110897Y-96725000D01*
X50439103Y-96725000D01*
X50742325Y-96599401D01*
X50974401Y-96367325D01*
X51100000Y-96064103D01*
X51100000Y-95852816D01*
X52402817Y-94550000D01*
X54545831Y-94550000D01*
X54600000Y-94560775D01*
X54654169Y-94550000D01*
X54654170Y-94550000D01*
X54814599Y-94518089D01*
X54996528Y-94396528D01*
X55027216Y-94350600D01*
X58625000Y-90752817D01*
X58625000Y-91039103D01*
X58750599Y-91342325D01*
X58982675Y-91574401D01*
X59285897Y-91700000D01*
X59614103Y-91700000D01*
X59917325Y-91574401D01*
X60149401Y-91342325D01*
X60275000Y-91039103D01*
X60275000Y-90710897D01*
X60149401Y-90407675D01*
X60000000Y-90258274D01*
X60000000Y-90227816D01*
X64502816Y-85725001D01*
X65872181Y-85725001D01*
X57399400Y-94197784D01*
X57353472Y-94228472D01*
X57231911Y-94410402D01*
X57210491Y-94518088D01*
X57189225Y-94625000D01*
X57200000Y-94679169D01*
X57200001Y-98783273D01*
X57050599Y-98932675D01*
X56925000Y-99235897D01*
X56925000Y-99564103D01*
X57050599Y-99867325D01*
X57282675Y-100099401D01*
X57585897Y-100225000D01*
X57914103Y-100225000D01*
X58025001Y-100179065D01*
X58025001Y-102622182D01*
X57797183Y-102850000D01*
X57585897Y-102850000D01*
X57282675Y-102975599D01*
X57050599Y-103207675D01*
X56925000Y-103510897D01*
X56925000Y-103839103D01*
X56981291Y-103975000D01*
X56447592Y-103975000D01*
X49298285Y-96825694D01*
X49244047Y-96789454D01*
X47924309Y-95469716D01*
X47886648Y-95413352D01*
X47663372Y-95264164D01*
X47466481Y-95225000D01*
X47400000Y-95211776D01*
X47333519Y-95225000D01*
X40179594Y-95225000D01*
X39125000Y-94170407D01*
X39125000Y-94135897D01*
X38999401Y-93832675D01*
X38767325Y-93600599D01*
X38464103Y-93475000D01*
X38135897Y-93475000D01*
X37832675Y-93600599D01*
X37600599Y-93832675D01*
X37475000Y-94135897D01*
X37475000Y-94464103D01*
X37600599Y-94767325D01*
X37832675Y-94999401D01*
X38135897Y-95125000D01*
X38170407Y-95125000D01*
X39375692Y-96330286D01*
X39413352Y-96386648D01*
X39529272Y-96464103D01*
X39636628Y-96535836D01*
X39900000Y-96588224D01*
X39966481Y-96575000D01*
X47120407Y-96575000D01*
X48419712Y-97874306D01*
X48473955Y-97910550D01*
X55643691Y-105080287D01*
X55681350Y-105136648D01*
X55904626Y-105285836D01*
X56167997Y-105338224D01*
X56234478Y-105325000D01*
X59125000Y-105325000D01*
X59125000Y-110250000D01*
X59172575Y-110489177D01*
X59308058Y-110691942D01*
X59510823Y-110827425D01*
X59750000Y-110875000D01*
X71500000Y-110875000D01*
X71739177Y-110827425D01*
X71941942Y-110691942D01*
X72077425Y-110489177D01*
X72125000Y-110250000D01*
X72125000Y-100625000D01*
X76416853Y-100625000D01*
X76210344Y-100831509D01*
X76133113Y-100883113D01*
X75928670Y-101189084D01*
X75875000Y-101458901D01*
X75875000Y-101458904D01*
X75856880Y-101550000D01*
X75875000Y-101641096D01*
X75875001Y-109500225D01*
X75814103Y-109475000D01*
X75485897Y-109475000D01*
X75182675Y-109600599D01*
X74950599Y-109832675D01*
X74825000Y-110135897D01*
X74825000Y-110464103D01*
X74950599Y-110767325D01*
X74983274Y-110800000D01*
X74950599Y-110832675D01*
X74825000Y-111135897D01*
X74825000Y-111464103D01*
X74950599Y-111767325D01*
X75182675Y-111999401D01*
X75485897Y-112125000D01*
X75814103Y-112125000D01*
X75875001Y-112099775D01*
X75875001Y-116008899D01*
X75856880Y-116100000D01*
X75928670Y-116460916D01*
X76081509Y-116689656D01*
X76081511Y-116689658D01*
X76133114Y-116766887D01*
X76210342Y-116818489D01*
X77875000Y-118483148D01*
X77875000Y-118666674D01*
X77600000Y-118666674D01*
X77434173Y-118699659D01*
X77293592Y-118793592D01*
X77199659Y-118934173D01*
X77166674Y-119100000D01*
X77166674Y-121500000D01*
X77199659Y-121665827D01*
X77293592Y-121806408D01*
X77434173Y-121900341D01*
X77600000Y-121933326D01*
X80000000Y-121933326D01*
X80165827Y-121900341D01*
X80306408Y-121806408D01*
X80325122Y-121778399D01*
X133575000Y-121778399D01*
X133575000Y-123021601D01*
X134050753Y-124170170D01*
X134929830Y-125049247D01*
X136078399Y-125525000D01*
X137321601Y-125525000D01*
X138470170Y-125049247D01*
X139349247Y-124170170D01*
X139825000Y-123021601D01*
X139825000Y-121778399D01*
X139349247Y-120629830D01*
X139225749Y-120506332D01*
X145525000Y-120506332D01*
X145525000Y-120993668D01*
X145711495Y-121443907D01*
X146056093Y-121788505D01*
X146506332Y-121975000D01*
X146993668Y-121975000D01*
X147443907Y-121788505D01*
X147788505Y-121443907D01*
X147975000Y-120993668D01*
X147975000Y-120506332D01*
X147788505Y-120056093D01*
X147443907Y-119711495D01*
X146993668Y-119525000D01*
X146506332Y-119525000D01*
X146056093Y-119711495D01*
X145711495Y-120056093D01*
X145525000Y-120506332D01*
X139225749Y-120506332D01*
X138470170Y-119750753D01*
X137321601Y-119275000D01*
X136078399Y-119275000D01*
X134929830Y-119750753D01*
X134050753Y-120629830D01*
X133575000Y-121778399D01*
X80325122Y-121778399D01*
X80400341Y-121665827D01*
X80433326Y-121500000D01*
X80433326Y-120106332D01*
X95125000Y-120106332D01*
X95125000Y-120593668D01*
X95311495Y-121043907D01*
X95656093Y-121388505D01*
X96106332Y-121575000D01*
X96593668Y-121575000D01*
X97043907Y-121388505D01*
X97388505Y-121043907D01*
X97575000Y-120593668D01*
X97575000Y-120106332D01*
X97388505Y-119656093D01*
X97043907Y-119311495D01*
X96593668Y-119125000D01*
X96106332Y-119125000D01*
X95656093Y-119311495D01*
X95311495Y-119656093D01*
X95125000Y-120106332D01*
X80433326Y-120106332D01*
X80433326Y-119100000D01*
X80400341Y-118934173D01*
X80306408Y-118793592D01*
X80165827Y-118699659D01*
X80000000Y-118666674D01*
X79725000Y-118666674D01*
X79725000Y-118191095D01*
X79743120Y-118099999D01*
X79725000Y-118008901D01*
X79725000Y-118008900D01*
X79671330Y-117739083D01*
X79466887Y-117433113D01*
X79389659Y-117381511D01*
X79124779Y-117116631D01*
X79213889Y-117114139D01*
X79790126Y-116875454D01*
X79913632Y-116590409D01*
X78800000Y-115476777D01*
X78785858Y-115490919D01*
X78609081Y-115314142D01*
X78623223Y-115300000D01*
X78976777Y-115300000D01*
X80090409Y-116413632D01*
X80375454Y-116290126D01*
X80634434Y-115611857D01*
X80614139Y-114886111D01*
X80375454Y-114309874D01*
X80090409Y-114186368D01*
X78976777Y-115300000D01*
X78623223Y-115300000D01*
X78609081Y-115285858D01*
X78785858Y-115109081D01*
X78800000Y-115123223D01*
X79913632Y-114009591D01*
X79790126Y-113724546D01*
X79111857Y-113465566D01*
X78386111Y-113485861D01*
X77809874Y-113724546D01*
X77725000Y-113920430D01*
X77725000Y-111079065D01*
X77835897Y-111125000D01*
X78164103Y-111125000D01*
X78467325Y-110999401D01*
X78616726Y-110850000D01*
X83695831Y-110850000D01*
X83750000Y-110860775D01*
X83804169Y-110850000D01*
X83804170Y-110850000D01*
X83964599Y-110818089D01*
X84146528Y-110696528D01*
X84177217Y-110650599D01*
X86702817Y-108125000D01*
X86914103Y-108125000D01*
X87217325Y-107999401D01*
X87449401Y-107767325D01*
X87575000Y-107464103D01*
X87575000Y-107135897D01*
X87449401Y-106832675D01*
X87217325Y-106600599D01*
X86914103Y-106475000D01*
X86585897Y-106475000D01*
X86282675Y-106600599D01*
X86050599Y-106832675D01*
X85925000Y-107135897D01*
X85925000Y-107347183D01*
X83522184Y-109750000D01*
X78616726Y-109750000D01*
X78467325Y-109600599D01*
X78164103Y-109475000D01*
X77835897Y-109475000D01*
X77725000Y-109520935D01*
X77725000Y-102385897D01*
X83875000Y-102385897D01*
X83875000Y-102714103D01*
X84000599Y-103017325D01*
X84025001Y-103041727D01*
X84025000Y-106358274D01*
X84000599Y-106382675D01*
X83875000Y-106685897D01*
X83875000Y-107014103D01*
X84000599Y-107317325D01*
X84232675Y-107549401D01*
X84535897Y-107675000D01*
X84864103Y-107675000D01*
X85167325Y-107549401D01*
X85399401Y-107317325D01*
X85525000Y-107014103D01*
X85525000Y-106685897D01*
X85399401Y-106382675D01*
X85375000Y-106358274D01*
X85375000Y-103041726D01*
X85399401Y-103017325D01*
X85525000Y-102714103D01*
X85525000Y-102385897D01*
X85399401Y-102082675D01*
X85167325Y-101850599D01*
X84864103Y-101725000D01*
X84535897Y-101725000D01*
X84232675Y-101850599D01*
X84000599Y-102082675D01*
X83875000Y-102385897D01*
X77725000Y-102385897D01*
X77725000Y-101933147D01*
X78268491Y-101389657D01*
X78421330Y-101160917D01*
X78493120Y-100800001D01*
X78458311Y-100625000D01*
X78500000Y-100625000D01*
X78739177Y-100577425D01*
X78941942Y-100441942D01*
X79077425Y-100239177D01*
X79125000Y-100000000D01*
X79125000Y-95435897D01*
X86725000Y-95435897D01*
X86725000Y-95764103D01*
X86850599Y-96067325D01*
X87000000Y-96216726D01*
X87000001Y-99183273D01*
X86850599Y-99332675D01*
X86725000Y-99635897D01*
X86725000Y-99964103D01*
X86850599Y-100267325D01*
X87082675Y-100499401D01*
X87385897Y-100625000D01*
X87714103Y-100625000D01*
X88000001Y-100506577D01*
X88000001Y-100733273D01*
X87900599Y-100832675D01*
X87775000Y-101135897D01*
X87775000Y-101464103D01*
X87900599Y-101767325D01*
X88132675Y-101999401D01*
X88435897Y-102125000D01*
X88764103Y-102125000D01*
X88874996Y-102079066D01*
X88874996Y-102264099D01*
X89000595Y-102567321D01*
X89232671Y-102799397D01*
X89535893Y-102924996D01*
X89864099Y-102924996D01*
X90167321Y-102799397D01*
X90399397Y-102567321D01*
X90524996Y-102264099D01*
X90524996Y-102229248D01*
X90635836Y-102063364D01*
X90665514Y-101914164D01*
X90688224Y-101799992D01*
X90675000Y-101733511D01*
X90675000Y-98091726D01*
X90699401Y-98067325D01*
X90825000Y-97764103D01*
X90825000Y-97535897D01*
X102825000Y-97535897D01*
X102825000Y-97864103D01*
X102950599Y-98167325D01*
X103100001Y-98316727D01*
X103100000Y-102133274D01*
X102950599Y-102282675D01*
X102825000Y-102585897D01*
X102825000Y-102914103D01*
X102950599Y-103217325D01*
X103182675Y-103449401D01*
X103485897Y-103575000D01*
X103814103Y-103575000D01*
X104117325Y-103449401D01*
X104225000Y-103341726D01*
X104332675Y-103449401D01*
X104635897Y-103575000D01*
X104964103Y-103575000D01*
X105267325Y-103449401D01*
X105499401Y-103217325D01*
X105625000Y-102914103D01*
X105625000Y-102585897D01*
X105499401Y-102282675D01*
X105350000Y-102133274D01*
X105350000Y-98485897D01*
X125425000Y-98485897D01*
X125425000Y-98814103D01*
X125550599Y-99117325D01*
X125700000Y-99266726D01*
X125700001Y-101983277D01*
X125550603Y-102132675D01*
X125425004Y-102435897D01*
X125425004Y-102764103D01*
X125550603Y-103067325D01*
X125782679Y-103299401D01*
X126085901Y-103425000D01*
X126414107Y-103425000D01*
X126717329Y-103299401D01*
X126949405Y-103067325D01*
X127075004Y-102764103D01*
X127075004Y-102435897D01*
X126949405Y-102132675D01*
X126800000Y-101983270D01*
X126800000Y-99266726D01*
X126949401Y-99117325D01*
X127075000Y-98814103D01*
X127075000Y-98485897D01*
X126949401Y-98182675D01*
X126717325Y-97950599D01*
X126414103Y-97825000D01*
X126085897Y-97825000D01*
X125782675Y-97950599D01*
X125550599Y-98182675D01*
X125425000Y-98485897D01*
X105350000Y-98485897D01*
X105350000Y-98316726D01*
X105499401Y-98167325D01*
X105625000Y-97864103D01*
X105625000Y-97535897D01*
X105499401Y-97232675D01*
X105267325Y-97000599D01*
X104964103Y-96875000D01*
X104635897Y-96875000D01*
X104332675Y-97000599D01*
X104225000Y-97108274D01*
X104117325Y-97000599D01*
X103814103Y-96875000D01*
X103485897Y-96875000D01*
X103182675Y-97000599D01*
X102950599Y-97232675D01*
X102825000Y-97535897D01*
X90825000Y-97535897D01*
X90825000Y-97435897D01*
X90699401Y-97132675D01*
X90467325Y-96900599D01*
X90164103Y-96775000D01*
X89835897Y-96775000D01*
X89600000Y-96872712D01*
X89600000Y-96524458D01*
X89625000Y-96464103D01*
X89625000Y-96135897D01*
X89550510Y-95956061D01*
X95375000Y-95956061D01*
X95375000Y-96343939D01*
X95523435Y-96702293D01*
X95797707Y-96976565D01*
X96156061Y-97125000D01*
X96543939Y-97125000D01*
X96902293Y-96976565D01*
X97176565Y-96702293D01*
X97325000Y-96343939D01*
X97325000Y-95956061D01*
X97176565Y-95597707D01*
X96902293Y-95323435D01*
X96543939Y-95175000D01*
X96156061Y-95175000D01*
X95797707Y-95323435D01*
X95523435Y-95597707D01*
X95375000Y-95956061D01*
X89550510Y-95956061D01*
X89499401Y-95832675D01*
X89267325Y-95600599D01*
X88964103Y-95475000D01*
X88635897Y-95475000D01*
X88375000Y-95583067D01*
X88375000Y-95435897D01*
X88249401Y-95132675D01*
X88052623Y-94935897D01*
X132375000Y-94935897D01*
X132375000Y-95264103D01*
X132500599Y-95567325D01*
X132732675Y-95799401D01*
X133035897Y-95925000D01*
X133364103Y-95925000D01*
X133667325Y-95799401D01*
X133691726Y-95775000D01*
X135233519Y-95775000D01*
X135300000Y-95788224D01*
X135366481Y-95775000D01*
X135563372Y-95735836D01*
X135786648Y-95586648D01*
X135824309Y-95530284D01*
X137575007Y-93779587D01*
X137575006Y-94687629D01*
X137575006Y-94687630D01*
X137575007Y-97217830D01*
X137575006Y-97217835D01*
X137575006Y-97358274D01*
X137550605Y-97382675D01*
X137425006Y-97685897D01*
X137425006Y-98014103D01*
X137550605Y-98317325D01*
X137782681Y-98549401D01*
X138085903Y-98675000D01*
X138414109Y-98675000D01*
X138717331Y-98549401D01*
X138875003Y-98391729D01*
X138982675Y-98499401D01*
X139285897Y-98625000D01*
X139614103Y-98625000D01*
X139917325Y-98499401D01*
X140050000Y-98366726D01*
X140182675Y-98499401D01*
X140485897Y-98625000D01*
X140814103Y-98625000D01*
X141117325Y-98499401D01*
X141349401Y-98267325D01*
X141475000Y-97964103D01*
X141475000Y-97635897D01*
X141349401Y-97332675D01*
X141200000Y-97183274D01*
X141200000Y-94975000D01*
X141379796Y-94975000D01*
X141683018Y-94849401D01*
X141915094Y-94617325D01*
X142040693Y-94314103D01*
X142040693Y-94035897D01*
X144325000Y-94035897D01*
X144325000Y-94364103D01*
X144450599Y-94667325D01*
X144600001Y-94816727D01*
X144600000Y-98195831D01*
X144589225Y-98250000D01*
X144600000Y-98304169D01*
X144631911Y-98464598D01*
X144753472Y-98646528D01*
X144799400Y-98677216D01*
X144825000Y-98702816D01*
X144825000Y-98914103D01*
X144950599Y-99217325D01*
X145182675Y-99449401D01*
X145485897Y-99575000D01*
X145814103Y-99575000D01*
X146117325Y-99449401D01*
X146349401Y-99217325D01*
X146475000Y-98914103D01*
X146475000Y-98585897D01*
X146349401Y-98282675D01*
X146117325Y-98050599D01*
X145814103Y-97925000D01*
X145700000Y-97925000D01*
X145700000Y-95556061D01*
X145775000Y-95556061D01*
X145775000Y-95943939D01*
X145923435Y-96302293D01*
X146197707Y-96576565D01*
X146556061Y-96725000D01*
X146943939Y-96725000D01*
X147302293Y-96576565D01*
X147442961Y-96435897D01*
X147925000Y-96435897D01*
X147925000Y-96764103D01*
X148050599Y-97067325D01*
X148200000Y-97216726D01*
X148200001Y-97908273D01*
X148050599Y-98057675D01*
X147925000Y-98360897D01*
X147925000Y-98689103D01*
X148050599Y-98992325D01*
X148282675Y-99224401D01*
X148585897Y-99350000D01*
X148914103Y-99350000D01*
X149217325Y-99224401D01*
X149449401Y-98992325D01*
X149575000Y-98689103D01*
X149575000Y-98360897D01*
X149449401Y-98057675D01*
X149300000Y-97908274D01*
X149300000Y-97216726D01*
X149449401Y-97067325D01*
X149575000Y-96764103D01*
X149575000Y-96435897D01*
X149449401Y-96132675D01*
X149217325Y-95900599D01*
X148914103Y-95775000D01*
X148585897Y-95775000D01*
X148282675Y-95900599D01*
X148050599Y-96132675D01*
X147925000Y-96435897D01*
X147442961Y-96435897D01*
X147576565Y-96302293D01*
X147725000Y-95943939D01*
X147725000Y-95556061D01*
X147576565Y-95197707D01*
X147302293Y-94923435D01*
X146943939Y-94775000D01*
X146556061Y-94775000D01*
X146197707Y-94923435D01*
X145923435Y-95197707D01*
X145775000Y-95556061D01*
X145700000Y-95556061D01*
X145700000Y-94816726D01*
X145849401Y-94667325D01*
X145975000Y-94364103D01*
X145975000Y-94035897D01*
X145849401Y-93732675D01*
X145617325Y-93500599D01*
X145314103Y-93375000D01*
X144985897Y-93375000D01*
X144682675Y-93500599D01*
X144450599Y-93732675D01*
X144325000Y-94035897D01*
X142040693Y-94035897D01*
X142040693Y-93985897D01*
X141915094Y-93682675D01*
X141683018Y-93450599D01*
X141379796Y-93325000D01*
X141051590Y-93325000D01*
X140748368Y-93450599D01*
X140607847Y-93591121D01*
X140467325Y-93450599D01*
X140164103Y-93325000D01*
X140129420Y-93325000D01*
X140261648Y-93236648D01*
X140299309Y-93180284D01*
X146305289Y-87174305D01*
X146361647Y-87136648D01*
X146410610Y-87063371D01*
X146510836Y-86913372D01*
X146563224Y-86650000D01*
X146550000Y-86583519D01*
X146550000Y-83566726D01*
X146574401Y-83542325D01*
X146700000Y-83239103D01*
X146700000Y-82910897D01*
X146574401Y-82607675D01*
X146342325Y-82375599D01*
X146039103Y-82250000D01*
X145710897Y-82250000D01*
X145407675Y-82375599D01*
X145175599Y-82607675D01*
X145050000Y-82910897D01*
X145050000Y-83239103D01*
X145175599Y-83542325D01*
X145200001Y-83566727D01*
X145200000Y-86370406D01*
X140469202Y-91101205D01*
X140399396Y-90932678D01*
X140167320Y-90700602D01*
X139864098Y-90575003D01*
X139535892Y-90575003D01*
X139232670Y-90700602D01*
X139000594Y-90932678D01*
X138920931Y-91125002D01*
X138666479Y-91125002D01*
X138599998Y-91111778D01*
X138533517Y-91125002D01*
X138336626Y-91164166D01*
X138113350Y-91313354D01*
X138075691Y-91369715D01*
X135020407Y-94425000D01*
X133691726Y-94425000D01*
X133667325Y-94400599D01*
X133364103Y-94275000D01*
X133035897Y-94275000D01*
X132732675Y-94400599D01*
X132500599Y-94632675D01*
X132375000Y-94935897D01*
X88052623Y-94935897D01*
X88017325Y-94900599D01*
X87714103Y-94775000D01*
X87385897Y-94775000D01*
X87082675Y-94900599D01*
X86850599Y-95132675D01*
X86725000Y-95435897D01*
X79125000Y-95435897D01*
X79125000Y-94750000D01*
X79077425Y-94510823D01*
X78941942Y-94308058D01*
X78739177Y-94172575D01*
X78500000Y-94125000D01*
X59952816Y-94125000D01*
X62991919Y-91085897D01*
X85825000Y-91085897D01*
X85825000Y-91414103D01*
X85950599Y-91717325D01*
X86182675Y-91949401D01*
X86485897Y-92075000D01*
X86814103Y-92075000D01*
X87117325Y-91949401D01*
X87141726Y-91925000D01*
X90858274Y-91925000D01*
X90882675Y-91949401D01*
X91185897Y-92075000D01*
X91514103Y-92075000D01*
X91817325Y-91949401D01*
X92049401Y-91717325D01*
X92175000Y-91414103D01*
X92175000Y-91085897D01*
X92049401Y-90782675D01*
X91817325Y-90550599D01*
X91514103Y-90425000D01*
X91185897Y-90425000D01*
X90882675Y-90550599D01*
X90858274Y-90575000D01*
X87141726Y-90575000D01*
X87117325Y-90550599D01*
X86814103Y-90425000D01*
X86485897Y-90425000D01*
X86182675Y-90550599D01*
X85950599Y-90782675D01*
X85825000Y-91085897D01*
X62991919Y-91085897D01*
X67452796Y-86625021D01*
X85824972Y-86625021D01*
X87330037Y-86625019D01*
X87384210Y-86635795D01*
X87598809Y-86593108D01*
X87642035Y-86564225D01*
X87780738Y-86471547D01*
X87811424Y-86425622D01*
X90470923Y-83766124D01*
X90516845Y-83735440D01*
X90560170Y-83670600D01*
X90638406Y-83553512D01*
X90681093Y-83338913D01*
X90670317Y-83284740D01*
X90670319Y-82116727D01*
X91800000Y-80987047D01*
X91800000Y-81289101D01*
X91925599Y-81592323D01*
X92157675Y-81824399D01*
X92460897Y-81949998D01*
X92789103Y-81949998D01*
X93092325Y-81824399D01*
X93116726Y-81799998D01*
X99350001Y-81799998D01*
X99350000Y-84979722D01*
X99169714Y-85160008D01*
X99113353Y-85197667D01*
X98964164Y-85420943D01*
X98956370Y-85460127D01*
X98942481Y-85529953D01*
X98689103Y-85425000D01*
X98360897Y-85425000D01*
X98057675Y-85550599D01*
X97825599Y-85782675D01*
X97700000Y-86085897D01*
X97700000Y-86120407D01*
X97695407Y-86125000D01*
X89291726Y-86125000D01*
X89267325Y-86100599D01*
X88964103Y-85975000D01*
X88635897Y-85975000D01*
X88332675Y-86100599D01*
X88100599Y-86332675D01*
X87975000Y-86635897D01*
X87975000Y-86964103D01*
X88100599Y-87267325D01*
X88332675Y-87499401D01*
X88635897Y-87625000D01*
X88964103Y-87625000D01*
X89267325Y-87499401D01*
X89291726Y-87475000D01*
X97908519Y-87475000D01*
X97975000Y-87488224D01*
X98041481Y-87475000D01*
X98238372Y-87435836D01*
X98461648Y-87286648D01*
X98499309Y-87230284D01*
X98654593Y-87075000D01*
X98689103Y-87075000D01*
X98992325Y-86949401D01*
X99062500Y-86879226D01*
X99132675Y-86949401D01*
X99435897Y-87075000D01*
X99764103Y-87075000D01*
X100067325Y-86949401D01*
X100299401Y-86717325D01*
X100425000Y-86414103D01*
X100425000Y-86085897D01*
X100345336Y-85893572D01*
X100455286Y-85783622D01*
X100511647Y-85745963D01*
X100660836Y-85522687D01*
X100700000Y-85325796D01*
X100700000Y-85325795D01*
X100713224Y-85259315D01*
X100700000Y-85192834D01*
X100700000Y-81191480D01*
X100713224Y-81125000D01*
X100700000Y-81058519D01*
X100700000Y-80879593D01*
X100804594Y-80775000D01*
X101195407Y-80775000D01*
X101450692Y-81030286D01*
X101488352Y-81086648D01*
X101645246Y-81191481D01*
X101711628Y-81235836D01*
X101975000Y-81288224D01*
X102041481Y-81275000D01*
X102058274Y-81275000D01*
X102082675Y-81299401D01*
X102385897Y-81425000D01*
X102714103Y-81425000D01*
X103017325Y-81299401D01*
X103072163Y-81244563D01*
X103136991Y-81309391D01*
X103440213Y-81434990D01*
X103768419Y-81434990D01*
X104071641Y-81309391D01*
X104226042Y-81154990D01*
X106184245Y-81154990D01*
X106501670Y-81472416D01*
X106532077Y-81517923D01*
X106657704Y-81601864D01*
X106712350Y-81638378D01*
X106712351Y-81638378D01*
X106712352Y-81638379D01*
X106871323Y-81670000D01*
X106871326Y-81670000D01*
X106924999Y-81680676D01*
X106978672Y-81670000D01*
X108199255Y-81670000D01*
X108451670Y-81922416D01*
X108482077Y-81967923D01*
X108594569Y-82043088D01*
X108662350Y-82088378D01*
X108662351Y-82088378D01*
X108662352Y-82088379D01*
X108821323Y-82120000D01*
X108821326Y-82120000D01*
X108874999Y-82130676D01*
X108928672Y-82120000D01*
X110199255Y-82120000D01*
X110806264Y-82727010D01*
X110706126Y-82827148D01*
X110580527Y-83130370D01*
X110580527Y-83458576D01*
X110706126Y-83761798D01*
X110751301Y-83806973D01*
X110700599Y-83857675D01*
X110575000Y-84160897D01*
X110575000Y-84489103D01*
X110700599Y-84792325D01*
X110932675Y-85024401D01*
X111235897Y-85150000D01*
X111564103Y-85150000D01*
X111867325Y-85024401D01*
X111891726Y-85000000D01*
X111899204Y-85000000D01*
X111965685Y-85013224D01*
X112032166Y-85000000D01*
X112229057Y-84960836D01*
X112452333Y-84811648D01*
X112489994Y-84755284D01*
X113005285Y-84239994D01*
X113061647Y-84202334D01*
X113210835Y-83979058D01*
X113249999Y-83782167D01*
X113263223Y-83715687D01*
X113249999Y-83649207D01*
X113249999Y-80491479D01*
X113263223Y-80424998D01*
X113210835Y-80161627D01*
X113181743Y-80118088D01*
X113061646Y-79938351D01*
X113005285Y-79900692D01*
X113000000Y-79895407D01*
X113000000Y-79860897D01*
X112874401Y-79557675D01*
X112850000Y-79533274D01*
X112850000Y-76541722D01*
X112874397Y-76517325D01*
X112999996Y-76214103D01*
X112999996Y-75885897D01*
X112874397Y-75582675D01*
X112642321Y-75350599D01*
X112339099Y-75225000D01*
X112010893Y-75225000D01*
X111707671Y-75350599D01*
X111475595Y-75582675D01*
X111349996Y-75885897D01*
X111349996Y-76214103D01*
X111475595Y-76517325D01*
X111500001Y-76541731D01*
X111500001Y-77502002D01*
X111314103Y-77425000D01*
X110985897Y-77425000D01*
X110682675Y-77550599D01*
X110580545Y-77652729D01*
X109525000Y-76597184D01*
X109525000Y-76385897D01*
X109399401Y-76082675D01*
X109167325Y-75850599D01*
X108864103Y-75725000D01*
X108535897Y-75725000D01*
X108232675Y-75850599D01*
X108000599Y-76082675D01*
X107875000Y-76385897D01*
X107875000Y-76714103D01*
X108000599Y-77017325D01*
X108232675Y-77249401D01*
X108535897Y-77375000D01*
X108747184Y-77375000D01*
X109972786Y-78600603D01*
X110003472Y-78646528D01*
X110185401Y-78768089D01*
X110345830Y-78800000D01*
X110399999Y-78810775D01*
X110454168Y-78800000D01*
X110533274Y-78800000D01*
X110682675Y-78949401D01*
X110985897Y-79075000D01*
X111314103Y-79075000D01*
X111500000Y-78997999D01*
X111500000Y-79350000D01*
X109916726Y-79350000D01*
X109892325Y-79325599D01*
X109589103Y-79200000D01*
X109561705Y-79200000D01*
X109373361Y-79074153D01*
X109176470Y-79034989D01*
X109109989Y-79021765D01*
X109043508Y-79034989D01*
X102940805Y-79034989D01*
X102874325Y-79021765D01*
X102807845Y-79034989D01*
X102610954Y-79074153D01*
X102387678Y-79223341D01*
X102350018Y-79279703D01*
X102119714Y-79510008D01*
X102063353Y-79547667D01*
X101990556Y-79656615D01*
X101961648Y-79613352D01*
X101738372Y-79464164D01*
X101541481Y-79425000D01*
X101475000Y-79411776D01*
X101408519Y-79425000D01*
X100591481Y-79425000D01*
X100525000Y-79411776D01*
X100458519Y-79425000D01*
X100261628Y-79464164D01*
X100038352Y-79613352D01*
X100000692Y-79669714D01*
X99594714Y-80075693D01*
X99538353Y-80113352D01*
X99389164Y-80336628D01*
X99378701Y-80389231D01*
X99366613Y-80449998D01*
X94188296Y-80449998D01*
X94788275Y-79850020D01*
X95191633Y-79850020D01*
X95245802Y-79860795D01*
X95299971Y-79850020D01*
X95299972Y-79850020D01*
X95460401Y-79818109D01*
X95642330Y-79696548D01*
X95673018Y-79650620D01*
X98250623Y-77073016D01*
X98296545Y-77042332D01*
X98339870Y-76977492D01*
X98418106Y-76860405D01*
X98460793Y-76645805D01*
X98450017Y-76591631D01*
X98450019Y-74602798D01*
X99127817Y-73925000D01*
X99339103Y-73925000D01*
X99642325Y-73799401D01*
X99874401Y-73567325D01*
X100000000Y-73264103D01*
X100000000Y-72935897D01*
X99874401Y-72632675D01*
X99779226Y-72537500D01*
X99874401Y-72442325D01*
X100000000Y-72139103D01*
X100000000Y-71810897D01*
X99874401Y-71507675D01*
X99642325Y-71275599D01*
X99339103Y-71150000D01*
X99010897Y-71150000D01*
X98707675Y-71275599D01*
X98475599Y-71507675D01*
X98350000Y-71810897D01*
X98350000Y-72022183D01*
X97711148Y-72661035D01*
X97699401Y-72632675D01*
X97467325Y-72400599D01*
X97164103Y-72275000D01*
X96835897Y-72275000D01*
X96532675Y-72400599D01*
X96300599Y-72632675D01*
X96175000Y-72935897D01*
X96175000Y-73264103D01*
X96300599Y-73567325D01*
X96450000Y-73716726D01*
X96450001Y-76045183D01*
X96017885Y-76477299D01*
X95999401Y-76432675D01*
X95966726Y-76400000D01*
X95999401Y-76367325D01*
X96125000Y-76064103D01*
X96125000Y-75735897D01*
X95999401Y-75432675D01*
X95966720Y-75399994D01*
X95999401Y-75367312D01*
X96125000Y-75064090D01*
X96125000Y-74735884D01*
X95999401Y-74432662D01*
X95941733Y-74374994D01*
X95999401Y-74317325D01*
X96125000Y-74014103D01*
X96125000Y-73685897D01*
X95999401Y-73382675D01*
X95767325Y-73150599D01*
X95464103Y-73025000D01*
X95135897Y-73025000D01*
X94832675Y-73150599D01*
X94683274Y-73300000D01*
X93631348Y-73300000D01*
X93577179Y-73289225D01*
X93523010Y-73300000D01*
X93362581Y-73331911D01*
X93180652Y-73453472D01*
X93149966Y-73499397D01*
X91952446Y-74696917D01*
X91952446Y-74567597D01*
X91826847Y-74264375D01*
X91594771Y-74032299D01*
X91291549Y-73906700D01*
X91275000Y-73906700D01*
X91275000Y-73635897D01*
X91149401Y-73332675D01*
X90917325Y-73100599D01*
X90614103Y-72975000D01*
X90285897Y-72975000D01*
X89982675Y-73100599D01*
X89828274Y-73255000D01*
X89153676Y-73255000D01*
X89100000Y-73244323D01*
X89046324Y-73255000D01*
X89046323Y-73255000D01*
X88887352Y-73286621D01*
X88707077Y-73407077D01*
X88676670Y-73452584D01*
X86354255Y-75775000D01*
X86135897Y-75775000D01*
X85832675Y-75900599D01*
X85600599Y-76132675D01*
X85525414Y-76314187D01*
X85454190Y-76300020D01*
X85454189Y-76300020D01*
X85400020Y-76289245D01*
X85345851Y-76300020D01*
X77515831Y-76300020D01*
X77517325Y-76299401D01*
X77749401Y-76067325D01*
X77875000Y-75764103D01*
X77875000Y-75435897D01*
X77749401Y-75132675D01*
X77600000Y-74983274D01*
X77600000Y-70027816D01*
X78627817Y-69000000D01*
X79795831Y-69000000D01*
X79850000Y-69010775D01*
X79904169Y-69000000D01*
X79904170Y-69000000D01*
X80064599Y-68968089D01*
X80246528Y-68846528D01*
X80277216Y-68800600D01*
X82602818Y-66474999D01*
X86350225Y-66474999D01*
X86325000Y-66535897D01*
X86325000Y-66864103D01*
X86450599Y-67167325D01*
X86682675Y-67399401D01*
X86985897Y-67525000D01*
X87314103Y-67525000D01*
X87617325Y-67399401D01*
X87766726Y-67250000D01*
X89022184Y-67250000D01*
X90100001Y-68327818D01*
X90100001Y-68383273D01*
X89950599Y-68532675D01*
X89825000Y-68835897D01*
X89825000Y-69164103D01*
X89950599Y-69467325D01*
X90182675Y-69699401D01*
X90485897Y-69825000D01*
X90814103Y-69825000D01*
X91117325Y-69699401D01*
X91266726Y-69550000D01*
X111733274Y-69550000D01*
X111550599Y-69732675D01*
X111425000Y-70035897D01*
X111425000Y-70247183D01*
X109722184Y-71950000D01*
X108266726Y-71950000D01*
X108117325Y-71800599D01*
X107814103Y-71675000D01*
X107485897Y-71675000D01*
X107182675Y-71800599D01*
X106950599Y-72032675D01*
X106825000Y-72335897D01*
X106825000Y-72530718D01*
X106544190Y-72647034D01*
X106312114Y-72879110D01*
X106186515Y-73182332D01*
X106186515Y-73349977D01*
X106122402Y-73349977D01*
X105819180Y-73475576D01*
X105587104Y-73707652D01*
X105461505Y-74010874D01*
X105461505Y-74339080D01*
X105587104Y-74642302D01*
X105819180Y-74874378D01*
X106122402Y-74999977D01*
X106450608Y-74999977D01*
X106753830Y-74874378D01*
X106903231Y-74724977D01*
X115941299Y-74724977D01*
X115945520Y-74729198D01*
X115945520Y-74940485D01*
X116071119Y-75243707D01*
X116303195Y-75475783D01*
X116404456Y-75517727D01*
X113799398Y-78122786D01*
X113753473Y-78153472D01*
X113655133Y-78300649D01*
X113631912Y-78335401D01*
X113589225Y-78550000D01*
X113600001Y-78604174D01*
X113600000Y-90458264D01*
X113450599Y-90607665D01*
X113325000Y-90910887D01*
X113325000Y-91239093D01*
X113450599Y-91542315D01*
X113682675Y-91774391D01*
X113985897Y-91899990D01*
X114314103Y-91899990D01*
X114617325Y-91774391D01*
X114662495Y-91729221D01*
X114732675Y-91799401D01*
X115035897Y-91925000D01*
X115364103Y-91925000D01*
X115667325Y-91799401D01*
X115899401Y-91567325D01*
X116025000Y-91264103D01*
X116025000Y-90935897D01*
X115899401Y-90632675D01*
X115750000Y-90483274D01*
X115750000Y-84110897D01*
X136600000Y-84110897D01*
X136600000Y-84439103D01*
X136725599Y-84742325D01*
X136957675Y-84974401D01*
X137260897Y-85100000D01*
X137589103Y-85100000D01*
X137892325Y-84974401D01*
X138124401Y-84742325D01*
X138250000Y-84439103D01*
X138250000Y-84110897D01*
X138124401Y-83807675D01*
X137975000Y-83658274D01*
X137975000Y-81177822D01*
X141702823Y-77450000D01*
X141914109Y-77450000D01*
X141975003Y-77424777D01*
X141975002Y-82132179D01*
X139472055Y-84635127D01*
X139260768Y-84635127D01*
X138957546Y-84760726D01*
X138725470Y-84992802D01*
X138599871Y-85296024D01*
X138599871Y-85624230D01*
X138725470Y-85927452D01*
X138957546Y-86159528D01*
X139260768Y-86285127D01*
X139588974Y-86285127D01*
X139892196Y-86159528D01*
X140124272Y-85927452D01*
X140249871Y-85624230D01*
X140249871Y-85412943D01*
X142875605Y-82787210D01*
X142921530Y-82756524D01*
X143043091Y-82574595D01*
X143075002Y-82414166D01*
X143075002Y-82414165D01*
X143085777Y-82359997D01*
X143075002Y-82305828D01*
X143075002Y-75579170D01*
X143085777Y-75525001D01*
X143067099Y-75431101D01*
X143043091Y-75310403D01*
X143026360Y-75285363D01*
X143026360Y-75032811D01*
X142900761Y-74729589D01*
X142668685Y-74497513D01*
X142365463Y-74371914D01*
X142037257Y-74371914D01*
X141734035Y-74497513D01*
X141501959Y-74729589D01*
X141376360Y-75032811D01*
X141376360Y-75361017D01*
X141501959Y-75664239D01*
X141637720Y-75800000D01*
X141585903Y-75800000D01*
X141282681Y-75925599D01*
X141050605Y-76157675D01*
X140925006Y-76460897D01*
X140925006Y-76672183D01*
X137074398Y-80522792D01*
X137028473Y-80553478D01*
X136940325Y-80685401D01*
X136906912Y-80735407D01*
X136864225Y-80950006D01*
X136875001Y-81004180D01*
X136875000Y-83658274D01*
X136725599Y-83807675D01*
X136600000Y-84110897D01*
X115750000Y-84110897D01*
X115750000Y-78434938D01*
X119450620Y-74734320D01*
X119496539Y-74703638D01*
X119527221Y-74657719D01*
X119527223Y-74657717D01*
X119618099Y-74521712D01*
X119618100Y-74521709D01*
X119650011Y-74361280D01*
X119650011Y-74361277D01*
X119660785Y-74307112D01*
X119650011Y-74252947D01*
X119650011Y-71285897D01*
X121075000Y-71285897D01*
X121075000Y-71614103D01*
X121200599Y-71917325D01*
X121432675Y-72149401D01*
X121735897Y-72275000D01*
X122064103Y-72275000D01*
X122367325Y-72149401D01*
X122391726Y-72125000D01*
X124008274Y-72125000D01*
X124032675Y-72149401D01*
X124335897Y-72275000D01*
X124664103Y-72275000D01*
X124967325Y-72149401D01*
X125116726Y-72000000D01*
X130722503Y-72000000D01*
X131801545Y-73079043D01*
X131801545Y-73214103D01*
X131927144Y-73517325D01*
X132159220Y-73749401D01*
X132462442Y-73875000D01*
X132790648Y-73875000D01*
X133093870Y-73749401D01*
X133325946Y-73517325D01*
X133403142Y-73330958D01*
X134172786Y-74100603D01*
X134203472Y-74146528D01*
X134385401Y-74268089D01*
X134545830Y-74300000D01*
X134599999Y-74310775D01*
X134654168Y-74300000D01*
X146108274Y-74300000D01*
X146257675Y-74449401D01*
X146560897Y-74575000D01*
X146889103Y-74575000D01*
X147192325Y-74449401D01*
X147424401Y-74217325D01*
X147550000Y-73914103D01*
X147550000Y-73585897D01*
X147424401Y-73282675D01*
X147192325Y-73050599D01*
X146889103Y-72925000D01*
X146560897Y-72925000D01*
X146257675Y-73050599D01*
X146108274Y-73200000D01*
X142264676Y-73200000D01*
X142419531Y-73096529D01*
X142450219Y-73050601D01*
X143325605Y-72175216D01*
X143371530Y-72144530D01*
X143493091Y-71962601D01*
X143525002Y-71802172D01*
X143525002Y-71802171D01*
X143535777Y-71748002D01*
X143525002Y-71693833D01*
X143525002Y-61406169D01*
X143535777Y-61352000D01*
X143514797Y-61246527D01*
X143493091Y-61137401D01*
X143371530Y-60955472D01*
X143325605Y-60924786D01*
X140375217Y-57974399D01*
X140344529Y-57928471D01*
X140162600Y-57806910D01*
X140002171Y-57774999D01*
X140002170Y-57774999D01*
X139948001Y-57764224D01*
X139893832Y-57774999D01*
X128579170Y-57774999D01*
X128525001Y-57764224D01*
X128470832Y-57774999D01*
X128470831Y-57774999D01*
X128310402Y-57806910D01*
X128128473Y-57928471D01*
X128097787Y-57974396D01*
X124922184Y-61150000D01*
X124710897Y-61150000D01*
X124407675Y-61275599D01*
X124175599Y-61507675D01*
X124050000Y-61810897D01*
X124050000Y-62139103D01*
X124175599Y-62442325D01*
X124407675Y-62674401D01*
X124710897Y-62800000D01*
X125039103Y-62800000D01*
X125342325Y-62674401D01*
X125574401Y-62442325D01*
X125700000Y-62139103D01*
X125700000Y-61927816D01*
X128752818Y-58874999D01*
X137529514Y-58874999D01*
X137525000Y-58885897D01*
X137525000Y-59214103D01*
X137650599Y-59517325D01*
X137882675Y-59749401D01*
X138185897Y-59875000D01*
X138397184Y-59875000D01*
X139299395Y-60777212D01*
X139299398Y-60777214D01*
X141150001Y-62627818D01*
X141150000Y-69947183D01*
X140722184Y-70375000D01*
X140441726Y-70375000D01*
X140267325Y-70200599D01*
X139964103Y-70075000D01*
X139635897Y-70075000D01*
X139332675Y-70200599D01*
X139100599Y-70432675D01*
X139075000Y-70494476D01*
X139075000Y-70386247D01*
X138949401Y-70083025D01*
X138717325Y-69850949D01*
X138414103Y-69725350D01*
X138202816Y-69725350D01*
X137826864Y-69349398D01*
X137796176Y-69303470D01*
X137614247Y-69181909D01*
X137453818Y-69149998D01*
X137453817Y-69149998D01*
X137399648Y-69139223D01*
X137345479Y-69149998D01*
X126304171Y-69149998D01*
X126250002Y-69139223D01*
X126195833Y-69149998D01*
X126195832Y-69149998D01*
X126035403Y-69181909D01*
X125853474Y-69303470D01*
X125822790Y-69349393D01*
X124549397Y-70622787D01*
X124549394Y-70622789D01*
X124547183Y-70625000D01*
X124335897Y-70625000D01*
X124032675Y-70750599D01*
X124008274Y-70775000D01*
X122391726Y-70775000D01*
X122367325Y-70750599D01*
X122064103Y-70625000D01*
X121735897Y-70625000D01*
X121432675Y-70750599D01*
X121200599Y-70982675D01*
X121075000Y-71285897D01*
X119650011Y-71285897D01*
X119650009Y-66247061D01*
X119660785Y-66192887D01*
X119618098Y-65978288D01*
X119527222Y-65842283D01*
X119527221Y-65842282D01*
X119496537Y-65796360D01*
X119450615Y-65765676D01*
X117984338Y-64299400D01*
X117953650Y-64253472D01*
X117877370Y-64202504D01*
X117611606Y-63936740D01*
X117580918Y-63890812D01*
X117398989Y-63769251D01*
X117238560Y-63737340D01*
X117238559Y-63737340D01*
X117184390Y-63726565D01*
X117130221Y-63737340D01*
X107629386Y-63737340D01*
X107479985Y-63587939D01*
X107176763Y-63462340D01*
X106848557Y-63462340D01*
X106545335Y-63587939D01*
X106313259Y-63820015D01*
X106308740Y-63830924D01*
X104427216Y-61949400D01*
X104396528Y-61903472D01*
X104214599Y-61781911D01*
X104054170Y-61750000D01*
X104054169Y-61750000D01*
X104000000Y-61739225D01*
X103945831Y-61750000D01*
X101004168Y-61750000D01*
X100949999Y-61739225D01*
X100895830Y-61750000D01*
X100735401Y-61781911D01*
X100624281Y-61856159D01*
X100595022Y-61785523D01*
X100450000Y-61640501D01*
X100450000Y-61266726D01*
X100599401Y-61117325D01*
X100725000Y-60814103D01*
X100725000Y-60485897D01*
X100668709Y-60350000D01*
X109922184Y-60350000D01*
X111875000Y-62302818D01*
X111875000Y-62514103D01*
X112000599Y-62817325D01*
X112232675Y-63049401D01*
X112535897Y-63175000D01*
X112864103Y-63175000D01*
X113167325Y-63049401D01*
X113399401Y-62817325D01*
X113525000Y-62514103D01*
X113525000Y-62185897D01*
X113399401Y-61882675D01*
X113167325Y-61650599D01*
X112864103Y-61525000D01*
X112652818Y-61525000D01*
X110577216Y-59449400D01*
X110546528Y-59403472D01*
X110364599Y-59281911D01*
X110204170Y-59250000D01*
X110204169Y-59250000D01*
X110150000Y-59239225D01*
X110095831Y-59250000D01*
X98877513Y-59250000D01*
X98955817Y-59060959D01*
X98955817Y-58732753D01*
X98830218Y-58429531D01*
X98598142Y-58197455D01*
X98294920Y-58071856D01*
X98083634Y-58071856D01*
X96536177Y-56524400D01*
X96505489Y-56478472D01*
X96323560Y-56356911D01*
X96163131Y-56325000D01*
X96163130Y-56325000D01*
X96108961Y-56314225D01*
X96054792Y-56325000D01*
X79702817Y-56325000D01*
X78800000Y-55422184D01*
X78800000Y-55210897D01*
X78674401Y-54907675D01*
X78442325Y-54675599D01*
X78139103Y-54550000D01*
X77810897Y-54550000D01*
X77507675Y-54675599D01*
X77358274Y-54825000D01*
X73052816Y-54825000D01*
X75702818Y-52175000D01*
X75914103Y-52175000D01*
X76217325Y-52049401D01*
X76363888Y-51902838D01*
X86359723Y-51948950D01*
X86611374Y-52200602D01*
X86642061Y-52246528D01*
X86717020Y-52296614D01*
X86725599Y-52317325D01*
X86957675Y-52549401D01*
X87260897Y-52675000D01*
X87589103Y-52675000D01*
X87892325Y-52549401D01*
X88066726Y-52375000D01*
X94056955Y-52375000D01*
X95733254Y-54051299D01*
X95715390Y-54039363D01*
X95556419Y-54007742D01*
X95556418Y-54007742D01*
X95502742Y-53997065D01*
X95449066Y-54007742D01*
X89900930Y-54007742D01*
X89847257Y-53997066D01*
X89793585Y-54007742D01*
X89793581Y-54007742D01*
X89634610Y-54039363D01*
X89454335Y-54159819D01*
X89423928Y-54205326D01*
X89304255Y-54325000D01*
X89085897Y-54325000D01*
X88782675Y-54450599D01*
X88550599Y-54682675D01*
X88425000Y-54985897D01*
X88425000Y-55314103D01*
X88550599Y-55617325D01*
X88782675Y-55849401D01*
X89085897Y-55975000D01*
X89414103Y-55975000D01*
X89717325Y-55849401D01*
X89949401Y-55617325D01*
X90075000Y-55314103D01*
X90075000Y-55097742D01*
X95276997Y-55097742D01*
X95425000Y-55245746D01*
X95425000Y-55464103D01*
X95550599Y-55767325D01*
X95782675Y-55999401D01*
X96085897Y-56125000D01*
X96414103Y-56125000D01*
X96717325Y-55999401D01*
X96949401Y-55767325D01*
X97075000Y-55464103D01*
X97075000Y-55393046D01*
X98011267Y-56329313D01*
X98041953Y-56375238D01*
X98223882Y-56496799D01*
X98384311Y-56528710D01*
X98438480Y-56539485D01*
X98492649Y-56528710D01*
X99325460Y-56528710D01*
X99485889Y-56496799D01*
X99667818Y-56375238D01*
X99769699Y-56222763D01*
X99917462Y-56075000D01*
X100164103Y-56075000D01*
X100467325Y-55949401D01*
X100575000Y-55841726D01*
X100582675Y-55849401D01*
X100885897Y-55975000D01*
X101214103Y-55975000D01*
X101496073Y-55858204D01*
X102588471Y-56950603D01*
X102619157Y-56996528D01*
X102801086Y-57118089D01*
X102961515Y-57150000D01*
X102961516Y-57150000D01*
X103015685Y-57160775D01*
X103069854Y-57150000D01*
X109172184Y-57150000D01*
X110425000Y-58402817D01*
X110425000Y-58614103D01*
X110550599Y-58917325D01*
X110782675Y-59149401D01*
X111085897Y-59275000D01*
X111414103Y-59275000D01*
X111717325Y-59149401D01*
X111949401Y-58917325D01*
X112075000Y-58614103D01*
X112075000Y-58285897D01*
X111949401Y-57982675D01*
X111717325Y-57750599D01*
X111414103Y-57625000D01*
X111202817Y-57625000D01*
X110052817Y-56475001D01*
X110358275Y-56475001D01*
X110482675Y-56599401D01*
X110785897Y-56725000D01*
X111114103Y-56725000D01*
X111417325Y-56599401D01*
X111649401Y-56367325D01*
X111775000Y-56064103D01*
X111775000Y-55735897D01*
X111749775Y-55674999D01*
X112347183Y-55674999D01*
X122572786Y-65900603D01*
X122603472Y-65946528D01*
X122785401Y-66068089D01*
X122945830Y-66100000D01*
X122945831Y-66100000D01*
X123000000Y-66110775D01*
X123054169Y-66100000D01*
X125233274Y-66100000D01*
X125382675Y-66249401D01*
X125685897Y-66375000D01*
X126014103Y-66375000D01*
X126317325Y-66249401D01*
X126549401Y-66017325D01*
X126675000Y-65714103D01*
X126675000Y-65385897D01*
X126648301Y-65321440D01*
X130234542Y-65321440D01*
X130125000Y-65585897D01*
X130125000Y-65914103D01*
X130250599Y-66217325D01*
X130482675Y-66449401D01*
X130785897Y-66575000D01*
X131114103Y-66575000D01*
X131417325Y-66449401D01*
X131441726Y-66425000D01*
X139383274Y-66425000D01*
X139407675Y-66449401D01*
X139710897Y-66575000D01*
X140039103Y-66575000D01*
X140342325Y-66449401D01*
X140574401Y-66217325D01*
X140700000Y-65914103D01*
X140700000Y-65585897D01*
X140574401Y-65282675D01*
X140342325Y-65050599D01*
X140039103Y-64925000D01*
X139710897Y-64925000D01*
X139407675Y-65050599D01*
X139383274Y-65075000D01*
X135779065Y-65075000D01*
X135825000Y-64964103D01*
X135825000Y-64635897D01*
X135699401Y-64332675D01*
X135467325Y-64100599D01*
X135164103Y-63975000D01*
X134835897Y-63975000D01*
X134532675Y-64100599D01*
X134411834Y-64221440D01*
X125076250Y-64221440D01*
X125100000Y-64164103D01*
X125100000Y-63835897D01*
X124974401Y-63532675D01*
X124742325Y-63300599D01*
X124439103Y-63175000D01*
X124227818Y-63175000D01*
X112352216Y-51299400D01*
X112321528Y-51253472D01*
X112139599Y-51131911D01*
X111979170Y-51100000D01*
X111979169Y-51100000D01*
X111925000Y-51089225D01*
X111870831Y-51100000D01*
X110955228Y-51100000D01*
X111001986Y-50987117D01*
X111001986Y-50658911D01*
X110947927Y-50528399D01*
X133575000Y-50528399D01*
X133575000Y-51771601D01*
X134050753Y-52920170D01*
X134929830Y-53799247D01*
X136078399Y-54275000D01*
X137321601Y-54275000D01*
X138470170Y-53799247D01*
X139349247Y-52920170D01*
X139825000Y-51771601D01*
X139825000Y-50528399D01*
X139720546Y-50276224D01*
X141125000Y-50276224D01*
X141125000Y-50723776D01*
X141296271Y-51137261D01*
X141612739Y-51453729D01*
X142026224Y-51625000D01*
X142473776Y-51625000D01*
X142887261Y-51453729D01*
X143203729Y-51137261D01*
X143375000Y-50723776D01*
X143375000Y-50276224D01*
X143203729Y-49862739D01*
X142887261Y-49546271D01*
X142473776Y-49375000D01*
X142026224Y-49375000D01*
X141612739Y-49546271D01*
X141296271Y-49862739D01*
X141125000Y-50276224D01*
X139720546Y-50276224D01*
X139349247Y-49379830D01*
X138470170Y-48500753D01*
X137321601Y-48025000D01*
X136078399Y-48025000D01*
X134929830Y-48500753D01*
X134050753Y-49379830D01*
X133575000Y-50528399D01*
X110947927Y-50528399D01*
X110876387Y-50355689D01*
X110818711Y-50298013D01*
X110899401Y-50217322D01*
X111025000Y-49914100D01*
X111025000Y-49585894D01*
X110899401Y-49282672D01*
X110750777Y-49134048D01*
X110748977Y-49125000D01*
X110718089Y-48969713D01*
X110596528Y-48787784D01*
X110550603Y-48757098D01*
X109043504Y-47250000D01*
X154250001Y-47250000D01*
X154250001Y-85210580D01*
X154164103Y-85175000D01*
X153835897Y-85175000D01*
X153532675Y-85300599D01*
X153300599Y-85532675D01*
X153175000Y-85835897D01*
X153175000Y-86164103D01*
X153300599Y-86467325D01*
X153450001Y-86616727D01*
X153450000Y-113880145D01*
X153450000Y-113883274D01*
X153300599Y-114032675D01*
X153175000Y-114335897D01*
X153175000Y-114664103D01*
X153300599Y-114967325D01*
X153532675Y-115199401D01*
X153835897Y-115325000D01*
X154164103Y-115325000D01*
X154250000Y-115289420D01*
X154250000Y-126250000D01*
X35250000Y-126250000D01*
X35250000Y-121778399D01*
X37325000Y-121778399D01*
X37325000Y-123021601D01*
X37800753Y-124170170D01*
X38679830Y-125049247D01*
X39828399Y-125525000D01*
X41071601Y-125525000D01*
X42220170Y-125049247D01*
X43099247Y-124170170D01*
X43216497Y-123887104D01*
X43231911Y-123964598D01*
X43353472Y-124146528D01*
X43399400Y-124177216D01*
X44222786Y-125000603D01*
X44253472Y-125046528D01*
X44435401Y-125168089D01*
X44595830Y-125200000D01*
X44649999Y-125210775D01*
X44704168Y-125200000D01*
X48620820Y-125200000D01*
X48674989Y-125210775D01*
X48729158Y-125200000D01*
X48729159Y-125200000D01*
X48889588Y-125168089D01*
X49071517Y-125046528D01*
X49102205Y-125000600D01*
X49402817Y-124699989D01*
X49614103Y-124699989D01*
X49917325Y-124574390D01*
X50149401Y-124342314D01*
X50275000Y-124039092D01*
X50275000Y-123710886D01*
X50149401Y-123407664D01*
X49917325Y-123175588D01*
X49797244Y-123125849D01*
X49824625Y-123059745D01*
X49824625Y-122848459D01*
X50073085Y-122600000D01*
X51433393Y-122600000D01*
X51582794Y-122749401D01*
X51886016Y-122875000D01*
X52214222Y-122875000D01*
X52517444Y-122749401D01*
X52749520Y-122517325D01*
X52875119Y-122214103D01*
X52875119Y-121885897D01*
X52749520Y-121582675D01*
X52517444Y-121350599D01*
X52214222Y-121225000D01*
X51886016Y-121225000D01*
X51582794Y-121350599D01*
X51433393Y-121500000D01*
X49899435Y-121500000D01*
X49845266Y-121489225D01*
X49791097Y-121500000D01*
X49630668Y-121531911D01*
X49630667Y-121531912D01*
X49630666Y-121531912D01*
X49566181Y-121575000D01*
X49448739Y-121653472D01*
X49418054Y-121699395D01*
X49046808Y-122070642D01*
X48835522Y-122070642D01*
X48532300Y-122196241D01*
X48300224Y-122428317D01*
X48174625Y-122731539D01*
X48174625Y-123059745D01*
X48300224Y-123362967D01*
X48532300Y-123595043D01*
X48652381Y-123644782D01*
X48625000Y-123710886D01*
X48625000Y-123922172D01*
X48447173Y-124100000D01*
X44877817Y-124100000D01*
X44300000Y-123522184D01*
X44300000Y-121539420D01*
X44385897Y-121575000D01*
X44714103Y-121575000D01*
X45017325Y-121449401D01*
X45249401Y-121217325D01*
X45324551Y-121035897D01*
X54615747Y-121035897D01*
X54615747Y-121364103D01*
X54741346Y-121667325D01*
X54973422Y-121899401D01*
X55276644Y-122025000D01*
X55604850Y-122025000D01*
X55908072Y-121899401D01*
X56140148Y-121667325D01*
X56248255Y-121406332D01*
X59875000Y-121406332D01*
X59875000Y-121893668D01*
X60061495Y-122343907D01*
X60406093Y-122688505D01*
X60856332Y-122875000D01*
X61343668Y-122875000D01*
X61509447Y-122806332D01*
X70075000Y-122806332D01*
X70075000Y-123293668D01*
X70261495Y-123743907D01*
X70606093Y-124088505D01*
X71056332Y-124275000D01*
X71543668Y-124275000D01*
X71993907Y-124088505D01*
X72338505Y-123743907D01*
X72525000Y-123293668D01*
X72525000Y-122806332D01*
X72512529Y-122776224D01*
X128625000Y-122776224D01*
X128625000Y-123223776D01*
X128796271Y-123637261D01*
X129112739Y-123953729D01*
X129526224Y-124125000D01*
X129973776Y-124125000D01*
X130387261Y-123953729D01*
X130703729Y-123637261D01*
X130875000Y-123223776D01*
X130875000Y-122776224D01*
X130703729Y-122362739D01*
X130387261Y-122046271D01*
X129973776Y-121875000D01*
X129526224Y-121875000D01*
X129112739Y-122046271D01*
X128796271Y-122362739D01*
X128625000Y-122776224D01*
X72512529Y-122776224D01*
X72338505Y-122356093D01*
X71993907Y-122011495D01*
X71543668Y-121825000D01*
X71056332Y-121825000D01*
X70606093Y-122011495D01*
X70261495Y-122356093D01*
X70075000Y-122806332D01*
X61509447Y-122806332D01*
X61793907Y-122688505D01*
X62138505Y-122343907D01*
X62325000Y-121893668D01*
X62325000Y-121406332D01*
X62138505Y-120956093D01*
X61793907Y-120611495D01*
X61343668Y-120425000D01*
X60856332Y-120425000D01*
X60406093Y-120611495D01*
X60061495Y-120956093D01*
X59875000Y-121406332D01*
X56248255Y-121406332D01*
X56265747Y-121364103D01*
X56265747Y-121035897D01*
X56140148Y-120732675D01*
X55990747Y-120583274D01*
X55990747Y-119525979D01*
X56149401Y-119367325D01*
X56275000Y-119064103D01*
X56275000Y-118735897D01*
X56149401Y-118432675D01*
X55917325Y-118200599D01*
X55614103Y-118075000D01*
X55285897Y-118075000D01*
X54982675Y-118200599D01*
X54750599Y-118432675D01*
X54625000Y-118735897D01*
X54625000Y-119064103D01*
X54750599Y-119367325D01*
X54890748Y-119507474D01*
X54890747Y-120583274D01*
X54741346Y-120732675D01*
X54615747Y-121035897D01*
X45324551Y-121035897D01*
X45375000Y-120914103D01*
X45375000Y-120585897D01*
X45249401Y-120282675D01*
X45100000Y-120133274D01*
X45100000Y-119177816D01*
X45277817Y-119000000D01*
X48060580Y-119000000D01*
X48150599Y-119217325D01*
X48382675Y-119449401D01*
X48685897Y-119575000D01*
X49014103Y-119575000D01*
X49317325Y-119449401D01*
X49549401Y-119217325D01*
X49675000Y-118914103D01*
X49675000Y-118585897D01*
X49549401Y-118282675D01*
X49317325Y-118050599D01*
X49014103Y-117925000D01*
X48729855Y-117925000D01*
X48604170Y-117900000D01*
X48604169Y-117900000D01*
X48550000Y-117889225D01*
X48495831Y-117900000D01*
X45104169Y-117900000D01*
X45050000Y-117889225D01*
X44995831Y-117900000D01*
X44995830Y-117900000D01*
X44835401Y-117931911D01*
X44653472Y-118053472D01*
X44622785Y-118099398D01*
X44300000Y-118422184D01*
X44300000Y-116241726D01*
X44360639Y-116181087D01*
X44449679Y-116270127D01*
X44449679Y-116345510D01*
X44438904Y-116399679D01*
X44449679Y-116453848D01*
X44481590Y-116614277D01*
X44603151Y-116796207D01*
X44649079Y-116826895D01*
X44922784Y-117100600D01*
X44953472Y-117146528D01*
X45135401Y-117268089D01*
X45295830Y-117300000D01*
X45295831Y-117300000D01*
X45350000Y-117310775D01*
X45404169Y-117300000D01*
X48772183Y-117300000D01*
X48899395Y-117427212D01*
X48899398Y-117427214D01*
X50925000Y-119452817D01*
X50925000Y-119664103D01*
X51050599Y-119967325D01*
X51282675Y-120199401D01*
X51585897Y-120325000D01*
X51914103Y-120325000D01*
X52217325Y-120199401D01*
X52449401Y-119967325D01*
X52575000Y-119664103D01*
X52575000Y-119335897D01*
X52449401Y-119032675D01*
X52217325Y-118800599D01*
X51914103Y-118675000D01*
X51702817Y-118675000D01*
X49677214Y-116649398D01*
X49677212Y-116649395D01*
X49427216Y-116399400D01*
X49396528Y-116353472D01*
X49214599Y-116231911D01*
X49054170Y-116200000D01*
X49054169Y-116200000D01*
X49000000Y-116189225D01*
X48945831Y-116200000D01*
X45619806Y-116200000D01*
X45699080Y-116120726D01*
X45824679Y-115817504D01*
X45824679Y-115489298D01*
X45781849Y-115385897D01*
X55525000Y-115385897D01*
X55525000Y-115714103D01*
X55650599Y-116017325D01*
X55882675Y-116249401D01*
X56185897Y-116375000D01*
X56514103Y-116375000D01*
X56817325Y-116249401D01*
X57049401Y-116017325D01*
X57175000Y-115714103D01*
X57175000Y-115385897D01*
X57049401Y-115082675D01*
X57025000Y-115058274D01*
X57025000Y-111841728D01*
X57049403Y-111817325D01*
X57175002Y-111514103D01*
X57175002Y-111185897D01*
X57049403Y-110882675D01*
X56817327Y-110650599D01*
X56514105Y-110525000D01*
X56185899Y-110525000D01*
X55882677Y-110650599D01*
X55650601Y-110882675D01*
X55525002Y-111185897D01*
X55525002Y-111514103D01*
X55650601Y-111817325D01*
X55675001Y-111841725D01*
X55675000Y-115058274D01*
X55650599Y-115082675D01*
X55525000Y-115385897D01*
X45781849Y-115385897D01*
X45699080Y-115186076D01*
X45467004Y-114954000D01*
X45163782Y-114828401D01*
X44835576Y-114828401D01*
X44532354Y-114954000D01*
X44389040Y-115097314D01*
X44217325Y-114925599D01*
X43914103Y-114800000D01*
X43585897Y-114800000D01*
X43282675Y-114925599D01*
X43050599Y-115157675D01*
X42925000Y-115460897D01*
X42925000Y-115789103D01*
X43050599Y-116092325D01*
X43200001Y-116241727D01*
X43200000Y-120873070D01*
X43099247Y-120629830D01*
X42220170Y-119750753D01*
X41071601Y-119275000D01*
X39828399Y-119275000D01*
X38679830Y-119750753D01*
X37800753Y-120629830D01*
X37325000Y-121778399D01*
X35250000Y-121778399D01*
X35250000Y-118427816D01*
X35425000Y-118602817D01*
X35425000Y-118814103D01*
X35550599Y-119117325D01*
X35782675Y-119349401D01*
X36085897Y-119475000D01*
X36414103Y-119475000D01*
X36717325Y-119349401D01*
X36949401Y-119117325D01*
X37075000Y-118814103D01*
X37075000Y-118485897D01*
X36949401Y-118182675D01*
X36717325Y-117950599D01*
X36414103Y-117825000D01*
X36202817Y-117825000D01*
X35850000Y-117472184D01*
X35850000Y-105102637D01*
X35860000Y-105102637D01*
X35860000Y-106067363D01*
X36229184Y-106958652D01*
X36911348Y-107640816D01*
X37802637Y-108010000D01*
X38767363Y-108010000D01*
X39658652Y-107640816D01*
X40340816Y-106958652D01*
X40710000Y-106067363D01*
X40710000Y-105102637D01*
X40340816Y-104211348D01*
X39658652Y-103529184D01*
X38767363Y-103160000D01*
X37802637Y-103160000D01*
X36911348Y-103529184D01*
X36229184Y-104211348D01*
X35860000Y-105102637D01*
X35850000Y-105102637D01*
X35850000Y-99840224D01*
X37729327Y-99840224D01*
X37729327Y-100168430D01*
X37854926Y-100471652D01*
X38087002Y-100703728D01*
X38390224Y-100829327D01*
X38601511Y-100829327D01*
X39972786Y-102200603D01*
X40003472Y-102246528D01*
X40185401Y-102368089D01*
X40345830Y-102400000D01*
X40345831Y-102400000D01*
X40400000Y-102410775D01*
X40454169Y-102400000D01*
X41083274Y-102400000D01*
X41232675Y-102549401D01*
X41535897Y-102675000D01*
X41864103Y-102675000D01*
X42167325Y-102549401D01*
X42399401Y-102317325D01*
X42525000Y-102014103D01*
X42525000Y-101685897D01*
X42399401Y-101382675D01*
X42167325Y-101150599D01*
X41864103Y-101025000D01*
X41535897Y-101025000D01*
X41232675Y-101150599D01*
X41083274Y-101300000D01*
X40627817Y-101300000D01*
X39379327Y-100051511D01*
X39379327Y-99840224D01*
X39253728Y-99537002D01*
X39021652Y-99304926D01*
X38718430Y-99179327D01*
X38390224Y-99179327D01*
X38087002Y-99304926D01*
X37854926Y-99537002D01*
X37729327Y-99840224D01*
X35850000Y-99840224D01*
X35850000Y-82802637D01*
X35860000Y-82802637D01*
X35860000Y-83767363D01*
X36229184Y-84658652D01*
X36911348Y-85340816D01*
X37802637Y-85710000D01*
X38605409Y-85710000D01*
X38340409Y-85975000D01*
X38135897Y-85975000D01*
X37832675Y-86100599D01*
X37600599Y-86332675D01*
X37475000Y-86635897D01*
X37475000Y-86964103D01*
X37520935Y-87075000D01*
X37235897Y-87075000D01*
X36932675Y-87200599D01*
X36700599Y-87432675D01*
X36575000Y-87735897D01*
X36575000Y-88064103D01*
X36700599Y-88367325D01*
X36932675Y-88599401D01*
X37235897Y-88725000D01*
X37564103Y-88725000D01*
X37867325Y-88599401D01*
X38016726Y-88450000D01*
X38292833Y-88450000D01*
X38347002Y-88460775D01*
X38401171Y-88450000D01*
X38401172Y-88450000D01*
X38561601Y-88418089D01*
X38743530Y-88296528D01*
X38774218Y-88250600D01*
X42177817Y-84847002D01*
X44198829Y-84847002D01*
X44252998Y-84857777D01*
X44307167Y-84847002D01*
X44307168Y-84847002D01*
X44467597Y-84815091D01*
X44602428Y-84725000D01*
X44814103Y-84725000D01*
X45117325Y-84599401D01*
X45349401Y-84367325D01*
X45475000Y-84064103D01*
X45475000Y-83735897D01*
X45349401Y-83432675D01*
X45117325Y-83200599D01*
X44814103Y-83075000D01*
X44485897Y-83075000D01*
X44182675Y-83200599D01*
X43950599Y-83432675D01*
X43825000Y-83735897D01*
X43825000Y-83747002D01*
X42004169Y-83747002D01*
X41950000Y-83736227D01*
X41925000Y-83741200D01*
X41925000Y-78666726D01*
X42132675Y-78874401D01*
X42435897Y-79000000D01*
X42764103Y-79000000D01*
X43067325Y-78874401D01*
X43299401Y-78642325D01*
X43425000Y-78339103D01*
X43425000Y-78128916D01*
X43518088Y-77989600D01*
X43549999Y-77829171D01*
X43549999Y-77829170D01*
X43560774Y-77775002D01*
X43549999Y-77720833D01*
X43549999Y-76977817D01*
X47341919Y-73185897D01*
X51925000Y-73185897D01*
X51925000Y-73514103D01*
X52050599Y-73817325D01*
X52282675Y-74049401D01*
X52585897Y-74175000D01*
X52914103Y-74175000D01*
X53217325Y-74049401D01*
X53366726Y-73900000D01*
X56833274Y-73900000D01*
X56982675Y-74049401D01*
X57285897Y-74175000D01*
X57614103Y-74175000D01*
X57917325Y-74049401D01*
X58149401Y-73817325D01*
X58275000Y-73514103D01*
X58275000Y-73185897D01*
X58149401Y-72882675D01*
X57917325Y-72650599D01*
X57614103Y-72525000D01*
X57285897Y-72525000D01*
X56982675Y-72650599D01*
X56833274Y-72800000D01*
X53366726Y-72800000D01*
X53217325Y-72650599D01*
X52914103Y-72525000D01*
X52585897Y-72525000D01*
X52282675Y-72650599D01*
X52050599Y-72882675D01*
X51925000Y-73185897D01*
X47341919Y-73185897D01*
X48677594Y-71850223D01*
X48723519Y-71819537D01*
X48816931Y-71679736D01*
X48845079Y-71637610D01*
X48845079Y-71637609D01*
X48845080Y-71637608D01*
X48876991Y-71477179D01*
X48876991Y-71477178D01*
X48887766Y-71423010D01*
X48876991Y-71368841D01*
X48876991Y-70297783D01*
X48937889Y-70323008D01*
X49266095Y-70323008D01*
X49450001Y-70246832D01*
X49450001Y-71383273D01*
X49300599Y-71532675D01*
X49175000Y-71835897D01*
X49175000Y-72164103D01*
X49300599Y-72467325D01*
X49532675Y-72699401D01*
X49835897Y-72825000D01*
X50164103Y-72825000D01*
X50467325Y-72699401D01*
X50699401Y-72467325D01*
X50825000Y-72164103D01*
X50825000Y-71835897D01*
X50699401Y-71532675D01*
X50550000Y-71383274D01*
X50550000Y-70885897D01*
X51925000Y-70885897D01*
X51925000Y-71214103D01*
X52050599Y-71517325D01*
X52282675Y-71749401D01*
X52585897Y-71875000D01*
X52914103Y-71875000D01*
X53217325Y-71749401D01*
X53366726Y-71600000D01*
X56833274Y-71600000D01*
X56982675Y-71749401D01*
X57285897Y-71875000D01*
X57614103Y-71875000D01*
X57917325Y-71749401D01*
X58149401Y-71517325D01*
X58275000Y-71214103D01*
X58275000Y-70885897D01*
X58149401Y-70582675D01*
X57917325Y-70350599D01*
X57614103Y-70225000D01*
X57285897Y-70225000D01*
X56982675Y-70350599D01*
X56833274Y-70500000D01*
X53366726Y-70500000D01*
X53217325Y-70350599D01*
X52914103Y-70225000D01*
X52585897Y-70225000D01*
X52282675Y-70350599D01*
X52050599Y-70582675D01*
X51925000Y-70885897D01*
X50550000Y-70885897D01*
X50550000Y-70085897D01*
X60875000Y-70085897D01*
X60875000Y-70414103D01*
X61000599Y-70717325D01*
X61025000Y-70741726D01*
X61025001Y-73008273D01*
X61000599Y-73032675D01*
X60875000Y-73335897D01*
X60875000Y-73664103D01*
X61000599Y-73967325D01*
X61232675Y-74199401D01*
X61535897Y-74325000D01*
X61864103Y-74325000D01*
X62167325Y-74199401D01*
X62399401Y-73967325D01*
X62525000Y-73664103D01*
X62525000Y-73335897D01*
X62399401Y-73032675D01*
X62375000Y-73008274D01*
X62375000Y-70741726D01*
X62399401Y-70717325D01*
X62525000Y-70414103D01*
X62525000Y-70085897D01*
X62399401Y-69782675D01*
X62167325Y-69550599D01*
X61864103Y-69425000D01*
X61535897Y-69425000D01*
X61232675Y-69550599D01*
X61000599Y-69782675D01*
X60875000Y-70085897D01*
X50550000Y-70085897D01*
X50550000Y-68585897D01*
X51925000Y-68585897D01*
X51925000Y-68914103D01*
X52050599Y-69217325D01*
X52282675Y-69449401D01*
X52585897Y-69575000D01*
X52914103Y-69575000D01*
X53217325Y-69449401D01*
X53366726Y-69300000D01*
X56833274Y-69300000D01*
X56982675Y-69449401D01*
X57285897Y-69575000D01*
X57614103Y-69575000D01*
X57917325Y-69449401D01*
X58149401Y-69217325D01*
X58275000Y-68914103D01*
X58275000Y-68585897D01*
X58149401Y-68282675D01*
X57917325Y-68050599D01*
X57614103Y-67925000D01*
X57285897Y-67925000D01*
X56982675Y-68050599D01*
X56833274Y-68200000D01*
X53366726Y-68200000D01*
X53217325Y-68050599D01*
X52914103Y-67925000D01*
X52585897Y-67925000D01*
X52282675Y-68050599D01*
X52050599Y-68282675D01*
X51925000Y-68585897D01*
X50550000Y-68585897D01*
X50550000Y-67835897D01*
X64825000Y-67835897D01*
X64825000Y-68164103D01*
X64950599Y-68467325D01*
X65182675Y-68699401D01*
X65485897Y-68825000D01*
X65814103Y-68825000D01*
X66117325Y-68699401D01*
X66266726Y-68550000D01*
X66533274Y-68550000D01*
X66450599Y-68632675D01*
X66325000Y-68935897D01*
X66325000Y-69264103D01*
X66450599Y-69567325D01*
X66600000Y-69716726D01*
X66600001Y-70043273D01*
X66450599Y-70192675D01*
X66325000Y-70495897D01*
X66325000Y-70824103D01*
X66450599Y-71127325D01*
X66682675Y-71359401D01*
X66985897Y-71485000D01*
X67314103Y-71485000D01*
X67617325Y-71359401D01*
X67849401Y-71127325D01*
X67975000Y-70824103D01*
X67975000Y-70495897D01*
X67849401Y-70192675D01*
X67700000Y-70043274D01*
X67700000Y-69716726D01*
X67849401Y-69567325D01*
X67975000Y-69264103D01*
X67975000Y-68935897D01*
X67849401Y-68632675D01*
X67766726Y-68550000D01*
X70783272Y-68550000D01*
X70932673Y-68699401D01*
X71235895Y-68825000D01*
X71564101Y-68825000D01*
X71867323Y-68699401D01*
X72099399Y-68467325D01*
X72224998Y-68164103D01*
X72224998Y-67835897D01*
X72099399Y-67532675D01*
X71867323Y-67300599D01*
X71564101Y-67175000D01*
X71235895Y-67175000D01*
X70932673Y-67300599D01*
X70783272Y-67450000D01*
X66266726Y-67450000D01*
X66117325Y-67300599D01*
X65814103Y-67175000D01*
X65485897Y-67175000D01*
X65182675Y-67300599D01*
X64950599Y-67532675D01*
X64825000Y-67835897D01*
X50550000Y-67835897D01*
X50550000Y-66577816D01*
X52102817Y-65025000D01*
X52314103Y-65025000D01*
X52617325Y-64899401D01*
X52849401Y-64667325D01*
X52975000Y-64364103D01*
X52975000Y-64035897D01*
X52849401Y-63732675D01*
X52617325Y-63500599D01*
X52314103Y-63375000D01*
X51985897Y-63375000D01*
X51682675Y-63500599D01*
X51450599Y-63732675D01*
X51325000Y-64035897D01*
X51325000Y-64247183D01*
X49651992Y-65920192D01*
X49651992Y-65275825D01*
X49905674Y-65022144D01*
X50116959Y-65022144D01*
X50420181Y-64896545D01*
X50652257Y-64664469D01*
X50777856Y-64361247D01*
X50777856Y-64033041D01*
X50774525Y-64025000D01*
X50864103Y-64025000D01*
X51167325Y-63899401D01*
X51399401Y-63667325D01*
X51525000Y-63364103D01*
X51525000Y-63035897D01*
X51399401Y-62732675D01*
X51167325Y-62500599D01*
X50864103Y-62375000D01*
X50625000Y-62375000D01*
X50625000Y-62285897D01*
X50499401Y-61982675D01*
X50267325Y-61750599D01*
X49964103Y-61625000D01*
X49635897Y-61625000D01*
X49332675Y-61750599D01*
X49100599Y-61982675D01*
X49045133Y-62116583D01*
X48915684Y-61987134D01*
X48612462Y-61861535D01*
X48524999Y-61861535D01*
X48524999Y-61735897D01*
X48399400Y-61432675D01*
X48167324Y-61200599D01*
X47864102Y-61075000D01*
X47675000Y-61075000D01*
X47675000Y-60985897D01*
X47549401Y-60682675D01*
X47317325Y-60450599D01*
X47014103Y-60325000D01*
X46685897Y-60325000D01*
X46382675Y-60450599D01*
X46150599Y-60682675D01*
X46025000Y-60985897D01*
X46025000Y-61197183D01*
X43849402Y-63372782D01*
X43803474Y-63403470D01*
X43681913Y-63585400D01*
X43651691Y-63737340D01*
X43639227Y-63799998D01*
X43650002Y-63854167D01*
X43650003Y-68480141D01*
X43650002Y-68480146D01*
X43650002Y-68483274D01*
X43500601Y-68632675D01*
X43375002Y-68935897D01*
X43375002Y-69264103D01*
X43500601Y-69567325D01*
X43732677Y-69799401D01*
X44035899Y-69925000D01*
X44364105Y-69925000D01*
X44667327Y-69799401D01*
X44749998Y-69716730D01*
X44832675Y-69799407D01*
X45135897Y-69925006D01*
X45464103Y-69925006D01*
X45767325Y-69799407D01*
X45800000Y-69766732D01*
X45800001Y-71272182D01*
X45747183Y-71325000D01*
X45535897Y-71325000D01*
X45232675Y-71450599D01*
X45000599Y-71682675D01*
X44875000Y-71985897D01*
X44875000Y-72314103D01*
X45000599Y-72617325D01*
X45232675Y-72849401D01*
X45535897Y-72975000D01*
X45864103Y-72975000D01*
X46091286Y-72880898D01*
X42649397Y-76322787D01*
X42603472Y-76353473D01*
X42536641Y-76453493D01*
X42481911Y-76535402D01*
X42439224Y-76750001D01*
X42450000Y-76804174D01*
X42449999Y-77350000D01*
X42435897Y-77350000D01*
X42132675Y-77475599D01*
X41925000Y-77683274D01*
X41925000Y-62379593D01*
X44779594Y-59525000D01*
X44814103Y-59525000D01*
X45117325Y-59399401D01*
X45349401Y-59167325D01*
X45475000Y-58864103D01*
X45475000Y-58535897D01*
X48375000Y-58535897D01*
X48375000Y-58864103D01*
X48500599Y-59167325D01*
X48732675Y-59399401D01*
X49035897Y-59525000D01*
X49070407Y-59525000D01*
X52942720Y-63397314D01*
X52942723Y-63397316D01*
X53206664Y-63661257D01*
X53250599Y-63767325D01*
X53482675Y-63999401D01*
X53785897Y-64125000D01*
X54114103Y-64125000D01*
X54417325Y-63999401D01*
X54649401Y-63767325D01*
X54775000Y-63464103D01*
X54775000Y-63135897D01*
X54649401Y-62832675D01*
X54417325Y-62600599D01*
X54114103Y-62475000D01*
X53929593Y-62475000D01*
X53897316Y-62442723D01*
X53897314Y-62442720D01*
X51890491Y-60435897D01*
X64150000Y-60435897D01*
X64150000Y-60764103D01*
X64275599Y-61067325D01*
X64507675Y-61299401D01*
X64810897Y-61425000D01*
X65139103Y-61425000D01*
X65442325Y-61299401D01*
X65591726Y-61150000D01*
X66908284Y-61150000D01*
X67057685Y-61299401D01*
X67360907Y-61425000D01*
X67689113Y-61425000D01*
X67992335Y-61299401D01*
X68224411Y-61067325D01*
X68350010Y-60764103D01*
X68350010Y-60435897D01*
X68224411Y-60132675D01*
X67992335Y-59900599D01*
X67689113Y-59775000D01*
X67360907Y-59775000D01*
X67057685Y-59900599D01*
X66908284Y-60050000D01*
X65591726Y-60050000D01*
X65442325Y-59900599D01*
X65139103Y-59775000D01*
X64810897Y-59775000D01*
X64507675Y-59900599D01*
X64275599Y-60132675D01*
X64150000Y-60435897D01*
X51890491Y-60435897D01*
X50025000Y-58570407D01*
X50025000Y-58535897D01*
X49899401Y-58232675D01*
X49667325Y-58000599D01*
X49364103Y-57875000D01*
X49035897Y-57875000D01*
X48732675Y-58000599D01*
X48500599Y-58232675D01*
X48375000Y-58535897D01*
X45475000Y-58535897D01*
X45349401Y-58232675D01*
X45117325Y-58000599D01*
X44814103Y-57875000D01*
X44485897Y-57875000D01*
X44182675Y-58000599D01*
X43950599Y-58232675D01*
X43825000Y-58535897D01*
X43825000Y-58570406D01*
X40819714Y-61575693D01*
X40763353Y-61613352D01*
X40713679Y-61687694D01*
X40614164Y-61836629D01*
X40561776Y-62100000D01*
X40575001Y-62166486D01*
X40575000Y-82476718D01*
X40340816Y-81911348D01*
X39658652Y-81229184D01*
X38767363Y-80860000D01*
X37802637Y-80860000D01*
X36911348Y-81229184D01*
X36229184Y-81911348D01*
X35860000Y-82802637D01*
X35850000Y-82802637D01*
X35850000Y-50877816D01*
X36199417Y-50528399D01*
X37325000Y-50528399D01*
X37325000Y-51771601D01*
X37800753Y-52920170D01*
X38679830Y-53799247D01*
X39828399Y-54275000D01*
X41071601Y-54275000D01*
X42220170Y-53799247D01*
X42643193Y-53376224D01*
X45675000Y-53376224D01*
X45675000Y-53823776D01*
X45846271Y-54237261D01*
X46162739Y-54553729D01*
X46576224Y-54725000D01*
X47023776Y-54725000D01*
X47437261Y-54553729D01*
X47753729Y-54237261D01*
X47925000Y-53823776D01*
X47925000Y-53376224D01*
X47753729Y-52962739D01*
X47437261Y-52646271D01*
X47023776Y-52475000D01*
X46576224Y-52475000D01*
X46162739Y-52646271D01*
X45846271Y-52962739D01*
X45675000Y-53376224D01*
X42643193Y-53376224D01*
X43099247Y-52920170D01*
X43575000Y-51771601D01*
X43575000Y-50528399D01*
X43099247Y-49379830D01*
X42220170Y-48500753D01*
X41071601Y-48025000D01*
X39828399Y-48025000D01*
X38679830Y-48500753D01*
X37800753Y-49379830D01*
X37325000Y-50528399D01*
X36199417Y-50528399D01*
X37877817Y-48850000D01*
X38064103Y-48850000D01*
X38367325Y-48724401D01*
X38599401Y-48492325D01*
X38725000Y-48189103D01*
X38725000Y-47860897D01*
X38599401Y-47557675D01*
X38367325Y-47325599D01*
X38184813Y-47250000D01*
X71972193Y-47250000D01*
X70687698Y-48534495D01*
G36*
X63725012Y-77535897D02*
X63725012Y-77864103D01*
X63850611Y-78167325D01*
X63908280Y-78224994D01*
X63850599Y-78282675D01*
X63725000Y-78585897D01*
X63725000Y-78797183D01*
X63349398Y-79172786D01*
X63303473Y-79203472D01*
X63193473Y-79368099D01*
X63181912Y-79385401D01*
X63139225Y-79600000D01*
X63150001Y-79654174D01*
X63150000Y-82618833D01*
X63139225Y-82673002D01*
X63150000Y-82727171D01*
X63181911Y-82887600D01*
X63303472Y-83069530D01*
X63349400Y-83100218D01*
X63849785Y-83600605D01*
X63880470Y-83646528D01*
X63926392Y-83677212D01*
X64062397Y-83768088D01*
X64062398Y-83768088D01*
X64062399Y-83768089D01*
X64222828Y-83800000D01*
X64222832Y-83800000D01*
X64276997Y-83810774D01*
X64331162Y-83800000D01*
X64895831Y-83800000D01*
X64950000Y-83810775D01*
X65004169Y-83800000D01*
X65004170Y-83800000D01*
X65164599Y-83768089D01*
X65346528Y-83646528D01*
X65377216Y-83600600D01*
X65527806Y-83450010D01*
X83515084Y-83450010D01*
X83510570Y-83460907D01*
X83510570Y-83789113D01*
X83636169Y-84092335D01*
X83868245Y-84324411D01*
X84171467Y-84450010D01*
X84225000Y-84450010D01*
X84225000Y-84614103D01*
X84229514Y-84625001D01*
X64329167Y-84625001D01*
X64274998Y-84614226D01*
X64220829Y-84625001D01*
X64060400Y-84656912D01*
X63878471Y-84778473D01*
X63847786Y-84824397D01*
X62025000Y-86647183D01*
X62025000Y-78516724D01*
X62174401Y-78367323D01*
X62300000Y-78064101D01*
X62300000Y-77735895D01*
X62174401Y-77432673D01*
X62141748Y-77400020D01*
X63781294Y-77400020D01*
X63725012Y-77535897D01*
X63725012Y-77535897D01*
G37*
X63725012Y-77535897D02*
X63725012Y-77864103D01*
X63850611Y-78167325D01*
X63908280Y-78224994D01*
X63850599Y-78282675D01*
X63725000Y-78585897D01*
X63725000Y-78797183D01*
X63349398Y-79172786D01*
X63303473Y-79203472D01*
X63193473Y-79368099D01*
X63181912Y-79385401D01*
X63139225Y-79600000D01*
X63150001Y-79654174D01*
X63150000Y-82618833D01*
X63139225Y-82673002D01*
X63150000Y-82727171D01*
X63181911Y-82887600D01*
X63303472Y-83069530D01*
X63349400Y-83100218D01*
X63849785Y-83600605D01*
X63880470Y-83646528D01*
X63926392Y-83677212D01*
X64062397Y-83768088D01*
X64062398Y-83768088D01*
X64062399Y-83768089D01*
X64222828Y-83800000D01*
X64222832Y-83800000D01*
X64276997Y-83810774D01*
X64331162Y-83800000D01*
X64895831Y-83800000D01*
X64950000Y-83810775D01*
X65004169Y-83800000D01*
X65004170Y-83800000D01*
X65164599Y-83768089D01*
X65346528Y-83646528D01*
X65377216Y-83600600D01*
X65527806Y-83450010D01*
X83515084Y-83450010D01*
X83510570Y-83460907D01*
X83510570Y-83789113D01*
X83636169Y-84092335D01*
X83868245Y-84324411D01*
X84171467Y-84450010D01*
X84225000Y-84450010D01*
X84225000Y-84614103D01*
X84229514Y-84625001D01*
X64329167Y-84625001D01*
X64274998Y-84614226D01*
X64220829Y-84625001D01*
X64060400Y-84656912D01*
X63878471Y-84778473D01*
X63847786Y-84824397D01*
X62025000Y-86647183D01*
X62025000Y-78516724D01*
X62174401Y-78367323D01*
X62300000Y-78064101D01*
X62300000Y-77735895D01*
X62174401Y-77432673D01*
X62141748Y-77400020D01*
X63781294Y-77400020D01*
X63725012Y-77535897D01*
G36*
X93525547Y-76479719D02*
X93494861Y-76525644D01*
X92170506Y-77850000D01*
X91627817Y-77850000D01*
X93027817Y-76450000D01*
X93570025Y-76450000D01*
X93525547Y-76479719D01*
X93525547Y-76479719D01*
G37*
X93525547Y-76479719D02*
X93494861Y-76525644D01*
X92170506Y-77850000D01*
X91627817Y-77850000D01*
X93027817Y-76450000D01*
X93570025Y-76450000D01*
X93525547Y-76479719D01*
G36*
X89575000Y-61952817D02*
X89575000Y-62164103D01*
X89631291Y-62300000D01*
X82654168Y-62300000D01*
X82599999Y-62289225D01*
X82545830Y-62300000D01*
X82385401Y-62331911D01*
X82203472Y-62453472D01*
X82172786Y-62499397D01*
X80491698Y-64180486D01*
X80399401Y-63957663D01*
X80167325Y-63725587D01*
X79864103Y-63599988D01*
X79821186Y-63599988D01*
X79821186Y-63481674D01*
X79695587Y-63178452D01*
X79463511Y-62946376D01*
X79366579Y-62906225D01*
X80622806Y-61650000D01*
X89272184Y-61650000D01*
X89575000Y-61952817D01*
X89575000Y-61952817D01*
G37*
X89575000Y-61952817D02*
X89575000Y-62164103D01*
X89631291Y-62300000D01*
X82654168Y-62300000D01*
X82599999Y-62289225D01*
X82545830Y-62300000D01*
X82385401Y-62331911D01*
X82203472Y-62453472D01*
X82172786Y-62499397D01*
X80491698Y-64180486D01*
X80399401Y-63957663D01*
X80167325Y-63725587D01*
X79864103Y-63599988D01*
X79821186Y-63599988D01*
X79821186Y-63481674D01*
X79695587Y-63178452D01*
X79463511Y-62946376D01*
X79366579Y-62906225D01*
X80622806Y-61650000D01*
X89272184Y-61650000D01*
X89575000Y-61952817D01*
G36*
X109007912Y-54785729D02*
X108925000Y-54985897D01*
X108925000Y-55314103D01*
X108950225Y-55375001D01*
X104410865Y-55375001D01*
X104403688Y-55357675D01*
X104171612Y-55125599D01*
X103868390Y-55000000D01*
X103725000Y-55000000D01*
X103725000Y-54985897D01*
X103599401Y-54682675D01*
X103450000Y-54533274D01*
X103450000Y-54330814D01*
X105130815Y-52650000D01*
X106872184Y-52650000D01*
X109007912Y-54785729D01*
X109007912Y-54785729D01*
G37*
X109007912Y-54785729D02*
X108925000Y-54985897D01*
X108925000Y-55314103D01*
X108950225Y-55375001D01*
X104410865Y-55375001D01*
X104403688Y-55357675D01*
X104171612Y-55125599D01*
X103868390Y-55000000D01*
X103725000Y-55000000D01*
X103725000Y-54985897D01*
X103599401Y-54682675D01*
X103450000Y-54533274D01*
X103450000Y-54330814D01*
X105130815Y-52650000D01*
X106872184Y-52650000D01*
X109007912Y-54785729D01*
G36*
X107775001Y-48305812D02*
X107775001Y-48916860D01*
X107764226Y-48971029D01*
X107775001Y-49025198D01*
X107806912Y-49185627D01*
X107928473Y-49367557D01*
X107974401Y-49398245D01*
X109351986Y-50775831D01*
X109351986Y-50987117D01*
X109398744Y-51100000D01*
X109177817Y-51100000D01*
X106327837Y-48250021D01*
X107719211Y-48250021D01*
X107775001Y-48305812D01*
X107775001Y-48305812D01*
G37*
X107775001Y-48305812D02*
X107775001Y-48916860D01*
X107764226Y-48971029D01*
X107775001Y-49025198D01*
X107806912Y-49185627D01*
X107928473Y-49367557D01*
X107974401Y-49398245D01*
X109351986Y-50775831D01*
X109351986Y-50987117D01*
X109398744Y-51100000D01*
X109177817Y-51100000D01*
X106327837Y-48250021D01*
X107719211Y-48250021D01*
X107775001Y-48305812D01*
G36*
X86200000Y-50352816D02*
X86200000Y-50564103D01*
X86317903Y-50848746D01*
X76369578Y-50802852D01*
X76217325Y-50650599D01*
X75914103Y-50525000D01*
X75677817Y-50525000D01*
X76027817Y-50175000D01*
X86022184Y-50175000D01*
X86200000Y-50352816D01*
X86200000Y-50352816D01*
G37*
X86200000Y-50352816D02*
X86200000Y-50564103D01*
X86317903Y-50848746D01*
X76369578Y-50802852D01*
X76217325Y-50650599D01*
X75914103Y-50525000D01*
X75677817Y-50525000D01*
X76027817Y-50175000D01*
X86022184Y-50175000D01*
X86200000Y-50352816D01*
G04 #@! TD*
M02*
